<svg id="レイヤー_1" data-name="レイヤー 1" xmlns="http://www.w3.org/2000/svg" viewBox="0 0 900 300"><defs><style>.cls-1{fill:#b20;}</style></defs><title>アートボード 5</title><path class="cls-1" d="M324.67,129l-1.23.2-1.11.18-.42.07-2.77-.26-.24-.47s-.06-.22-.06-.69a14.14,14.14,0,0,0-.06-1.45l-.07-2.92q-.06-.94-.06-2.85l-.12-4.87q0-1.59.12-4.41l.06-2.17q.14-2.06.13-6.69v-1.28a1.18,1.18,0,0,1-.13-.68l-.06-.43a30.2,30.2,0,0,1,.19-3.34q.12-2.18.12-4l-.06-1.77c0-.46-.06-1-.06-1.64a.33.33,0,0,0-.1-.18.36.36,0,0,1-.09-.24,1.68,1.68,0,0,1,.49-1.15,3.63,3.63,0,0,1,1.23-.84,9.66,9.66,0,0,1,2.52-.72l10.37-1.66,4.79-.76s.1,0,.18.09a.63.63,0,0,0,.25.16,6.14,6.14,0,0,1,1.22,1.52c.13.23.26.5.4.79s.34.76.59,1.4.67,1.61,1.16,2.93l.74,1.85a20.07,20.07,0,0,1,1.1,2.56c.12.32.26.64.4,1s.28.64.4,1a1.72,1.72,0,0,0,.28.62.66.66,0,0,1,.15.26c.29.63.59.92.92.87s.74-.46,1-1.17a.89.89,0,0,0,.12-.31,7.38,7.38,0,0,1,.31-.78l.92-2.25,2.46-5.79,1-2.46c.12-.36.22-.66.28-.9a1.39,1.39,0,0,1,.21-.51,17.44,17.44,0,0,1,1.17-2.16,5.74,5.74,0,0,1,.55-.85.56.56,0,0,0,.25-.23.26.26,0,0,1,.18-.16l4.79-.76L369.47,79l.92-.15.61-.1.8-.13,1.35-.21c.08,0,.18.29.31.9l.18,6.2q.12,2.66.12,8.37v3.69q0,2.16-.18,4.86c-.12,1.8-.21,3-.25,3.47l-.12,1.3v2.22c0,.59.06,1.47.06,2.66s0,2.22.06,2.85a15.48,15.48,0,0,0,.13,2.52V120l-.19.54-2.76,1.14-.43.07-1.1.17-1.23.2a4,4,0,0,1-1,.29c-.74.12-1.76.24-3.07.37l-1.54.18-1,0q-.56,0-1.35.15l-2.39.19a.35.35,0,0,0-.19.1l-.49.08c-.2,0-.33-.18-.37-.64a17.15,17.15,0,0,1-.36-4.27c0-1.35,0-2.41-.06-3.17l-.07-3.42c0-.76-.06-1.85-.06-3.3,0-.33-.14-.48-.43-.44s-.33.27-.49.72l-.67,1.82-.56,1.68-.24.8a4.21,4.21,0,0,1-.31.75l-.31.81q-.54,1.36-1.41,3.09a10.29,10.29,0,0,1-2.27,3.1,3.11,3.11,0,0,1-1.29.65l-.92.14a4.49,4.49,0,0,1-1.22.07l-1.35.22-1.23.2a64.74,64.74,0,0,1-4.6-8.17l-.93-2.2c-.24-.51-.4-.76-.49-.75a.51.51,0,0,0-.43.58v3q0,4.44-.12,6.56a27.51,27.51,0,0,1-.43,4.65c0,.56-.16.85-.37.88l-.43.07H335c-1.39.31-2.5.57-3.32.78l-2.57.61c-1.23.28-2.38.5-3.44.67A2.77,2.77,0,0,1,324.67,129Z"/><path class="cls-1" d="M375.78,119.34s.07-.67.22-2a5.86,5.86,0,0,1,.28-1.61,3.13,3.13,0,0,1,.06-.67,2,2,0,0,0,.05-.45q1.29-6.52,2.86-12.92l3.81-16a.58.58,0,0,1,.16-.32,3.63,3.63,0,0,1,.34-.34l.39-.06a3.06,3.06,0,0,0,1.06-.35,8.29,8.29,0,0,1,1.18-.24q1.35-.23,2-.27a11.42,11.42,0,0,0,2.08-.16l2.91-.52a4.49,4.49,0,0,1,1.06-.29l2.46-.51,1.85-.29c.71-.12,1.4-.21,2.07-.28l1.57-.25c.37,0,.91-.09,1.62-.2l2.13-.34a.74.74,0,0,1,.33,0,1.26,1.26,0,0,1,.28.07,1.14,1.14,0,0,0,.56,0l.51-.08a.64.64,0,0,1,.39.52l4,14.67q1.85,7.07,2.91,12a6.51,6.51,0,0,0,.17,1.07,9.84,9.84,0,0,1,.23,1.82,7.14,7.14,0,0,1-.12,1.12,1.06,1.06,0,0,1-.78.71l-.62.1a11.12,11.12,0,0,1-1.12.12l-1.23.19-1.17.19-.95.16c-.27,0-.41,0-.45,0l-3.08.49-.06-.11a.41.41,0,0,0-.33-.06l-.17.15a.12.12,0,0,1-.11.13l-.17,0-.39.06a3,3,0,0,0-1,0c-.89.07-1.64.15-2.24.25a27.72,27.72,0,0,1-1.45-5.63,20,20,0,0,1-2.69.61l-1.45.23-1.4.22a9.88,9.88,0,0,0-.28,1.5q-.06.3-.45,2a11.05,11.05,0,0,1-.73,2.38l-.34.17-.39.18-.11,0a.59.59,0,0,1-.45,0,.8.8,0,0,0-.28-.07l-2.12.46-1.57.25-.45.16-.22.06-4.48.72-.45.07q-.5.13-2.07.39l-1.34.21a7.1,7.1,0,0,1-1.07.23l-.67.11ZM399,101.24l-.06-.34-.45-2.71c-.07-.53-.15-1-.22-1.44s-.13-.84-.17-1.22-.19-.87-.25-1.26-.12-.77-.2-1.1-.07-.52-.11-.88a2.25,2.25,0,0,0-.17-.76l-.11-.68a.71.71,0,0,0-.11-.39l-.06-.33-.11.36v.41a1,1,0,0,1-.05.21,2.75,2.75,0,0,0-.12.51c0,.2-.07.45-.11.74a8.58,8.58,0,0,1-.17,1l-.39,2.44-.44,2.73-.17,1.31a13.56,13.56,0,0,0-.23,1.54c-.33,1.79-.48,2.61-.44,2.45l2.46-.4.17-.17a.34.34,0,0,1,.16-.11l.17,0a2,2,0,0,1,.48,0l.36.06a1.89,1.89,0,0,0,.67,0Z"/><path class="cls-1" d="M442.91,75.14a.26.26,0,0,0-.17.09l-.22.15-.17,0-.17-.09-12.87,2.06c-.11-.1-.37-.12-.78,0l-.17,0a.6.6,0,0,1-.28.1l-.34,0-.11.14a.53.53,0,0,1-.45-.11l-2.46.4-.17.2a12.21,12.21,0,0,1-1.23.14,9.33,9.33,0,0,0-1,.1,18.2,18.2,0,0,0-2.18.23,11.32,11.32,0,0,0-1.34.34,5.24,5.24,0,0,1-1.23.37c-.15,0-.25,0-.28,0l-.23,0a2.36,2.36,0,0,0-.22.33.58.58,0,0,0-.11.3V96.44a49.4,49.4,0,0,0,.28,5.81q.33,4,.44,5.78a4.73,4.73,0,0,0,.12,1.09,14.26,14.26,0,0,0,.05,1.55,5.91,5.91,0,0,0,.51,1.52l.28.5.56-.09.56-.09a5.32,5.32,0,0,0,1-.21l1.12-.18,1-.16.84-.13.34-.06,4.2-.67a.49.49,0,0,1,.39-.23,1,1,0,0,1,.39,0c0,.07.22.08.56,0l.56-.09a4.26,4.26,0,0,0,1-.28l2.63-.48a11.69,11.69,0,0,0,.56-3.45c0-1,.05-2.85.05-5.63.08-.09.16-.2.26-.33a1,1,0,0,1,.25-.28,2.34,2.34,0,0,1,1.12-.41l.67-.1s.07,0,.11-.11a1.13,1.13,0,0,0,.11-.22l.23-.15.28.07.28-.05a.63.63,0,0,0,.28-.1c0-.08.09-.13.28-.16,0,0,.09,0,.16.09s.06.05.17,0a11.42,11.42,0,0,0,2.47-.68,8.48,8.48,0,0,0,2.35-1v-2c0-.39.05-1.07.05-2a4.35,4.35,0,0,0-.45-2.3,1.81,1.81,0,0,0-1-.66,4.4,4.4,0,0,0-1.53-.21,20.36,20.36,0,0,0-3.59.28l-1,.16a.32.32,0,0,1-.14-.21.67.67,0,0,1,0-.17v-.17l0-2.45a26.05,26.05,0,0,1,.23-2.64,2.19,2.19,0,0,1,.05-.59l.4-.24h.16l.34,0,.73-.12a7,7,0,0,0,1.68-.44l.53-.11c.2,0,.49-.11.87-.17l2.23-.36.73-.12a1.41,1.41,0,0,0,.48,0l.36-.09a2.81,2.81,0,0,0,.73-.38.56.56,0,0,0,.22-.47,20.55,20.55,0,0,0-.5-5C444.39,75.64,443.77,75,442.91,75.14Z"/><path class="cls-1" d="M466.16,72.36l-4.18.4a1,1,0,0,1-.33-.05,1,1,0,0,0-.39,0,.29.29,0,0,0-.17.07,1,1,0,0,0-.34.09.57.57,0,0,0-.29.09l-.22,0a.46.46,0,0,1-.39-.13l-2.48.24-.24.19a21.28,21.28,0,0,1-2.64.14,9.71,9.71,0,0,1-1.18,0,13.58,13.58,0,0,0-1.46,0,6.23,6.23,0,0,0-1.59.33c-.69.22-1,.48-1.06.79l-.86,14.06q-.15,2.43-.13,7.49l0,2.19c0,2.41,0,4.18-.05,5.29a6.09,6.09,0,0,1,0,1.15,8.41,8.41,0,0,0,.07,1.55c.11,1.37.16,2.06.16,2.06l1-.1,1.31-.24,1.36-.31,1.49-.43.79-.07,4.23-.41a.36.36,0,0,1,.35-.27h.79a9.16,9.16,0,0,0,1.28,0,1.92,1.92,0,0,1,.41-.21l.28,0s0-.07.12-.07l.16,0,.06,0a1.57,1.57,0,0,0,1.09-.51,2.82,2.82,0,0,0,.44-1.16c.08-.49.15-1.14.2-2a14.53,14.53,0,0,1,.26-2.38l.3-2.22.7-11.28c.05-.81.17-1.92.37-3.32a6.56,6.56,0,0,1,.19-.85,2.64,2.64,0,0,0,.11-.38Z"/><path class="cls-1" d="M467.87,104.32s.08-.67.23-2a5.51,5.51,0,0,1,.28-1.61,4.21,4.21,0,0,1,.05-.68,2.07,2.07,0,0,0,.06-.44q1.29-6.52,2.85-12.92l3.81-16a.59.59,0,0,1,.17-.32,2.15,2.15,0,0,1,.33-.34l.4-.07a2.94,2.94,0,0,0,1.06-.34,7.66,7.66,0,0,1,1.18-.25c.89-.14,1.56-.23,2-.26a12.34,12.34,0,0,0,2.07-.16l2.91-.52a4.58,4.58,0,0,1,1.07-.29l2.46-.51,1.85-.3q1.05-.17,2.07-.27l1.56-.25c.38,0,.92-.09,1.63-.2l2.12-.34a1,1,0,0,1,.34,0l.28.07a1,1,0,0,0,.56,0l.5-.08c.26.15.39.32.39.52l4,14.67q1.85,7.06,2.91,12a6.51,6.51,0,0,0,.17,1.07,9.69,9.69,0,0,1,.22,1.82,8.42,8.42,0,0,1-.11,1.12,1.09,1.09,0,0,1-.78.71l-.62.09a7.5,7.5,0,0,1-1.12.12l-1.23.2-1.18.19-1,.15a1,1,0,0,1-.45,0l-3.07.49-.06-.11a.45.45,0,0,0-.34-.06l-.16.14a.13.13,0,0,1-.12.14l-.16,0-.4.07a2.71,2.71,0,0,0-1,0c-.9.07-1.65.15-2.24.24a27.14,27.14,0,0,1-1.46-5.62,19.9,19.9,0,0,1-2.68.6l-1.46.24-1.4.22a10.76,10.76,0,0,0-.28,1.5q-.06.3-.45,2a11.4,11.4,0,0,1-.72,2.38l-.34.17-.39.17-.11,0a.58.58,0,0,1-.45,0,.8.8,0,0,0-.28-.07l-2.13.45-1.57.25c-.18.07-.33.13-.44.16l-.23.07-4.47.71-.45.08q-.51.14-2.07.39l-1.35.21a8.38,8.38,0,0,1-1.06.23l-.67.11Zm23.23-18.1s0-.11-.05-.34l-.45-2.71c-.08-.53-.15-1-.22-1.44a12.25,12.25,0,0,1-.17-1.22,11.34,11.34,0,0,1-.25-1.27c-.06-.39-.13-.76-.2-1.1s-.08-.51-.11-.88a2.44,2.44,0,0,0-.17-.75l-.11-.68a.71.71,0,0,0-.11-.39l-.06-.34-.11.37v.4a.81.81,0,0,1-.06.22,3,3,0,0,0-.11.51c0,.2-.07.44-.11.74s-.1.62-.17,1l-.39,2.44-.45,2.74-.17,1.3a14.81,14.81,0,0,0-.22,1.55c-.34,1.79-.49,2.61-.45,2.45l2.46-.4.17-.17c.08-.07.13-.11.17-.11l.17,0a1.54,1.54,0,0,1,.47,0l.37.06a2.15,2.15,0,0,0,.67,0C491.22,86.86,491.1,86.22,491.1,86.22Z"/><path class="cls-1" d="M434,172.43l-.94-.05a9,9,0,0,0-1.69.08c-.12,0-.19,0-.19.1l-.31.05c-.42-.2-.62-.4-.62-.62l-4.39-19.85q-1.81-6.45-3.69-15.43a2.86,2.86,0,0,1-.09-.63,4,4,0,0,0-.16-.82,9.33,9.33,0,0,1-.31-2.28,4.58,4.58,0,0,1,.19-1.39,1.05,1.05,0,0,1,.93-1l.76-.12,1.44-.23a6.74,6.74,0,0,0,1.62-.13l2.82-.38.56-.09,5.76-.92a.65.65,0,0,0,.25.08l.38.07a.4.4,0,0,0,.22-.1.42.42,0,0,1,.15-.09,1.41,1.41,0,0,1,.5-.21l.25,0,.63,0c.54,0,1.69-.21,3.44-.49a9.77,9.77,0,0,0,1.88-.17,28.49,28.49,0,0,1,1.25,4.54l.69,3.58c.17.88.46,2.2.88,3.95,0,0,0,.15,0,.31s.05.39.09.64a9.71,9.71,0,0,1,.22,1.1c.07.4.16.83.28,1.28s.21,1.29.51,3l1.06,5.21.19.94v.26c.08,0,.12.13.12.31l.06.38.07-.4a1,1,0,0,1,.18-.62,1.78,1.78,0,0,1,0-.29l.09-.7c.33-1.78.67-3.63,1-5.54l.63-3.15c.08-.53.16-1,.25-1.4s.14-.78.19-1.13l.18-1c.21-.94.48-2.34.82-4.21l.69-3.48c.08-.49.29-1.61.62-3.35a15.1,15.1,0,0,1,.69-1.92,11,11,0,0,0,1.38-.29l1.56-.31,1.26-.27.5-.14.18,0c.09,0,.13,0,.13.11s.08,0,.12.11a1.24,1.24,0,0,0,.41-.13.62.62,0,0,1,.22-.1v-.13l3.94-.63.5-.08a10.36,10.36,0,0,0,1.26-.27l1.56-.25a7.1,7.1,0,0,0,1.63-.39l1.44-.23.81-.13c.75-.12,1.13.43,1.13,1.64l-.06.78a12.68,12.68,0,0,1-.25,2,5.73,5.73,0,0,0-.22,1,1.7,1.7,0,0,1-.1.5q-1.62,8.82-3.63,16.6l-4.38,21.25c0,.13-.21.4-.63.82l-.18,0-.32,0a2,2,0,0,0-.81.33,1.85,1.85,0,0,1-.75.31,7.86,7.86,0,0,1-1.69.08,12.34,12.34,0,0,0-1.69.14q-7.77,1.56-22.79,4Z"/><path class="cls-1" d="M481,165.87l-1.29,0a20,20,0,0,1-3.07-.2,2.16,2.16,0,0,1-1.18-.22.72.72,0,0,1-.56-.38l-1.23-7v-.29a1.94,1.94,0,0,1,.08-.62.6.6,0,0,1,.37-.32,18.08,18.08,0,0,0,7.16.3c.75-.12,1.33-.19,1.74-.22a6.93,6.93,0,0,0,3.08-1.07,1.37,1.37,0,0,0,.5-1.07,1.88,1.88,0,0,0-.56-1.44,3.9,3.9,0,0,0-1.62-.82l-1.79-.4a8.16,8.16,0,0,1-1.8-.36.08.08,0,0,0-.05-.07.25.25,0,0,1-.11-.13,3.44,3.44,0,0,1-1-.43l-.33-.12c.07,0,.11,0,.11-.07s-.06-.07-.17-.09-.32-.15-.64-.28a2.49,2.49,0,0,1-.81-.48c-.34-.14-.51-.34-.51-.61v-.29c-.93.15-1.73-.73-2.4-2.63a17.76,17.76,0,0,1-.84-4.21,11.12,11.12,0,0,1,4.48-9,28,28,0,0,1,10-4.79,99.92,99.92,0,0,1,10.3-2.12,5.58,5.58,0,0,0,1.24.15,1.29,1.29,0,0,1,1.34.48,3.41,3.41,0,0,1,.28,1.12q.17.9.33,5.34a.39.39,0,0,1,.12.33c0,.31-.42.62-1.23.95s-1.48.41-1.74.45l-1.29.38c-1.45.43-2.4.71-2.85.86a6.5,6.5,0,0,0-3.19,2,2.63,2.63,0,0,0-.56,1.54,1.3,1.3,0,0,0,.11.62,1.17,1.17,0,0,0,.56.43c.33.14,1.31.47,2.91,1a24.73,24.73,0,0,1,5.15,2.19,6.89,6.89,0,0,1,3.13,3.67,6.4,6.4,0,0,1,.51,2.82,9.44,9.44,0,0,1-.39,2.85,15.71,15.71,0,0,1-5.49,7.13,22.74,22.74,0,0,1-4,2.47,14.54,14.54,0,0,1-4,1.3l-8.23,1.49Z"/><path class="cls-1" d="M509,160.78a2.28,2.28,0,0,1-1.17,0,.54.54,0,0,1-.39-.58c-.08-.8-.15-2.7-.23-5.7,0-.35,0-1.23-.05-2.63a19.29,19.29,0,0,0-.28-3.12l.33-.46,1.79-.69,3.31-.53a5.4,5.4,0,0,0,1-.27,5.32,5.32,0,0,1,1-.21l1.35-.22.39.11a1.27,1.27,0,0,1,.5-.19.79.79,0,0,0,.37,0,1.45,1.45,0,0,1,.25-.07,1,1,0,0,0,.39,0,.73.73,0,0,0,.34,0h1.73l.17,0,.28,0a7.79,7.79,0,0,1,1.29.37,1.74,1.74,0,0,1,.28,1.06,2.52,2.52,0,0,1,.31.93,14.48,14.48,0,0,1,.19,1.65q.06,1.34.06,3.36a13.81,13.81,0,0,1,.16,1.71,3.54,3.54,0,0,1,0,.82v.64a1.22,1.22,0,0,0-.06.47,3.4,3.4,0,0,0,.06.69v.06c0,.5-.37.81-1.12.93a3,3,0,0,1-.7.14,3.54,3.54,0,0,0-.53.06,10.65,10.65,0,0,0-1.29.14l-.5.08-.79.13a3.78,3.78,0,0,1-.78.18l-.45.08c-2.24.28-3.6.46-4.08.53-.68.11-1.16.21-1.46.29l-.9.21A3.29,3.29,0,0,1,509,160.78Z"/><path class="cls-1" d="M371.56,237.14a7,7,0,0,1-.32-2.59q0-5.75-.13-10.23-.18-6.45-.19-13.65V196.12a2.37,2.37,0,0,1,1.66-2l7.34-1.11q2-.27,5.36-.79,4.79-.77,7.41-1.26l2.36-.44q3.82-.75,6.32-1.14a23.74,23.74,0,0,1,7.66,0,11.74,11.74,0,0,1,7,3.45q3,3,3,9,0,10.07-4.92,15.34-4.33,4.92-13,6.3l-8.74,1.4c0,1,.06,2.09.06,3.23,0,.4,0,.87,0,1.43s0,1.29,0,2.22a3.72,3.72,0,0,1-.89,2.92,4.83,4.83,0,0,1-2.62,1q-2.81.45-3.9.69-4.4.7-7,1.26l-5,.79C372.24,238.49,371.77,238.08,371.56,237.14Zm24.26-20.8c.89-.15,1.55-1.13,2-3a29.77,29.77,0,0,0,.77-5.41c.09-1.29.13-2.73.13-4.31v-.73a22.84,22.84,0,0,0-.32-3.13,7.82,7.82,0,0,0-.58-1.79,2.73,2.73,0,0,0-.83-1,1.26,1.26,0,0,0-1.14-.41.82.82,0,0,0-.55.35,3.8,3.8,0,0,0-.41.73,19.37,19.37,0,0,0-1.28,5.49c-.13.81-.23,2-.32,3.62q-.31,3.69-.32,9.77a.63.63,0,0,0,.32.15l.77-.06Z"/><path class="cls-1" d="M417.61,229.83s.07-.67.22-2a5.51,5.51,0,0,1,.28-1.61,3.13,3.13,0,0,1,.06-.67,2.92,2.92,0,0,0,.05-.45q1.29-6.53,2.86-12.92l3.8-16a.62.62,0,0,1,.17-.32,2.18,2.18,0,0,1,.34-.34l.39-.06a3.06,3.06,0,0,0,1.06-.35,10,10,0,0,1,1.18-.24c.89-.15,1.56-.23,2-.27a11.38,11.38,0,0,0,2.07-.16l2.91-.52a5.31,5.31,0,0,1,1.07-.29l2.46-.51,1.85-.29c.71-.12,1.4-.21,2.07-.28l1.57-.25a15,15,0,0,0,1.62-.2l2.13-.34a.92.92,0,0,1,.33,0,1.42,1.42,0,0,1,.28.07,1.14,1.14,0,0,0,.56,0l.5-.08c.27.15.4.33.4.52l4,14.67q1.85,7.06,2.91,12a6.51,6.51,0,0,0,.17,1.07,9.69,9.69,0,0,1,.22,1.82,6.91,6.91,0,0,1-.11,1.12,1.07,1.07,0,0,1-.78.71l-.62.1c-.48.07-.86.11-1.12.12l-1.23.2-1.17.18-1,.16c-.26,0-.41,0-.44,0l-3.08.49-.06-.1a.38.38,0,0,0-.33-.07l-.17.15a.12.12,0,0,1-.11.13l-.17,0-.39.06a3,3,0,0,0-1,0c-.9.07-1.64.15-2.24.25a27,27,0,0,1-1.45-5.63,18.56,18.56,0,0,1-2.69.61l-1.46.23-1.4.23a10.93,10.93,0,0,0-.28,1.49c0,.2-.18.88-.44,2a11.45,11.45,0,0,1-.73,2.38l-.34.17-.39.18-.11,0c-.22,0-.38,0-.45-.05a.8.8,0,0,0-.28-.07l-2.13.46-1.56.25-.45.16-.22.06-4.48.72-.45.07q-.51.14-2.07.39l-1.35.21a6.63,6.63,0,0,1-1.06.23l-.67.11Zm23.23-18.1-.06-.34-.45-2.71c-.07-.53-.15-1-.22-1.44s-.13-.84-.17-1.22a11.65,11.65,0,0,1-.25-1.26c-.06-.4-.12-.77-.2-1.1s-.07-.52-.11-.88a2.25,2.25,0,0,0-.17-.76l-.11-.68A.66.66,0,0,0,439,201l-.06-.34-.11.36v.41a.69.69,0,0,1-.06.21,4.42,4.42,0,0,0-.11.51c0,.2-.07.45-.11.74s-.09.63-.17,1l-.39,2.44-.45,2.74-.17,1.3c-.07.32-.14.83-.22,1.54l-.45,2.45,2.47-.39a1.15,1.15,0,0,1,.16-.18.45.45,0,0,1,.17-.11l.17,0a2,2,0,0,1,.48,0l.36.06a1.89,1.89,0,0,0,.67,0Z"/><path class="cls-1" d="M459.74,223.69s-.09-.68-.29-2a8,8,0,0,1-.17-1.54,7.38,7.38,0,0,0-.06-1.15c-.05-1.11-.15-2.88-.31-5.29l-.18-2.17q-.36-5.06-.37-7.48l-.07-14.09c0-.31.33-.6,1-.86a5.91,5.91,0,0,1,1.57-.44c.45-.07.93-.12,1.45-.15a10.36,10.36,0,0,0,1.18-.11,20.31,20.31,0,0,0,2.63-.32l.22-.21,2.46-.4a.49.49,0,0,0,.39.11l.23,0a.47.47,0,0,1,.28-.1.88.88,0,0,1,.33-.12.27.27,0,0,1,.17-.08,1.06,1.06,0,0,1,.39,0,1.13,1.13,0,0,0,.34,0l4.14-.68.21,9.94a2,2,0,0,1-.08.39,6.3,6.3,0,0,0-.13.87c-.11,1.41-.16,2.52-.16,3.33l.06,11.3-.16,2.23a15.3,15.3,0,0,0-.1,2.4,17.82,17.82,0,0,1-.07,2,2.88,2.88,0,0,1-.36,1.19,1.58,1.58,0,0,1-1.06.58l-.06-.05-.16,0c-.08,0-.12,0-.12.08l-.28,0a2.4,2.4,0,0,0-.39.24,11.09,11.09,0,0,1-1.28,0l-.79.07a.36.36,0,0,0-.33.29l-4.2.69-.78.13-1.45.53-1.34.4-1.29.32Z"/><path class="cls-1" d="M482.71,219.38l-.89.15-.84.13-.45.07-2.18-.28-.11-.33s-.06-.19-.06-.58a9.5,9.5,0,0,0-.06-1.2l-.05-2.2q-.06-.69-.06-2.19c0-1,0-1.68-.05-2.14v-1.74q-.34-3.6-.34-7.48v-1.34a5.68,5.68,0,0,1,.06-1v-.87a1.87,1.87,0,0,1-.06-.57v-2.49a5.74,5.74,0,0,1,.06-1v-.58l.05-.3v-.75c0-.39.06-.92.06-1.57a12.84,12.84,0,0,0-.06-1.33l-.05-1.32-.06-.23c-.11-.06-.11-.11,0-.17a2.43,2.43,0,0,1,1.4-1.56,6,6,0,0,1,1.85-.53c.63-.1,2.29-.42,5-1,1.34-.29,2.18-.46,2.52-.52.56-.12,1.23-.25,2-.38a1.83,1.83,0,0,1,.79.08,1.14,1.14,0,0,1,.41.43l.31.47,1.12,1.5s.43.59,1.4,1.86,2,2.9,3.25,4.59c.18.28.41.59.67.93s.54.75.84,1.2v-2c0-.54.06-1.32.06-2.32,0-1.32,0-2.79.11-4.43a7.34,7.34,0,0,1,.05-.85,4.22,4.22,0,0,0,.06-.62c0-.38,0-.58.06-.59a3.81,3.81,0,0,1,.78-.87,2.46,2.46,0,0,1,1.4-.63l2.8-.45.56-.09a13.74,13.74,0,0,1,1.4-.17l1.67-.27q.57,0,1.68-.21l1.24-.19.56-.09a2.66,2.66,0,0,1,1.68.13.88.88,0,0,1,.44.54,3.85,3.85,0,0,1,.11,1.11c0,.51,0,.93-.05,1.29s-.06.86-.06,1.4v.4a1.63,1.63,0,0,1,.06.52v1.5l-.06,6.68v8.12c0,4.17,0,6.83-.11,8l-.17,1.94c-.18.92-.45,1.42-.78,1.52a1.08,1.08,0,0,0-.31.1,1.87,1.87,0,0,1-.42.13q-2,.31-3,.36l-2.91.46-2.91.47-.72.11a1.61,1.61,0,0,1-.45.13,3.51,3.51,0,0,1-1.4-.06,1.71,1.71,0,0,1-.95-.49l-4.93-6.4c-.19-.24-.54-.63-1.06-1.16l-.73-.58c-.19-.16-.34-.24-.45-.22a.43.43,0,0,0-.28.19.56.56,0,0,0-.11.28v1a12.61,12.61,0,0,0-.06,1.45v1.69c0,.43-.05,1-.05,1.74v2.26a.9.9,0,0,0-.06.36s-.05.36-.17,1a1.94,1.94,0,0,1-.16.31.71.71,0,0,1-.39.12.49.49,0,0,0-.2,0l-.14,0q-4.43,1.11-7.33,1.58Z"/><path class="cls-1" d="M532.7,211.38l-2.58.42-2.91.46-3.69.59a6.28,6.28,0,0,1-.67-2.85,50,50,0,0,1-.23-5.53l.06-6.38q0-2.33.05-7.37l-.16-.15-5.55.88c-.82.14-1.36-.74-1.62-2.63a34.12,34.12,0,0,1-.22-4.55v-.75a5.82,5.82,0,0,0,.11-1.3v-1.16l.06-.47.22-.27,1-.1,1.12-.18q2.46-.39,3.75-.66l3.63-.58,1-.16,1.91-.3,2.4-.39,2.41-.38c.48,0,1.17-.14,2.07-.28l1.4-.22a1.83,1.83,0,0,1,.73-.23,3,3,0,0,1,.72-.24,8.61,8.61,0,0,1,1.63-.14q1.11-.06,1.68-.15l1.45-.29,2.19-.35c1.11-.18,1.88-.29,2.29-.31l.78-.07.17.12c.08,0,.11.09.11.12v9.86a1.41,1.41,0,0,1-.36.81,2.36,2.36,0,0,1-.7.64,22.31,22.31,0,0,0-4.81.36l-2.13.34c-.56.09-.93.89-1.12,2.38a11.42,11.42,0,0,0-.11,1.88v1.74c0,.77,0,1.35.05,1.73v1.62a41,41,0,0,1-.22,4.44c-.07,1-.11,1.76-.11,2.22a12.45,12.45,0,0,0-.11,1.93c0,1.16,0,2.14-.12,2.92,0,1.21-.46,1.91-1.28,2.12s-1.42.4-1.57.43Z"/><path class="cls-1" d="M551,207.82a2.75,2.75,0,0,1-.56-1.19,2.28,2.28,0,0,1-.28-.71,8.3,8.3,0,0,1-.73-2.78c-.15-1.75-.22-3.15-.22-4.2,0-.45-.06-1.09-.06-1.9v-1.39c0-1.16,0-2.07,0-2.72s-.06-2.06-.06-4.11q0-8.22.34-12.75c0-.46.63-.91,1.9-1.35l1.68-.26,1.4-.23c2.13-.34,3.71-.55,4.76-.64,1.56-.14,3.15-.33,4.75-.59a4.47,4.47,0,0,0,.84-.19l.84-.14.28.19a27,27,0,0,1,3.81-1.13c1.3-.29,2.89-.58,4.76-.88a.38.38,0,0,1,.28.13l1.79-.29a.65.65,0,0,1,.7.41,5,5,0,0,1,.42,1.44,9.08,9.08,0,0,1,.33,1.81,12,12,0,0,0,.39,1.85c0,1.08-.18,1.65-.55,1.71,0,0-.1,0-.17-.15l-.23,0a1.16,1.16,0,0,0-.61.16,1.84,1.84,0,0,1-.73.29.85.85,0,0,1-.56-.09,1.47,1.47,0,0,0-.5,0,5.57,5.57,0,0,0-1.18.37l-.87.31a8.72,8.72,0,0,1-1.48.35c-1.61.26-2.76.48-3.47.67a4,4,0,0,0-1.18.54v-.12c-.15,0-.28.24-.39.65a9.92,9.92,0,0,0-.5,2.8,10.63,10.63,0,0,0-.06,1.17,1.24,1.24,0,0,0,.2.84.7.7,0,0,0,.64.13.89.89,0,0,0,.56-.32.9.9,0,0,1,.28,0,.52.52,0,0,1,.28.13l4.76-.76a.42.42,0,0,1,.17-.2.72.72,0,0,1,.22-.1,1.58,1.58,0,0,1,.84,0,4.91,4.91,0,0,0,1.34.14.75.75,0,0,1,.79.22,1.21,1.21,0,0,1,.28.71l1.17,3.64c.12.6-.44,1.09-1.68,1.48a23.93,23.93,0,0,1-4.08.89l-2.41.38-1.68.27a6.71,6.71,0,0,0-1.17.28.81.81,0,0,0-.51.51,1.72,1.72,0,0,0-.22,1v.23a1.1,1.1,0,0,0,0,.39l0,1.29a9.28,9.28,0,0,0-.06,1.23v1.44c1.68-.26,3.4-.6,5.15-1s3.42-.72,5.1-1c.11,0,.2.05.28.21a1.51,1.51,0,0,1,.11.59,2.45,2.45,0,0,1,.11.74,8.85,8.85,0,0,0,.34,1.57l.39,1.62v1.8l-.45.47-.39.07-.17,0a3,3,0,0,1-.78.07.6.6,0,0,0-.4,0l-.33.22-.39.3v-.29l-.67.17-.84.13a.44.44,0,0,1-.34-.06h-.45a8.12,8.12,0,0,0-2.91.87L551.17,208C551.09,208,551,208,551,207.82Z"/><path class="cls-1" d="M604,198l-1.73-2.27c-.83-1-2.09-2.78-3.81-5.36l-.95-1.42a.52.52,0,0,1-.11-.1l-.28,0-.23.15c0,.51-.05,1.86-.05,4.07,0,1.43-.08,3.12-.23,5.08l0,1.75a2.52,2.52,0,0,1-.28.68l-.4.06-.16,0c-4.11,1-7.09,1.6-9,1.9l-.84.13-1.06.17a4.57,4.57,0,0,1-.9.09l-.39.06-1.73-.3-.12-.39c-.07,0-.12-.06-.14-.21a2.45,2.45,0,0,1,0-.34c-.12-1.61-.21-2.77-.28-3.5-.15-2.06-.25-3.57-.28-4.53s-.12-1.51-.12-1.78l-.28-3.15,0-1.73a13.14,13.14,0,0,1-.06-1.44v-.52a2.79,2.79,0,0,0,.11-.94v-1a2.2,2.2,0,0,0,.06-.53l-.06-.45v-.58a1.3,1.3,0,0,0-.11-.62v-.35l.06-1.46a9.76,9.76,0,0,0,0-1.23c.08-1.17.12-2.28.12-3.32v-.58a2.78,2.78,0,0,1-.06-.74v-1.4a.41.41,0,0,1-.17-.32c0-.54.47-1,1.4-1.38a7.92,7.92,0,0,1,2.07-.56,151.93,151.93,0,0,1,19.59-2.21c4.26-.06,7.24.52,9,1.75a5.05,5.05,0,0,1,1.59,2.33,10.66,10.66,0,0,1,.48,3.43,9.6,9.6,0,0,1-1.79,5.74,13.5,13.5,0,0,1-2.74,2.47,21.81,21.81,0,0,0,2,3.16c.22.24.43.49.64.77a9,9,0,0,0,.75.86c.71.89,1.53,1.86,2.47,2.91a4.07,4.07,0,0,0,.45.92q.27.06.3.21a.72.72,0,0,1-.08.39,12,12,0,0,1-2.63,2.45,8.48,8.48,0,0,1-.67.69,21.41,21.41,0,0,1-3.08,2.4,21.85,21.85,0,0,1-3.08,1.89c-.34.24-.54.31-.62.21Zm-5.76-17.28a7.34,7.34,0,0,0,1.67-1,9.24,9.24,0,0,0,1.46-1.39,3.09,3.09,0,0,0,.62-1.84,3.06,3.06,0,0,0-1-2.45,2.78,2.78,0,0,0-2.07-.37l-2.4.39c0,.5,0,1.3-.12,2.39l0,1.23c-.08.79-.11,2-.11,3.61A10.81,10.81,0,0,0,598.19,180.67Z"/><path class="cls-1" d="M287.71,186.84c5.11.6,12-3.17,15,5.83,2.44,7.35-9.1,19.16-12,29.78-2.62,9.64-.61,22.4,7.87,21.15l22.49-3.33c4-.59,4.71-3.1,3.56-9.5-1.56-8.66-3.2-28,9.84-29.89l16.4-2.42c6.27-.93,6.59-8,5.39-12.85a5.76,5.76,0,0,1,4.53-7.06l8.18-1.21,2.44-5.21,26.1-4.17,2.71-5.77s-108.64,16.37-112.5,16.94S283.34,186.33,287.71,186.84Zm50-5.09,8.12-1.2c7.65-1.13,12.93,14.14.92,15.92l-11.12,1.64C326.1,199.52,330.26,182.85,337.7,181.75Zm-28.72.66,10.69-1.58c1.1-.16,2.13-.34,3.06-.48,1.85-.27,3.33-.37,4.28.19,2.74,1.61,2.65,4.1,1.75,6.13-1.13,2.56-2.25,5.37-3.31,8.31a3.53,3.53,0,0,1-.42,6.89,3.49,3.49,0,0,1-1.76-.2c-2.46,8.4-4,17.24-3.27,24.4.92,8.85-.37,10.21-5.31,10.94l-12.94,1.91c-7.43,1.1-9.5-12.77-3.19-23,8.63-14,9.86-20.31,7.3-24.93C302.64,185.2,305.24,183,309,182.41Zm-1.93,7.92c-1.2-2.17-1.57-3.85-1.06-4.89s2-1.49,3.19-1.66l10.69-1.58,1.67-.27,1.39-.21c.87-.13,2.69-.4,3.39,0s2.48,1.46,1.2,4.37-2.43,5.81-3.48,8.79h0a3.52,3.52,0,0,0-2.95,4,3.58,3.58,0,0,0,1,2c-.51,1.7-1,3.38-1.37,5-1.95,7.92-2.65,14.75-2.07,20.31.44,4.19.35,6.5-.3,7.7-.5.94-1.47,1.37-3.85,1.72l-12.94,1.91a3.64,3.64,0,0,1-3.78-1.88c-2.41-3.72-2.35-12,2-19C308.14,203,310.12,195.87,307.05,190.33Zm25.41-1.12a7.3,7.3,0,0,1,6.28-6.3l2.12-.31c-1.85,3.88-1.88,9.77,2,12.21-2.74.66-5.83-2.28-6.35-4.23A5.92,5.92,0,0,1,332.46,189.21Zm-49.82-29.37c1.15-3,8.41-3.09,11.07.83l-1.77,8.74a9.43,9.43,0,0,0-4.26-6.49C285.42,161.42,282,161.52,282.64,159.84Zm124.58-4.22-3.9.58.45,3.1-81.06,12.3,4-17-2.64.39-4,17.05-3.5.52,4-17-2.64.39-4,17.05-3.5.51,4-17-2.64.39-4,17-3.5.52,4-17-2.64.39-4,17.05-9.44,1.4,5-23.13,37.48-5.54,2.65,2.57,48.15-7.43,1.73-4.2,13.21-1.95.87,6,3.91-.58Z"/><path class="cls-1" d="M587.84,65.2q-1.59,2.67-3.4,6a5.92,5.92,0,0,1,1.45,2.74A6,6,0,0,1,581.65,81a4.51,4.51,0,0,1-2.29-.08c-6.05,11.92-13.32,27.34-21.44,44.59a13.09,13.09,0,0,1,2,1.35c14.64-26.85,25.61-47.31,31.26-58.7Q589.54,66.61,587.84,65.2Z"/><path class="cls-1" d="M543.44,127.69a10.76,10.76,0,0,1,9.34-3.78c8.91-18.93,16.55-35.14,22.84-47.39l-.08-.29c-.66-3,.55-6.16,3.57-6.83l.27-.05c1.5-2.76,2.91-5.23,4.21-7.39-18.24-12.76-41.78-14.88-52.78.19-12.81,17.56-7.45,44.54-.8,58.66C534.36,130,539.34,132.83,543.44,127.69Zm21.44-65.88c3-.67,6.09.69,6.75,3.74s-1.28,6.78-4.3,7.46-7.09-1.72-7.76-4.77S561.86,62.49,564.88,61.81Zm-8.29,52.92a6.18,6.18,0,0,1-9.65,3.12c-3.55-2.74-5-12.25-.58-14.56C551.76,100.46,558,110.07,556.59,114.73Zm-9.13-57.14c3-.67,7.06,1.86,7.73,4.91s-2,6.92-5,7.6-6.68-1.79-7.34-4.84S544.43,58.27,547.46,57.59Z"/><path class="cls-1" d="M598,76c-.95-1.3-2-2.55-3-3.76-1.36,2.71-3,5.9-4.94,9.61a5.08,5.08,0,0,1,6,4.24,5,5,0,0,1-3.94,6.23,5.28,5.28,0,0,1-6.13-2.7c-5.57,10.51-13,24.19-22.56,41.77a18.63,18.63,0,0,1,1.65,4.91c2.84,14.67,14.58,18.53,31.9,10.6C616.79,137.87,616.5,101.38,598,76ZM596.1,95.39c3-.67,6.48,1.93,7.14,5a5.72,5.72,0,0,1-4.61,6.58,5.42,5.42,0,0,1-6.66-4.06C591.3,99.84,593.08,96.07,596.1,95.39Zm.75,42.88a5.46,5.46,0,0,1-6.64-4.13c-.67-3.06,1.13-6.59,4.15-7.26s5.49,1.9,6.16,5S599.87,137.59,596.85,138.27ZM602,123.62c-3,.67-5-1.24-5.68-4.29s.08-6.85,3.1-7.53,5.34,2.44,6,5.5S605,122.94,602,123.62Z"/><path class="cls-1" d="M591.56,55.38c-.27.27-.55.58-.84.92a5,5,0,0,0,2.62,2.82,7.84,7.84,0,0,0,4.36,1,8.84,8.84,0,0,0,.25-.85C598.41,57.29,594.24,52.65,591.56,55.38Z"/><path class="cls-1" d="M591,63.93A10.77,10.77,0,0,1,587.33,61c-9.63,14.9-25.77,50.95-46.75,94.94-2.24,4.68,3.24,5.74,4.86,2.8,28.3-51.54,44.17-81,50-93.38A14.16,14.16,0,0,1,591,63.93Z"/><path class="cls-1" d="M594,45.89a4.09,4.09,0,0,0,3-.3,7.87,7.87,0,0,1,5.81-.42,7,7,0,0,1,4.33,3.66l.29.46c.87.05,1.46-.21,2-2,.13-.43.23-.83.31-1.22-3.78-2.46-14.84-5.22-16.9-5.72a3.76,3.76,0,0,0-.23.55h0c-.55,1.69-.58,3.09-.08,4A2.25,2.25,0,0,0,594,45.89Z"/><path class="cls-1" d="M607.42,54.65c-.33,0-.63,0-.91,0a5.22,5.22,0,0,1-4-3c-.55-.93-.72-1.11-1.12-1.22a2.84,2.84,0,0,0-2.41.18,9.16,9.16,0,0,1-6,.63,7.59,7.59,0,0,1-4.47-2.69c-1.52,5-1.45,10.48,3.62,13.05,7.08,3.58,12.69-1,16-6.91Z"/><path class="cls-1" d="M590,40.07c-1.8,5.48,1,8,3.45,8.46,4.68.89,4.43-1.87,8.61-.77,2.89.77,2.58,4,4.68,4.18,2.56.26,4.26-.89,5.15-3.87,1.46-4.89.1-7.5.48-9.32.45-2.1,2.39-3.84,5-2.54a4.07,4.07,0,0,0-3.6-3.6,9.32,9.32,0,0,0,.09-12.18c1.31,7-3.76,9.86-13,12.13C596.16,33.72,591.32,36.14,590,40.07Z"/></svg>