<svg id="レイヤー_1" data-name="レイヤー 1" xmlns="http://www.w3.org/2000/svg" viewBox="0 0 240 160"><defs><style>.cls-1{fill:#b20;}</style></defs><title>logo</title><path class="cls-1" d="M30.18,77.83,29.3,78l-.79.13-.31.05-2-.18L26,77.63s0-.16,0-.49,0-.78,0-1L25.91,74c0-.45,0-1.14,0-2.05l-.09-3.49c0-.76,0-1.81.09-3.16l0-1.55c.06-1,.09-2.58.09-4.8v-.91a.91.91,0,0,1-.09-.49l0-.31A22.19,22.19,0,0,1,26,54.86c.06-1,.09-2,.09-2.84L26,50.75c0-.33,0-.72,0-1.18a.19.19,0,0,0-.07-.12.29.29,0,0,1-.06-.17,1.19,1.19,0,0,1,.35-.84,2.52,2.52,0,0,1,.88-.59,6.56,6.56,0,0,1,1.8-.52l7.44-1.19,3.43-.55a.23.23,0,0,1,.13.07.41.41,0,0,0,.17.11A4.32,4.32,0,0,1,41,46.86c.09.17.19.36.29.57s.24.55.42,1,.48,1.16.83,2.1L43,51.86a12.43,12.43,0,0,1,.79,1.83c.09.23.19.46.29.69s.2.45.28.68a1.61,1.61,0,0,0,.2.45.37.37,0,0,1,.11.18c.21.46.43.66.66.63s.53-.33.71-.84a1.2,1.2,0,0,0,.08-.22,5.88,5.88,0,0,1,.22-.56L47,53.09l1.76-4.16.75-1.76c.09-.25.15-.47.2-.64a.87.87,0,0,1,.15-.37,14.65,14.65,0,0,1,.84-1.55,5.08,5.08,0,0,1,.39-.61.32.32,0,0,0,.18-.16.16.16,0,0,1,.13-.11l3.43-.55L62.29,42l.66-.11.43-.07.58-.09,1-.15c.06,0,.14.2.22.65l.14,4.44q.07,1.89.08,6V55.3c0,1,0,2.19-.13,3.48s-.14,2.12-.17,2.49L65,62.2v1.59c0,.42,0,1.06,0,1.91s0,1.59,0,2a13.89,13.89,0,0,0,.08,1.81v1.82l-.13.39-2,.82-.3,0-.8.12-.88.14a2.4,2.4,0,0,1-.74.21c-.53.09-1.26.17-2.2.26l-1.1.13-.71,0a6.72,6.72,0,0,0-1,.11l-1.72.13a.23.23,0,0,0-.13.07l-.35.06c-.15,0-.24-.13-.27-.46a12.37,12.37,0,0,1-.26-3.06c0-1,0-1.73,0-2.27l0-2.45c0-.54,0-1.33,0-2.36,0-.25-.11-.35-.31-.32s-.24.19-.35.51l-.49,1.31L50.94,66l-.18.58a2.81,2.81,0,0,1-.22.53l-.22.59c-.26.65-.6,1.38-1,2.21a7.35,7.35,0,0,1-1.63,2.22,2.13,2.13,0,0,1-.92.46l-.66.11a3.52,3.52,0,0,1-.88,0l-1,.15-.88.14a47.23,47.23,0,0,1-3.3-5.85l-.66-1.58c-.17-.36-.29-.54-.35-.53a.36.36,0,0,0-.31.41v2.14c0,2.13,0,3.7-.08,4.71a21.14,21.14,0,0,1-.31,3.33q0,.6-.27.63l-.3,0h-.22c-1,.22-1.79.41-2.38.56l-1.85.44c-.87.2-1.7.36-2.46.48A1.87,1.87,0,0,1,30.18,77.83Z"/><path class="cls-1" d="M66.81,70.89s0-.48.16-1.44a3.87,3.87,0,0,1,.2-1.16,2.21,2.21,0,0,1,0-.48,1.45,1.45,0,0,0,0-.32c.61-3.12,1.3-6.2,2-9.26L72,46.74a.45.45,0,0,1,.12-.23l.24-.24.28-.05a2.19,2.19,0,0,0,.77-.24,4.7,4.7,0,0,1,.84-.18c.64-.1,1.12-.17,1.44-.19a8.51,8.51,0,0,0,1.49-.11l2.08-.38a3.08,3.08,0,0,1,.77-.2l1.76-.37,1.32-.21c.51-.08,1-.15,1.49-.2L85.74,44a11,11,0,0,0,1.17-.14l1.52-.24a.49.49,0,0,1,.24,0l.2.05a.86.86,0,0,0,.4,0l.36-.06c.19.11.28.23.28.37l2.85,10.51q1.32,5.07,2.09,8.6a4.4,4.4,0,0,0,.12.77,7.76,7.76,0,0,1,.16,1.31,6.07,6.07,0,0,1-.08.8.78.78,0,0,1-.56.51l-.44.07a6.35,6.35,0,0,1-.81.08l-.88.14-.84.14-.68.11a.65.65,0,0,1-.32,0l-2.21.35,0-.07a.26.26,0,0,0-.24-.05l-.12.1a.09.09,0,0,1-.08.1l-.12,0-.28,0a2.18,2.18,0,0,0-.73,0c-.64,0-1.17.1-1.6.17a19.84,19.84,0,0,1-1-4,13.94,13.94,0,0,1-1.93.43l-1,.17-1,.16a6.41,6.41,0,0,0-.2,1.07c0,.14-.14.63-.33,1.46A7.38,7.38,0,0,1,79,68.68l-.24.12-.28.13h-.08c-.16,0-.27,0-.32,0s-.17-.06-.2,0l-1.52.33-1.13.18-.32.11-.16,0L71.58,70l-.32,0c-.24.07-.73.16-1.48.28l-1,.15a4.73,4.73,0,0,1-.76.17l-.48.07Zm16.65-13a2.24,2.24,0,0,1,0-.25l-.33-1.94c0-.38-.1-.72-.16-1s-.09-.6-.12-.88a8.94,8.94,0,0,1-.18-.9,7.54,7.54,0,0,0-.14-.79c0-.16,0-.37-.08-.63a1.34,1.34,0,0,0-.12-.54l-.08-.49a.51.51,0,0,0-.08-.28l0-.24-.08.26v.29a.41.41,0,0,1,0,.15,2.44,2.44,0,0,0-.08.37c0,.14,0,.32-.08.53s-.07.45-.12.71L81.41,54l-.32,2L81,56.9A8.13,8.13,0,0,0,80.81,58c-.24,1.28-.35,1.87-.32,1.75l1.76-.28.12-.12c.06,0,.1-.08.12-.08l.12,0a1.42,1.42,0,0,1,.34,0l.26,0a1.34,1.34,0,0,0,.49,0Z"/><path class="cls-1" d="M114.92,39.21a.23.23,0,0,0-.12.06l-.16.11a.3.3,0,0,1-.12,0,.35.35,0,0,1-.12-.07l-9.23,1.48c-.08-.07-.27-.08-.56,0l-.12,0a.4.4,0,0,1-.2.07l-.24,0L104,41a.34.34,0,0,1-.32-.07l-1.77.28-.12.15c-.32,0-.61.08-.88.1a6.76,6.76,0,0,0-.72.07,10.44,10.44,0,0,0-1.57.17,8.68,8.68,0,0,0-1,.23,3.3,3.3,0,0,1-.88.27c-.11,0-.18,0-.2,0l-.16,0a1,1,0,0,0-.16.23.42.42,0,0,0-.08.22V54.47a34.66,34.66,0,0,0,.2,4.17c.16,1.91.26,3.29.32,4.14a3.22,3.22,0,0,0,.08.78,9.77,9.77,0,0,0,0,1.12,4.48,4.48,0,0,0,.36,1.08l.2.36.4-.06.4-.07a3.2,3.2,0,0,0,.68-.15l.81-.13.72-.11.6-.1.24,0,3-.48a.37.37,0,0,1,.28-.17,1.3,1.3,0,0,1,.28,0s.16.06.4,0l.4-.07a3.12,3.12,0,0,0,.73-.19l1.88-.35a8.27,8.27,0,0,0,.4-2.47c0-.7,0-2,0-4a1.25,1.25,0,0,0,.18-.24,1.13,1.13,0,0,1,.18-.19,1.64,1.64,0,0,1,.81-.29l.48-.08a.19.19,0,0,0,.08-.08l.08-.15.16-.11.2,0,.2,0a.52.52,0,0,0,.2-.08s.07-.09.2-.11.07,0,.12.06,0,0,.12,0A8.14,8.14,0,0,0,113.4,56a6,6,0,0,0,1.68-.72V53.85c0-.28,0-.77,0-1.46a3.21,3.21,0,0,0-.32-1.65,1.29,1.29,0,0,0-.7-.47,3.54,3.54,0,0,0-1.11-.16,15,15,0,0,0-2.56.21l-.72.11a.27.27,0,0,1-.11-.15.57.57,0,0,1,0-.12V50l0-1.75a16.57,16.57,0,0,1,.16-1.9,1.23,1.23,0,0,1,0-.42l.28-.17h.12a.75.75,0,0,0,.24,0l.52-.08a5.17,5.17,0,0,0,1.2-.32,3.74,3.74,0,0,0,.38-.08,6,6,0,0,1,.63-.12l1.6-.26.52-.08a1.16,1.16,0,0,0,.34,0l.26-.07a1.74,1.74,0,0,0,.52-.27.39.39,0,0,0,.16-.33,14.9,14.9,0,0,0-.36-3.56C116,39.57,115.53,39.11,114.92,39.21Z"/><path class="cls-1" d="M131.58,37.22l-3,.29a.9.9,0,0,1-.24,0,.75.75,0,0,0-.28,0,.23.23,0,0,0-.12.06.7.7,0,0,0-.25.06.33.33,0,0,0-.2.06l-.16,0a.33.33,0,0,1-.28-.1l-1.78.17-.17.14a15.28,15.28,0,0,1-1.89.1,6.8,6.8,0,0,1-.85,0c-.37,0-.72,0-1.05,0a5,5,0,0,0-1.14.23q-.74.24-.75.57l-.62,10.08q-.11,1.74-.09,5.37l0,1.56c0,1.73,0,3,0,3.8a4.44,4.44,0,0,1,0,.82,5.41,5.41,0,0,0,.06,1.11c.07,1,.11,1.48.11,1.48l.72-.08.94-.17,1-.22,1.06-.3.57-.06,3-.29a.25.25,0,0,1,.25-.19H127a9,9,0,0,0,.92,0,1.11,1.11,0,0,1,.29-.15l.2,0s0,0,.08-.05l.12,0,0,0a1.16,1.16,0,0,0,.79-.37,2.06,2.06,0,0,0,.31-.83,12.34,12.34,0,0,0,.14-1.4,10.54,10.54,0,0,1,.19-1.7l.22-1.59.49-8.09q.06-.87.27-2.37a4.19,4.19,0,0,1,.14-.62,1.25,1.25,0,0,0,.07-.27Z"/><path class="cls-1" d="M132.81,60.12s.05-.48.16-1.44a4.09,4.09,0,0,1,.2-1.15,2.25,2.25,0,0,1,0-.49,1.39,1.39,0,0,0,0-.32q.93-4.66,2.05-9.26L138,36a.37.37,0,0,1,.13-.22,1.93,1.93,0,0,1,.24-.25l.28,0a2.18,2.18,0,0,0,.76-.25,7.66,7.66,0,0,1,.84-.18c.64-.1,1.12-.16,1.45-.19a8.4,8.4,0,0,0,1.48-.11l2.09-.37a3.31,3.31,0,0,1,.76-.21l1.76-.36,1.33-.22c.5-.08,1-.14,1.48-.19l1.12-.18q.4,0,1.17-.15l1.52-.24a1,1,0,0,1,.24,0l.2,0a.75.75,0,0,0,.4,0l.36-.06c.19.11.29.24.29.37l2.84,10.52c.89,3.38,1.58,6.24,2.09,8.6a4.54,4.54,0,0,0,.12.77,6.75,6.75,0,0,1,.16,1.3,5.91,5.91,0,0,1-.08.8.76.76,0,0,1-.56.51l-.44.07a6.76,6.76,0,0,1-.81.09l-.88.14-.84.13-.68.11c-.19,0-.3,0-.32,0l-2.21.36,0-.08a.29.29,0,0,0-.24-.05l-.12.11a.09.09,0,0,1-.08.09l-.12,0-.28.05a1.82,1.82,0,0,0-.72,0c-.65,0-1.18.1-1.61.17a19.84,19.84,0,0,1-1-4,13.54,13.54,0,0,1-1.93.44l-1,.16-1,.16a6.6,6.6,0,0,0-.2,1.07c0,.15-.14.64-.32,1.47a7.3,7.3,0,0,1-.53,1.7l-.24.12a2.51,2.51,0,0,1-.28.13h-.08a.39.39,0,0,1-.32,0l-.2,0-1.52.33-1.13.18-.32.11-.16,0-3.21.51-.32,0c-.24.07-.73.16-1.48.28l-1,.16a6.92,6.92,0,0,1-.77.16l-.48.08Zm16.65-13a2.26,2.26,0,0,1,0-.24L149.1,45c-.06-.37-.11-.72-.16-1a7.52,7.52,0,0,1-.12-.87c-.08-.32-.14-.63-.19-.91s-.08-.55-.14-.79-.05-.37-.08-.63a1.34,1.34,0,0,0-.12-.54l-.08-.49a.4.4,0,0,0-.08-.27l0-.25-.08.27v.29a.47.47,0,0,1,0,.15,3.65,3.65,0,0,0-.08.36c0,.15,0,.32-.08.54a5.41,5.41,0,0,1-.12.7l-.28,1.75-.32,2-.12.94a9.87,9.87,0,0,0-.16,1.1c-.24,1.29-.35,1.87-.32,1.76l1.76-.29.12-.12c.06-.05.1-.08.12-.08l.12,0a1.05,1.05,0,0,1,.35,0l.26,0a1.29,1.29,0,0,0,.48,0Z"/><path class="cls-1" d="M108.5,108.93l-.67,0a5.9,5.9,0,0,0-1.22.06c-.09,0-.13,0-.13.06l-.22,0c-.3-.14-.45-.28-.45-.44l-3.14-14.23q-1.31-4.62-2.65-11a2.35,2.35,0,0,1-.07-.46,2.06,2.06,0,0,0-.11-.58,6.75,6.75,0,0,1-.22-1.64,3.46,3.46,0,0,1,.13-1,.75.75,0,0,1,.67-.71l.54-.08,1-.17a5.11,5.11,0,0,0,1.17-.09l2-.28.4-.06,4.13-.66a.6.6,0,0,0,.18.06l.27,0a.33.33,0,0,0,.16-.07.28.28,0,0,1,.11-.07.92.92,0,0,1,.36-.15l.18,0,.44,0c.39,0,1.22-.15,2.47-.35a7.68,7.68,0,0,0,1.35-.12,20.29,20.29,0,0,1,.9,3.25l.49,2.57q.18.94.63,2.82a1.34,1.34,0,0,0,0,.23c0,.12,0,.28.07.46a7.22,7.22,0,0,1,.15.78,9.18,9.18,0,0,0,.21.92c0,.22.14.93.35,2.13l.77,3.74.13.67v.19c.06,0,.09.09.09.22l0,.27,0-.29a.68.68,0,0,1,.14-.44,1.11,1.11,0,0,1,0-.21c0-.11,0-.28.07-.5.23-1.28.47-2.6.71-4l.45-2.26c.06-.38.12-.71.18-1s.11-.56.14-.81L121,85c.15-.68.34-1.68.58-3l.5-2.5c.06-.35.21-1.15.45-2.39a9.17,9.17,0,0,1,.49-1.38,9,9,0,0,0,1-.21l1.12-.22.9-.19.35-.11.14,0c.06,0,.09,0,.09.08s.06,0,.09.08A.76.76,0,0,0,127,75l.16-.07v-.09l2.82-.45.36-.06a8.09,8.09,0,0,0,.9-.19l1.12-.18a4.94,4.94,0,0,0,1.17-.28l1-.16.58-.1q.81-.12.81,1.17l0,.57a8.54,8.54,0,0,1-.18,1.42,3.89,3.89,0,0,0-.15.75,1.5,1.5,0,0,1-.07.36q-1.17,6.31-2.6,11.89l-3.14,15.23c0,.1-.15.29-.45.59l-.14,0h-.22a1.39,1.39,0,0,0-.58.23,1.4,1.4,0,0,1-.54.23,5.38,5.38,0,0,1-1.21.05,11.54,11.54,0,0,0-1.21.1q-5.57,1.13-16.33,2.85Z"/><path class="cls-1" d="M142.25,104.24l-.93,0a13.46,13.46,0,0,1-2.2-.15,1.53,1.53,0,0,1-.84-.15.54.54,0,0,1-.41-.27l-.88-5v-.21a1.36,1.36,0,0,1,.06-.45.43.43,0,0,1,.26-.23,13,13,0,0,0,5.14.22c.53-.08,1-.14,1.24-.16a5,5,0,0,0,2.21-.76,1,1,0,0,0,.36-.77,1.39,1.39,0,0,0-.4-1,2.91,2.91,0,0,0-1.17-.58l-1.28-.29a5.85,5.85,0,0,1-1.28-.25.07.07,0,0,0,0-.06A.15.15,0,0,1,142,94a2.34,2.34,0,0,1-.69-.31l-.24-.08c.06,0,.08,0,.08-.06s0,0-.12-.06-.23-.11-.46-.2a1.93,1.93,0,0,1-.58-.34c-.24-.1-.36-.25-.36-.44v-.21c-.67.11-1.24-.52-1.73-1.88a12.82,12.82,0,0,1-.6-3,8,8,0,0,1,3.21-6.46,20.1,20.1,0,0,1,7.18-3.43A71.61,71.61,0,0,1,155.08,76a3.78,3.78,0,0,0,.89.11.9.9,0,0,1,1,.35,2.15,2.15,0,0,1,.2.79c.08.44.16,1.71.24,3.83a.33.33,0,0,1,.08.24c0,.22-.29.45-.88.68s-1.06.29-1.25.32l-.92.27-2,.62a4.65,4.65,0,0,0-2.29,1.41,1.86,1.86,0,0,0-.4,1.1.89.89,0,0,0,.08.44.8.8,0,0,0,.4.31c.24.1.94.34,2.09.71a17.7,17.7,0,0,1,3.69,1.57,4.94,4.94,0,0,1,2.24,2.63,4.65,4.65,0,0,1,.36,2,6.58,6.58,0,0,1-.28,2,11.15,11.15,0,0,1-3.93,5.12,16.36,16.36,0,0,1-2.85,1.76,10.44,10.44,0,0,1-2.85.94l-5.89,1.06Z"/><path class="cls-1" d="M162.28,100.59a1.47,1.47,0,0,1-.84,0,.37.37,0,0,1-.28-.41c-.06-.57-.11-1.93-.17-4.09,0-.24,0-.87,0-1.88a11.86,11.86,0,0,0-.2-2.23l.24-.33,1.29-.5,2.36-.38a3.51,3.51,0,0,0,.73-.2,5.25,5.25,0,0,1,.68-.15l1-.15.28.08a.93.93,0,0,1,.36-.14.59.59,0,0,0,.26,0l.18-.05a3.49,3.49,0,0,1,.53,0h1.24l.12,0,.2,0a5,5,0,0,1,.92.26,1.21,1.21,0,0,1,.2.76,1.63,1.63,0,0,1,.22.67,9.47,9.47,0,0,1,.15,1.18c0,.64,0,1.44,0,2.41a10.15,10.15,0,0,1,.12,1.22,3,3,0,0,1,0,.59v.46a.88.88,0,0,0,0,.34,2.31,2.31,0,0,0,0,.49v0c0,.36-.27.59-.81.67a2,2,0,0,1-.5.1l-.38,0a7.54,7.54,0,0,0-.92.11l-.36.06-.56.09a5,5,0,0,1-.57.13l-.32,0-2.93.38c-.48.08-.82.15-1,.21l-.64.15A3.3,3.3,0,0,1,162.28,100.59Z"/><path class="cls-1" d="M63.78,155.31a5.09,5.09,0,0,1-.22-1.86c0-2.74,0-5.19-.1-7.33q-.14-4.62-.13-9.78V125.91a1.42,1.42,0,0,1,.39-.89,1.3,1.3,0,0,1,.8-.53l5.26-.79q1.45-.2,3.84-.57,3.43-.55,5.31-.9l1.69-.32c1.83-.35,3.34-.63,4.53-.82a17.15,17.15,0,0,1,5.49,0,8.35,8.35,0,0,1,5,2.47c1.44,1.45,2.15,3.59,2.15,6.43q0,7.2-3.52,11-3.1,3.53-9.28,4.52l-6.27,1c0,.72,0,1.5,0,2.32,0,.28,0,.62,0,1s0,.93,0,1.59a2.67,2.67,0,0,1-.64,2.09,3.47,3.47,0,0,1-1.88.73c-1.34.21-2.27.38-2.79.49-2.1.34-3.78.64-5,.9l-3.57.57C64.27,156.28,63.94,156,63.78,155.31ZM81.17,140.4c.64-.1,1.11-.81,1.42-2.12a21.88,21.88,0,0,0,.54-3.88c.07-.93.1-2,.1-3.09v-.53a16.32,16.32,0,0,0-.23-2.23,6,6,0,0,0-.41-1.29,2,2,0,0,0-.6-.73.9.9,0,0,0-.82-.3.65.65,0,0,0-.39.25,2.63,2.63,0,0,0-.3.53,13.85,13.85,0,0,0-.91,3.93c-.09.59-.17,1.45-.23,2.6q-.23,2.64-.23,7a.55.55,0,0,0,.23.11l.55,0Z"/><path class="cls-1" d="M96.78,150.07s.06-.48.16-1.44a3.86,3.86,0,0,1,.21-1.15,2.31,2.31,0,0,1,0-.49,2.19,2.19,0,0,0,0-.31q.92-4.68,2-9.26L102,125.93a.39.39,0,0,1,.12-.23,1.93,1.93,0,0,1,.24-.25l.28,0a2.11,2.11,0,0,0,.76-.25,7.45,7.45,0,0,1,.85-.18q1-.15,1.44-.18a9.42,9.42,0,0,0,1.48-.12l2.09-.37a3.46,3.46,0,0,1,.76-.21l1.77-.36,1.32-.22c.51-.08,1-.14,1.49-.19l1.12-.18a11.51,11.51,0,0,0,1.16-.15l1.53-.24a1,1,0,0,1,.24,0l.2,0a.74.74,0,0,0,.4,0l.36,0a.44.44,0,0,1,.28.37l2.85,10.51c.88,3.38,1.58,6.24,2.08,8.6a3.93,3.93,0,0,0,.13.77,7.66,7.66,0,0,1,.16,1.3,6.19,6.19,0,0,1-.08.81.8.8,0,0,1-.57.5l-.44.07a5.06,5.06,0,0,1-.8.09l-.88.14-.85.13-.68.11c-.18,0-.29,0-.32,0l-2.2.36,0-.08a.27.27,0,0,0-.24,0l-.13.1c0,.05,0,.09-.08.09l-.12,0-.28.05a2,2,0,0,0-.72,0c-.64.05-1.18.11-1.6.17a19,19,0,0,1-1-4,13.7,13.7,0,0,1-1.92.44l-1,.16-1,.16a9.58,9.58,0,0,0-.2,1.08c0,.14-.13.63-.32,1.46a8,8,0,0,1-.52,1.7l-.24.13-.28.12-.08,0c-.16,0-.27,0-.32,0l-.2-.05-1.53.33-1.12.18-.32.11-.16.05-3.21.51-.32.06c-.24.06-.74.15-1.49.27l-1,.16a5,5,0,0,1-.76.16l-.48.08Zm16.65-13s0-.08,0-.24l-.32-1.94c0-.38-.11-.73-.16-1s-.09-.6-.12-.87a8.58,8.58,0,0,1-.18-.91c0-.28-.09-.55-.14-.79s0-.37-.08-.63a1.81,1.81,0,0,0-.12-.54l-.08-.48a.49.49,0,0,0-.08-.28l0-.25-.08.27v.29a.85.85,0,0,1,0,.15,1.5,1.5,0,0,0-.08.37,4.67,4.67,0,0,0-.08.53c0,.21-.07.44-.12.7l-.28,1.75-.32,2-.13.94c0,.23-.1.6-.16,1.1-.24,1.29-.34,1.87-.32,1.76l1.77-.28a.68.68,0,0,1,.12-.13.3.3,0,0,1,.12-.08l.12,0a1.33,1.33,0,0,1,.34,0l.26,0a1.55,1.55,0,0,0,.48,0Z"/><path class="cls-1" d="M127,145.67s-.07-.49-.2-1.46a5,5,0,0,1-.13-1.1,5.75,5.75,0,0,0,0-.83c0-.8-.11-2.06-.22-3.79l-.13-1.56c-.17-2.41-.26-4.19-.27-5.36l0-10.1c0-.22.24-.42.72-.61a4.28,4.28,0,0,1,1.12-.31,8.09,8.09,0,0,1,1-.11,8.52,8.52,0,0,0,.85-.08,15.55,15.55,0,0,0,1.88-.23l.16-.15,1.76-.29a.34.34,0,0,0,.29.08l.16,0a.29.29,0,0,1,.2-.07.45.45,0,0,1,.24-.08.15.15,0,0,1,.12-.07.94.94,0,0,1,.28,0,.72.72,0,0,0,.24,0l3-.49.16,7.13a2,2,0,0,1-.06.28,5,5,0,0,0-.1.62c-.07,1-.11,1.81-.11,2.39l0,8.1-.11,1.6a10.84,10.84,0,0,0-.07,1.71,13.59,13.59,0,0,1-.05,1.41,2.13,2.13,0,0,1-.26.85,1.12,1.12,0,0,1-.76.42l0,0-.12,0s-.08,0-.08,0l-.2,0a1.31,1.31,0,0,0-.28.17,8.27,8.27,0,0,1-.92,0l-.56.05a.25.25,0,0,0-.24.2l-3,.5-.56.09-1,.38-1,.29-.93.23Z"/><path class="cls-1" d="M143.44,142.58l-.64.11-.6.09-.32.06-1.56-.21-.08-.24s-.05-.13-.05-.41,0-.65,0-.86l0-1.58c0-.32,0-.85,0-1.57s0-1.2,0-1.53v-1.25c-.16-1.72-.24-3.5-.24-5.36v-1a5.47,5.47,0,0,1,0-.72v-.62a1.78,1.78,0,0,1,0-.41v-1.79a5.29,5.29,0,0,1,0-.71v-.41l0-.22v-.54c0-.28,0-.66,0-1.13a9,9,0,0,0,0-1l0-.95,0-.16q-.12-.06,0-.12a1.76,1.76,0,0,1,1-1.12,4,4,0,0,1,1.32-.37c.46-.08,1.65-.31,3.57-.7,1-.21,1.57-.33,1.81-.37.4-.09.88-.19,1.44-.28a1.34,1.34,0,0,1,.56.06.69.69,0,0,1,.3.31l.22.33.81,1.08s.3.42,1,1.34,1.42,2.07,2.32,3.28l.49.67.6.86v-1.45c0-.4,0-1,0-1.67,0-.94,0-2,.08-3.17a3.82,3.82,0,0,1,0-.61,2.82,2.82,0,0,0,0-.44c0-.28,0-.42,0-.43a2.93,2.93,0,0,1,.56-.63,1.8,1.8,0,0,1,1-.45l2-.32.4-.06a7.8,7.8,0,0,1,1-.12l1.21-.19c.26,0,.66-.07,1.2-.16l.88-.14.4-.06a1.89,1.89,0,0,1,1.21.1.64.64,0,0,1,.32.38,3.06,3.06,0,0,1,.08.8c0,.36,0,.67,0,.92a9.78,9.78,0,0,0,0,1v.29a1.59,1.59,0,0,1,0,.37v1.08l0,4.79v5.81c0,3,0,4.9-.08,5.71l-.12,1.39c-.14.66-.32,1-.56,1.09l-.23.07a.75.75,0,0,1-.3.09,19.13,19.13,0,0,1-2.12.26l-2.09.33-2.08.34-.53.08a1,1,0,0,1-.32.09,2.43,2.43,0,0,1-1,0,1.27,1.27,0,0,1-.68-.35L152,135.35c-.14-.17-.39-.45-.76-.83l-.53-.42c-.13-.11-.24-.17-.32-.15a.32.32,0,0,0-.2.13.43.43,0,0,0-.08.2V135c0,.23,0,.57,0,1v1.21c0,.31,0,.73,0,1.25v1.62a.83.83,0,0,0,0,.26s0,.25-.12.68a.88.88,0,0,1-.12.23.61.61,0,0,1-.28.09.24.24,0,0,0-.14,0h-.1q-3.16.79-5.25,1.14Z"/><path class="cls-1" d="M179.27,136.85l-1.85.3-2.08.33-2.65.42a4.57,4.57,0,0,1-.48-2,35.4,35.4,0,0,1-.16-4l0-4.58c0-1.11,0-2.87,0-5.28l-.12-.11-4,.64c-.58.09-1-.54-1.16-1.89a23.93,23.93,0,0,1-.16-3.26v-.54a4.12,4.12,0,0,0,.08-.93v-.83l0-.34.16-.19.72-.07.81-.13c1.17-.19,2.07-.35,2.68-.47l2.61-.42.72-.12,1.37-.21,1.72-.28,1.73-.28c.34,0,.84-.09,1.48-.19l1-.16a1.43,1.43,0,0,1,.52-.17,2.68,2.68,0,0,1,.53-.17,6.33,6.33,0,0,1,1.16-.1,10.57,10.57,0,0,0,1.2-.11l1-.21,1.56-.25c.8-.12,1.35-.2,1.65-.22l.56,0a.31.31,0,0,0,.12.09s.08.06.08.09v7.06a1,1,0,0,1-.26.58,1.58,1.58,0,0,1-.5.46,16.44,16.44,0,0,0-3.45.26l-1.53.24c-.4.07-.67.64-.8,1.71a7.82,7.82,0,0,0-.08,1.34v1.25c0,.56,0,1,0,1.24v1.16a31.65,31.65,0,0,1-.16,3.19c-.06.73-.08,1.26-.08,1.59a8.5,8.5,0,0,0-.08,1.38c0,.83,0,1.53-.08,2.09,0,.87-.34,1.37-.93,1.52s-1,.29-1.12.31Z"/><path class="cls-1" d="M192.38,134.3a2.1,2.1,0,0,1-.4-.85,1.75,1.75,0,0,1-.2-.51,6.15,6.15,0,0,1-.52-2c-.11-1.25-.16-2.26-.16-3,0-.33,0-.79,0-1.37v-1c0-.83,0-1.48,0-1.94s0-1.48,0-2.95c0-3.93.08-7,.24-9.13,0-.34.45-.66,1.36-1l1.21-.19,1-.16c1.52-.25,2.66-.4,3.41-.47,1.12-.09,2.26-.23,3.41-.42a3,3,0,0,0,.6-.14l.6-.09.2.13a20.93,20.93,0,0,1,2.73-.81c.94-.2,2.07-.41,3.41-.63,0,0,.12,0,.2.1l1.29-.21a.46.46,0,0,1,.5.29,3.76,3.76,0,0,1,.3,1,7.88,7.88,0,0,1,.24,1.29,7.5,7.5,0,0,0,.28,1.32c0,.78-.14,1.19-.4,1.23,0,0-.07,0-.12-.1l-.16,0a.84.84,0,0,0-.44.11,1.28,1.28,0,0,1-.53.21.53.53,0,0,1-.4-.06,1,1,0,0,0-.36,0,3.15,3.15,0,0,0-.84.26c-.11,0-.31.12-.62.22a6.51,6.51,0,0,1-1.07.25c-1.15.19-2,.35-2.48.48a2.68,2.68,0,0,0-.84.39v-.09c-.11,0-.21.18-.29.47a7.74,7.74,0,0,0-.36,2c0,.25,0,.53,0,.83a.9.9,0,0,0,.14.6.53.53,0,0,0,.47.1.71.71,0,0,0,.4-.23.47.47,0,0,1,.2,0,.37.37,0,0,1,.2.09l3.41-.55a.27.27,0,0,1,.12-.14.33.33,0,0,1,.16-.07,1.12,1.12,0,0,1,.6,0,3.54,3.54,0,0,0,1,.1.53.53,0,0,1,.56.15.83.83,0,0,1,.2.51l.85,2.61c.08.43-.32.79-1.21,1.07a17.71,17.71,0,0,1-2.92.63l-1.73.28-1.2.19a4,4,0,0,0-.85.2.58.58,0,0,0-.36.37,1.25,1.25,0,0,0-.16.69v.16a.85.85,0,0,0,0,.29l0,.92c0,.2,0,.49,0,.88v1c1.21-.19,2.44-.43,3.69-.71s2.45-.52,3.65-.71c.08,0,.15,0,.2.16a.88.88,0,0,1,.08.42,1.48,1.48,0,0,1,.08.53,7.1,7.1,0,0,0,.25,1.12l.28,1.16V131l-.32.34-.29,0-.12,0a2.16,2.16,0,0,1-.56,0,.43.43,0,0,0-.28,0l-.24.16a2.27,2.27,0,0,0-.28.21v-.21l-.48.12-.6.1a.29.29,0,0,1-.24,0h-.32a5.82,5.82,0,0,0-2.09.63l-12.72,2C192.45,134.45,192.41,134.4,192.38,134.3Z"/><path class="cls-1" d="M230.33,127.22l-1.24-1.62q-.89-1.06-2.73-3.85l-.68-1-.08-.07-.2,0-.16.11c0,.36,0,1.34,0,2.92,0,1-.06,2.23-.16,3.64l0,1.25a2.2,2.2,0,0,1-.2.49l-.29,0-.12,0q-4.41,1.05-6.41,1.36l-.61.1-.76.12a3,3,0,0,1-.64.06l-.28.05-1.24-.22-.08-.28c-.06,0-.09,0-.1-.15a1.25,1.25,0,0,1,0-.24c-.08-1.16-.15-2-.2-2.51-.11-1.48-.18-2.56-.21-3.25s-.08-1.08-.08-1.27l-.2-2.26,0-1.24c0-.24,0-.58,0-1V118a2,2,0,0,0,.08-.68v-.71a1.48,1.48,0,0,0,0-.38l0-.32v-.42a.89.89,0,0,0-.08-.44v-.25l0-1a6.44,6.44,0,0,0,0-.88c.06-.84.08-1.63.08-2.38v-.41a2.61,2.61,0,0,1,0-.54v-1a.31.31,0,0,1-.12-.23c0-.39.34-.72,1-1A5.68,5.68,0,0,1,216,107a109.42,109.42,0,0,1,14-1.58q4.58-.07,6.42,1.26a3.65,3.65,0,0,1,1.14,1.66,7.65,7.65,0,0,1,.34,2.46,6.89,6.89,0,0,1-1.28,4.11,9.55,9.55,0,0,1-2,1.77,15.66,15.66,0,0,0,1.41,2.27,6.37,6.37,0,0,1,.46.55,7,7,0,0,0,.54.62c.51.64,1.1,1.33,1.77,2.09a3.16,3.16,0,0,0,.32.65c.13,0,.2.09.22.15a.56.56,0,0,1-.06.28,8.8,8.8,0,0,1-1.89,1.76,4.37,4.37,0,0,1-.48.49,15.52,15.52,0,0,1-2.21,1.73,16.9,16.9,0,0,1-2.2,1.35c-.24.17-.39.22-.44.15Zm-4.13-12.38a5.8,5.8,0,0,0,1.2-.69,7.74,7.74,0,0,0,1-1,2.43,2.43,0,0,0-.24-3.08,2,2,0,0,0-1.49-.26l-1.72.28c0,.36,0,.93-.08,1.71l0,.88c-.06.57-.08,1.43-.08,2.59A7.1,7.1,0,0,0,226.2,114.84Z"/><path class="cls-1" d="M3.69,119.26c3.67.43,8.61-2.27,10.75,4.18,1.75,5.27-6.52,13.73-8.59,21.34-1.88,6.91-.44,16.06,5.64,15.16l16.12-2.38c2.87-.43,3.37-2.23,2.55-6.82-1.12-6.2-2.29-20,7.05-21.41L49,127.59c4.49-.67,4.72-5.74,3.85-9.21a4.14,4.14,0,0,1,3.25-5.06l5.86-.86,1.76-3.74,18.7-3,1.94-4.13L3.71,113.74C.94,114.15.56,118.9,3.69,119.26Zm35.83-3.65,5.82-.86c5.48-.81,9.26,10.14.66,11.41l-8,1.18C31.2,128.35,34.19,116.4,39.52,115.61Zm-20.58.48L26.6,115l2.19-.35a5.11,5.11,0,0,1,3.07.13,3.18,3.18,0,0,1,1.25,4.4c-.81,1.83-1.61,3.85-2.37,6a2.53,2.53,0,0,1-.3,4.93,2.43,2.43,0,0,1-1.26-.14c-1.77,6-2.88,12.35-2.35,17.49.67,6.34-.26,7.31-3.8,7.83l-9.28,1.38c-5.32.78-6.8-9.15-2.28-16.48,6.18-10,7.06-14.56,5.23-17.87C14.39,118.09,16.25,116.49,18.94,116.09Zm-1.39,5.67c-.86-1.55-1.12-2.76-.76-3.5a3,3,0,0,1,2.29-1.19l7.66-1.13,1.2-.19,1-.16a5.11,5.11,0,0,1,2.43,0c.44.26,1.78,1.05.86,3.13s-1.74,4.16-2.49,6.3h0a2.53,2.53,0,0,0-2.11,2.87,2.61,2.61,0,0,0,.72,1.43c-.36,1.22-.69,2.42-1,3.6a43.4,43.4,0,0,0-1.48,14.55c.31,3,.25,4.66-.21,5.53-.36.66-1.06,1-2.76,1.23l-9.28,1.37a2.62,2.62,0,0,1-2.71-1.35c-1.72-2.67-1.68-8.64,1.4-13.63C18.33,130.85,19.76,125.73,17.55,121.76Zm18.21-.8a5.24,5.24,0,0,1,4.51-4.51l1.52-.23c-1.33,2.78-1.35,7,1.4,8.75-2,.48-4.18-1.63-4.55-3A4.2,4.2,0,0,1,35.76,121Zm-35.7-21c.83-2.17,6-2.21,7.94.6l-1.28,6.26a6.74,6.74,0,0,0-3-4.65C2.05,101-.4,101.12.06,99.91Zm89.28-3-2.8.41.33,2.23-58.09,8.81,2.87-12.22-1.89.28-2.87,12.22-2.51.37,2.87-12.22-1.89.28-2.87,12.22-2.51.37,2.87-12.22L21,97.7l-2.87,12.22-2.5.37,2.87-12.22-1.9.28-2.87,12.22-6.76,1L10.52,95l26.85-4,1.9,1.84,34.51-5.33,1.24-3,9.47-1.4.63,4.31L87.91,87Z"/><path class="cls-1" d="M218.79,32.09c-.76,1.27-1.58,2.7-2.44,4.28a4.26,4.26,0,0,1-2,7,3.22,3.22,0,0,1-1.64,0c-4.34,8.54-9.55,19.59-15.37,32a10,10,0,0,1,1.4,1c10.5-19.24,18.35-33.9,22.4-42.06C220.38,33.46,219.59,32.76,218.79,32.09Z"/><path class="cls-1" d="M187,76.87a7.72,7.72,0,0,1,6.7-2.71C200.05,60.59,205.52,49,210,40.2L210,40c-.48-2.19.4-4.41,2.56-4.9l.2,0q1.61-3,3-5.3c-13.07-9.14-29.94-10.66-37.82.14-9.19,12.58-5.35,31.92-.58,42C180.46,78.56,184,80.55,187,76.87Zm15.37-47.21c2.17-.48,4.36.49,4.84,2.68s-.92,4.86-3.08,5.34-5.08-1.23-5.56-3.41S200.17,30.14,202.33,29.66Zm-5.94,37.93a4.44,4.44,0,0,1-6.92,2.23c-2.54-2-3.58-8.78-.41-10.44C192.93,57.35,197.39,64.24,196.39,67.59Zm-6.55-41a5.15,5.15,0,0,1,5.54,3.52,5.09,5.09,0,0,1-3.58,5.45,4.79,4.79,0,0,1-5.26-3.47C186.06,29.94,187.68,27.12,189.84,26.63Z"/><path class="cls-1" d="M226.09,39.84c-.68-.93-1.41-1.83-2.15-2.7-1,2-2.15,4.23-3.54,6.89a3.63,3.63,0,0,1,4.28,3,3.55,3.55,0,0,1-2.82,4.47,3.78,3.78,0,0,1-4.39-1.94c-4,7.53-9.29,17.34-16.17,29.94a13.65,13.65,0,0,1,1.18,3.51c2,10.52,10.45,13.28,22.86,7.61C239.53,84.17,239.33,58,226.09,39.84ZM224.7,53.72c2.17-.48,4.65,1.39,5.12,3.57a4.11,4.11,0,0,1-3.3,4.72,3.9,3.9,0,0,1-4.78-2.91C221.26,56.91,222.54,54.21,224.7,53.72Zm.55,30.73a3.91,3.91,0,0,1-4.77-3c-.47-2.19.81-4.72,3-5.2s3.94,1.36,4.41,3.55S227.41,84,225.25,84.45ZM228.91,74c-2.17.48-3.6-.88-4.08-3.07s.06-4.91,2.22-5.39,3.83,1.74,4.31,3.93S231.07,73.47,228.91,74Z"/><path class="cls-1" d="M221.45,25.05q-.28.28-.6.66a3.6,3.6,0,0,0,1.88,2,5.72,5.72,0,0,0,3.12.69c.08-.24.14-.45.18-.61C226.36,26.42,223.37,23.09,221.45,25.05Z"/><path class="cls-1" d="M221,31.17a7.7,7.7,0,0,1-2.6-2.1c-6.9,10.68-18.47,36.51-33.51,68-1.6,3.35,2.33,4.12,3.49,2,20.28-36.93,31.66-58.06,35.83-66.91A10.26,10.26,0,0,1,221,31.17Z"/><path class="cls-1" d="M223.19,18.25a2.93,2.93,0,0,0,2.13-.22,5.7,5.7,0,0,1,4.16-.3,5,5,0,0,1,3.11,2.62l.2.34c.63,0,1.05-.16,1.43-1.43a8.7,8.7,0,0,0,.22-.88c-2.71-1.76-10.63-3.74-12.11-4.1a2.78,2.78,0,0,0-.16.4h0a3.63,3.63,0,0,0-.06,2.83A1.61,1.61,0,0,0,223.19,18.25Z"/><path class="cls-1" d="M232.82,24.53a6.5,6.5,0,0,1-.66,0,3.72,3.72,0,0,1-2.84-2.17c-.39-.66-.51-.79-.8-.87a2.06,2.06,0,0,0-1.73.13,6.54,6.54,0,0,1-4.31.45,5.42,5.42,0,0,1-3.2-1.93c-1.09,3.61-1,7.51,2.6,9.35C227,32,231,28.78,233.37,24.5Z"/><path class="cls-1" d="M220.36,14.07c-1.29,3.94.71,5.73,2.48,6.07,3.35.64,3.17-1.34,6.16-.55,2.07.55,1.85,2.84,3.36,3,1.83.19,3-.64,3.69-2.77,1-3.5.07-5.37.35-6.68a2.42,2.42,0,0,1,3.6-1.82,2.91,2.91,0,0,0-2.58-2.58A6.69,6.69,0,0,0,237.49,0c.93,5-2.7,7.07-9.34,8.69C224.75,9.53,221.28,11.26,220.36,14.07Z"/></svg>