<svg enable-background="new 0 0 120 24" viewBox="0 0 120 24" xmlns="http://www.w3.org/2000/svg"><g fill="#fff"><path d="m4 13c.6 0 1-.4 1-1s-.4-1-1-1-1 .4-1 1 .4 1 1 1zm0 4c.6 0 1-.4 1-1s-.4-1-1-1-1 .4-1 1 .4 1 1 1zm0-8c.6 0 1-.4 1-1s-.4-1-1-1-1 .4-1 1 .4 1 1 1zm4 4h12c.6 0 1-.4 1-1s-.4-1-1-1h-12c-.6 0-1 .4-1 1s.4 1 1 1zm0 4h12c.6 0 1-.4 1-1s-.4-1-1-1h-12c-.6 0-1 .4-1 1s.4 1 1 1zm-1-9c0 .6.4 1 1 1h12c.6 0 1-.4 1-1s-.4-1-1-1h-12c-.6 0-1 .4-1 1zm-3 5c.6 0 1-.4 1-1s-.4-1-1-1-1 .4-1 1 .4 1 1 1zm0 4c.6 0 1-.4 1-1s-.4-1-1-1-1 .4-1 1 .4 1 1 1zm0-8c.6 0 1-.4 1-1s-.4-1-1-1-1 .4-1 1 .4 1 1 1zm4 4h12c.6 0 1-.4 1-1s-.4-1-1-1h-12c-.6 0-1 .4-1 1s.4 1 1 1zm0 4h12c.6 0 1-.4 1-1s-.4-1-1-1h-12c-.6 0-1 .4-1 1s.4 1 1 1zm-1-9c0 .6.4 1 1 1h12c.6 0 1-.4 1-1s-.4-1-1-1h-12c-.6 0-1 .4-1 1z"/><path d="m36 6v1.8c0 .3.2.5.5.5.1 0 .3-.1.4-.2l2.8-2.8c.2-.2.2-.5 0-.7l-2.8-2.8c-.2-.2-.5-.2-.7 0-.1.2-.2.3-.2.4v1.8c-4.4 0-8 3.6-8 8 0 1 .2 2 .6 3 .2.5.8.8 1.3.6.1-.1.2-.1.3-.2.3-.3.3-.6.2-1-.3-.8-.4-1.6-.4-2.4 0-3.3 2.7-6 6-6zm5.8 2.7c-.3.3-.3.6-.2 1 1.3 3.1-.2 6.6-3.3 7.8-.7.3-1.5.5-2.3.5v-1.8c0-.3-.2-.5-.5-.5-.1 0-.3.1-.4.2l-2.8 2.8c-.2.2-.2.5 0 .7l2.8 2.8c.2.2.5.2.7 0 .1-.1.1-.2.1-.3v-1.9c4.4 0 8-3.6 8-8 0-1-.2-2-.6-2.9-.2-.5-.8-.8-1.3-.6 0 0-.1.1-.2.2z"/><path d="m61.3 20.1c-.8.7-1.9.7-2.7 0l-.1-.1c-5.2-4.8-8.7-7.9-8.5-11.8.1-1.6.9-3.2 2.3-4.2 2.5-1.6 5.8-1.2 7.7 1.1 1.9-2.3 5.2-2.7 7.7-1.1 1.4 1 2.3 2.6 2.3 4.3.1 3.9-3.3 7-8.5 11.8z"/><path d="m84 2c-5.5 0-10 4.5-10 10s4.5 10 10 10 10-4.5 10-10-4.5-10-10-10zm0 15c-.6 0-1-.4-1-1v-4c0-.6.4-1 1-1s1 .4 1 1v4c0 .6-.4 1-1 1zm1-8h-2v-2h2z"/><path d="m102 19c0 1.1.9 2 2 2h8c1.1 0 2-.9 2-2v-12h-12zm13-15h-3.5l-1-1h-5l-1 1h-3.5v2h14z"/></g></svg>