<svg viewBox="0 0 480 120" xmlns="http://www.w3.org/2000/svg"><g fill="#b20"><path d="m430.29 3.56c-2.19-.39-4.42-.76-6.55-1.2-1.1-.23-2.22-.89-2.86.05-.22.33.64.77 1 1.15 2.8.44 5.6 1.31 8.41 0z"/><path d="m334.35 1.64c-1.44-1.73-4.43-2-8.42-1.28-.74 1.47 1.13 1.75 8.42 1.28z"/><path d="m356.7.43c-1.45-.9-3.31 0-5 .1-1.27 0-2.59-.1-3.88-.17.51 1.52 3.67 1.7 6.73 1.93.26-.71 3.45-1.07 2.15-1.86z"/><path d="m253.22 1.39c.14-.41-.38-.83-1.72-.69-.51.05-.78.43-1.3.75a5.81 5.81 0 0 0 1.68.49 2 2 0 0 0 1.34-.55z"/><path d="m4 33c.34 1.3-1.19 2.68 1.22 3.88 2.94 1.43 2 3 .94 4.53-.17 1.31-.64 2.63 1.11 3.86-1.87 3.06 3.46 6.08.29 9.14-.85-.62.77-1.53-1.7-2-.09.44-.17.83-.25 1.24s0 .85-.07 1.28a1.69 1.69 0 0 0 2.1-.19c3.62 3.15-10 6.76-5.84 9.86a19.45 19.45 0 0 0 6.89 0c-2.3-.09-4.61-.59-6.89 0 2.44 2.09 5.65 4.19 6.08 6.28-3.31 5.3-1.15 10.7-1.35 16.12l1.59 4.39c-.18 1.17.15 2.44-2.06 3.36-5.06 2.07-5.81 4.17-.48 6.37 1.16-.32 0-2.52 3.82-.69a24.18 24.18 0 0 0 6.92 1.32c-.64.59-2.06.62-3.41.72-1.41-.12-3.4-1-4-.23-.86 1.06.89 2 4.3 2l1.66.59c-.05 1.33-7-.89-5.56 1.76 1.09 2-.57 7.29 3.89 7l3.26.61a2.67 2.67 0 0 0 -.53.24c-.09.08 0 .28 0 .28 7.86.33 30.13 3 38.63.93a204.81 204.81 0 0 1 22.15-.45c5.53 1 12.44.17 18.64-.18 1.12 1 2.56 1.49 4.91.42.79-.56 2.3-.4 3.55-.49 6.85 3.08 15.65.77 23.45 1.23l11.87.15c1.84 1.22 5 1.55 8.28 1.86 10.59 1 21.33-2.3 32.06-2.35 1.86 0 3.84-.12 5.07.63a3.56 3.56 0 0 1 -.45.92c-.59.68-2.22 1.62.1 1.92 2.79.36 3.43-.71 3.64-1.58a5.33 5.33 0 0 0 .06-1.26c2.28 1 4.58 2.62 6.75 0a27.64 27.64 0 0 1 6.76-.6c2.52.48 1.21-.41 1.66-.68a30.59 30.59 0 0 1 6.71.2l8.51-.08c1.63.49 3 1.21 5.5.84.11 0-.33-.56-.52-.86 3.41-.21 7.08.37 10.27-.5a9.32 9.32 0 0 1 1.55-.9c-.53.29-1.05.59-1.56.89 3-.71 6.68.66 9.6-.42 4.69 1.45 10 .84 15.21.7 4.85 2.33 10.11 1 15.3.24l1.71-.06c.07.42.15.83.22 1.24a72 72 0 0 1 23-.71c2.24.3 6 0 4.07-1.71a4.21 4.21 0 0 0 -.76-.26h.14l.62.27c3.2-.07 5.45.78 8.09 1.24 1.64-.49-.18-1.48 1.91-1.9h4.61c.61.56-1.91 1.63 1.48 1.72 5 .15 3.36-1.46 4-2.45l4.68.69c.41 1.12 1.72 1.47 5 1.36 6.21-.23 12.49-.14 18.74-.18h3.37a10.62 10.62 0 0 0 5.76.72c1.34-.2-.44-.88-.66-1.35 3.81-.49 8.08.08 11.75-.74a7.33 7.33 0 0 1 3.39-.55 48 48 0 0 0 21.79-1 24.5 24.5 0 0 1 8.22-1.11c3.28.07 8.57.83 8.64-1.73a24.92 24.92 0 0 1 -5.18-.38c1.61.35 3.09 1 5.18.38 1.21-.76 3.2-.62 5.06-.65v-1.92l5.05.64c-1-1 4.51-2.39-2.71-3.05 3.68-.18 6.29-.39 7.79.32 3.09 1.46 5.37 1.38 8.94.11 2.19-.79 6-1.21 5.43-2.51s-4.66-.6-7-.94a5.53 5.53 0 0 1 -1.87-.77 37.66 37.66 0 0 1 8.52-.3 1.89 1.89 0 0 1 1.11 0c9.68 3.44 15.1-.85 23.8-1.59-3.6-.83-7.75 0-8.64-1.58 2.35-.13 5.06.3 7.34-.43-2.25-1.11-4.87-.83-7.23-.92l-3.27-1c1.11-.38 3.52-.74 2.4-1.28-.81-.38-3.5-.19-5.35-.26.53-1 9.71 0 4.22-2.5a2.43 2.43 0 0 0 .42-.58 9.14 9.14 0 0 0 1.42-.13c5.07.28 2.35-1.19 3-1.91l.56.1a.53.53 0 0 1 0-.6c1.83-.15 4-.09 2.61-1.29-2.27-2-6.38-1.8-10.73-1.43-2.26-3.17 4.92-1.84 8-2.45 4.28-.15 5.37-1.48 5.16-2.64-.14-.77-1.37-2.12-5.27-1.71l-3.25-.16c-1.83-1-4.7-.5-7.06-.74a5.6 5.6 0 0 0 .57-.49c7.43.69 9-1.89 12.71-3.29.4-.6 3.26-.77 2-1.65l-4.83-.89-3.83-.94 5.12-.85c.69-.62 2.44-1.38-1.26-1.44 6.15-2.46-2.65-3.46-4.37-3.81-7.75-1.58-8.5-1.69-3-4.36 3.78-1.85.15-1.79-2.89-2l-1.92-.13c.4-.55-.09-1-1.21-1.33 4-1.54 7.75.1 11.63.1l7.56-1.9c-1.46-1.15-4.53-1.55-5.87-2.65-1.08-.88-5.17-.79-6.64-1.83l3.8-.11 4.58.18c2.51.12 2.14 3.44 5.91 1.17 3.08-1.85 5.1-4.08 9.52-5.81-4.34-.81-7.28 1.67-8.86.29-1.35-1.18-7-2.17-3.82-4.17.82 0 .85-.14.62-.3 3.16-.78 4.64-2.16 8.19-2.86 2.33-.47 2.71-1.45.83-2.14s-3.35 0-4.56.64a9.48 9.48 0 0 1 -6.52.6c-2.51-.69-.26-1.51.38-2.26-.61-1.67-4.54-.81-6.72-1.29-.41-.85.88-1.8-1.28-2.74-.22 1.07-.42 2-.6 2.89-1.69-1.65-1.76-3.07 1.54-4.63 2.07-1 4.48-2.38.29-4-5.05-1.88-.15-4.41-1.32-6.63l2.93-.25a13.59 13.59 0 0 0 6 .29c-.7-.89-2.28-1.36-4.6-1.5-1.33-.24-3.7-.13-3.55-.91s2.5-.41 3.8-.62c2.7 0 5.67.52 8.49-.72l-7-1a5.1 5.1 0 0 1 -1.42-.18c-4.39.1-6.51-.91-6.76-2.36s-2.09-1.49-4.7-1.54c-5.59-.45-9.19-2.58-15.27-2.63a45 45 0 0 0 -10.29-1.1l-5.06-.68-1.68-.65c-4.05.09-5.1-1.6-8.3-2-1.19-.14 1.65-1.29-1.64-1.06-1.43.11-3 .45-2.41 1 2.69 2.5-3.12 1-4.65 1.49h-.77l-.72-.01c-15.17-.15-30.36 0-45.48-.59l-97.6.03c-.24.2.1.37.17.55h-.17a4.86 4.86 0 0 0 0-.54l-85.32-.16c-3.89-.86-8.28-.09-12.29-.54l-24.87-.1a48.2 48.2 0 0 0 -7.44-.21c-.44 0-.49.2-.94.23-18.1-.51-36.2-.84-54.29 0h-3.36l-5 .07c-12.32-.48-39.43 1-51.75.65-.2.59-.41 1.18-.63 1.78l-4.4.92 1 1.59c-.39.48-.79 1-1.19 1.43-.58 1.72-1.15 3.44-1.73 5.15a1.21 1.21 0 0 0 -.52.51c-1.83.28 8.36.56 6.53.83-9.8 1.68-11.18 3.67-4.45 6.37.14.38.28.76.41 1.14.56.48-4.9.95-4.35 1.43-.11 1.07-.21 2.15-.33 3.22h-1.47m415.21 73.88h1.13-.07a4.72 4.72 0 0 1 -1.06-.01zm-265 .5h.2a4.06 4.06 0 0 0 1.63 0s.05 0 0 .06h-1.66c-.17 0-.35 0-.52 0 .12-.04.24-.03.34-.07zm3.26-1.9a1.94 1.94 0 0 1 .24 0c-.53 0-.21.14-.53.19a.9.9 0 0 1 .29-.19zm-85.61-24.38a.1.1 0 0 1 0 0zm0-7.91a8.89 8.89 0 0 1 2 .12c.8.3 1.91.27 2.78.5-1.48-.23-3-.42-4.56-.59zm90.81-37.07s.09 0 .12.08c-.06 0-.07 0-.12 0s-.02-.06-.01-.08zm-87.96 34.07c-.08.04.05.01 0 0zm30.68 17.37s-.09-.06 0-.1l.22.07c-.14 0-.14.03-.22.03zm130.37-12.7c.31.33.58.29.88.5-.12 0-.28 0-.4.09-.06-.25-.54-.27-.48-.59zm61.71-11.71h.25-.21a23.34 23.34 0 0 1 -3.74-1c.94.44 1.26 1.26 3.7 1zm-127.53 7.88c.35.11.55.12.77 0 .52-.38.42.53.73.66a23.93 23.93 0 0 0 -3.68-.66c.65 0 1.22-.09 1.86-.1a3.09 3.09 0 0 0 .32.1zm-29.1-7.9h.06-.18a.32.32 0 0 0 .12 0zm18.63 5.15c-.13-.07-.31 0-.43-.08h.48l-.05.06zm-7.84 1.63c0 .08-.29.12-.34.2-.11-.07-.66-.17-.84-.24.38-.01.68.06 1.13.04zm22.51-6.91a4.08 4.08 0 0 0 .42.17h-.07zm-10.35-4.7h.32zm-14.52-6.18c-.21 0-.27-.06-.47-.06.09 0 .21-.12.3-.14s.21.12.17.2zm152.2 29.73s-.14-.08-.18-.13a2.78 2.78 0 0 0 .45 0c-.07.07-.19.23-.27.13zm8.42-5.09a31.29 31.29 0 0 1 8.31-.6 18.77 18.77 0 0 1 -3.8.87c-1.48-.12-3.03-.55-4.48-.27zm-79.19 4.55a12.53 12.53 0 0 1 6 .07 16.92 16.92 0 0 0 -5.97-.07zm22.77-6.11c.09-.07.22-.09.31-.15s.15.17.3.24c-.2 0-.36-.11-.61-.09zm-13.29 17.48h.17l-.25.07-.39.27a4.84 4.84 0 0 0 .47-.34zm43.92-27.42c-.14.08 0 .14-.21.23 0-.12 0-.2 0-.31.12-.02.04.04.21.05zm11.37 3.13c1.42-.36 4.58.15 7.79.81a83 83 0 0 0 -13.88-.52 17.36 17.36 0 0 0 6.09-.29zm-14.7 14.67c-.17.14-.24.29-.12.45 0-.15 0-.31 0-.46zm-72.64-.49c-.44 0-.92 0-1.35.09.4-.06.91-.07 1.34-.09zm154.23-11.68c.45 0 .84-.18 1.27-.26-.24.22-.06.48-.6.66-.19-.17-.47-.24-.67-.4zm8.42 17.61a8.68 8.68 0 0 0 .83.45c-.58-.08-.57-.23-1-.33.08-.03.09-.08.17-.12zm.06 3.83c-.59-.1-.75 0-1.25-.1 0 0 .14-.1.18-.15zm-93.3-32.47a6 6 0 0 0 0-.85c.51.08.85.2 1.36.26a10.29 10.29 0 0 0 -1.36.59zm3 8.29c.07 0 0 .09.1.13-.38 0-.68-.1-1.06-.13.36-.03.5.04.89 0zm-55.43 32.23h.06zm130.24-18.84c1.85.17 3.32.75 5.33.75a27.06 27.06 0 0 0 -5.33-.75zm-70.82-26.86a12.63 12.63 0 0 0 2.56-.3 6.17 6.17 0 0 1 2.3 0h.14c-1.71.02-3.31.3-5 .3zm-185.45 28a5.25 5.25 0 0 1 -1.61 0 8.71 8.71 0 0 0 1.61 0zm-10.32 3c0 .14-.42.21-.68.31 0-.1.2-.17.12-.29a5.43 5.43 0 0 0 .56-.09zm15.76 2c-3.44 0-6.56.33-8.38 1.6 2.18-.94 5.84-.82 8.38-1.6zm217.55 17c0-.06.18.11.25.08h-.48c.07-.08.17.03.23-.08zm-249.32-42.87c.06 0 0 0 0 .06s.26.14.44.18c-.52 0-.64-.21-1.32-.07 0 0 0 0 0-.06l.15-.12c.29-.12.45.08.73.01zm14.45 21.58s0 0 0 0a.34.34 0 0 0 .1 0s-.05-.01-.1 0zm53.81-51.71c.23-.19 0-.23.12-.39a5 5 0 0 0 1.13.18zm-44.3 4.6a7.73 7.73 0 0 0 .84 0c.19.13.58.36-.05.2-.27-.08-.47-.19-.75-.25zm-18.15 45.71a12.55 12.55 0 0 0 -4-.53c1.63.03 3.35.03 4 .53zm318.83 16.15h.55l-.31.16c-.06-.05-.16-.07-.24-.16zm-17.92-55.16c-.17.2-.58.38-1.53.55-.24-.4-1.24-.44-1.75-.69.99.09 2.17.11 3.28.14zm-90.91-3.78a27.88 27.88 0 0 1 -4.11 0c1.36.03 2.76.07 4.11 0zm-46.68 15.6c-.14 0-.1-.1-.21-.13s.07 0 .08 0 0 .11.16.15zm-169.86 34h-.29c-1.81-.15-3.49-.54-5.78.11a17.05 17.05 0 0 1 -7-.22 42.68 42.68 0 0 0 13.07.11zm347.13-37.25a50.48 50.48 0 0 0 -5.09-.14 34.3 34.3 0 0 0 5.06.14zm-24.18-19 .8.25a9.44 9.44 0 0 0 -2.1.53c.44-.3.8-.57 1.27-.83zm-220.4-1.49c.21 0 .37-.07.59-.07l-.31.14a2.86 2.86 0 0 1 -.28-.07zm-66.88-3.91a3.25 3.25 0 0 0 1.52.8 44.86 44.86 0 0 0 -11.13-1.64h.34c2.96.46 5.64 1.37 9.27.84zm-51.08 43.85c2.09.28 4.57.19 6.14 1h-.2s0 0 0 0l-5.47-.84c-.15-.07-.34-.11-.47-.16zm-4.92 17.9a.55.55 0 0 0 -.15-.08h.16s0 .04-.01.08zm55.36 12-.38.33c-.18 0-.32-.07-.57-.1zm173.94 16h-.11c.07-.01.07-.03.11-.05zm36.59-1.82s.05.05.05.08h-.81c.24-.09.53-.09.76-.13zm111-28.49h.1c.48.89 0 1.58-1 2.16.44-.78 1.28-1.55.87-2.21zm13.59-53.65a.83.83 0 0 1 .12.08s0 0 0 0a1 1 0 0 0 -.15-.13zm-257.57-8.21c-.11 0-.27-.06-.39-.1h.44c.03.05-.06.05-.05.1zm-94.86-7.43a6 6 0 0 1 -.84 0c0-.09-.19-.12-.29-.25.41.1.67.21 1.13.25zm-40.71 26.31s-.1 0-.14 0-.08-.08-.1-.12c.13.04.1.11.24.12zm148.94 69.13c-.64 0-1.26.15-1.89.21.64-.06 1.22-.21 1.89-.21zm156.65 3.15h.07c-.06.25.52.38.78.57zm10.15-1.32a24.27 24.27 0 0 0 -2.86-.62h.05c.37.6 1.27.8 2.79.53.01.03.01.06.02.09zm8.4-.74h.17a1 1 0 0 0 -.17 0zm57.19-74.49v.07a13.22 13.22 0 0 1 -1.84-.28c.68-.04 1.1.31 1.84.21zm-343.44-24c-2.06 0-2.13-.24-1.79-.57a20.92 20.92 0 0 0 2.19.45c-.2.01-.17.12-.4.12zm-8.57-1.1c0-.11-.33-.17.11-.09h.36zm28.62 95.93c-.07 0-.09.13-.17.15a11.74 11.74 0 0 1 -2.37.19c-3.59-.42-7.3-.44-11-.55 4.5.11 8.87.45 13.54.21zm24-4.63h-.1.07s-.01-.02-.02 0zm234.49 9.65 3-.45a7.2 7.2 0 0 0 -3 .45zm76.72-98.11a13.94 13.94 0 0 0 -1.59-.59c.8 0 1.11.12 1.77.16a.46.46 0 0 0 -.18.43zm-33.45-4.56a17.49 17.49 0 0 0 -2.1-.78c1.36-.2 2.54-.33 2.26.24.3.18.04.36-.16.54zm-27.05 8.08c.24.28 1 .3 1.05.71-1.2-.57-2.32-.33-3.48-.55a20.68 20.68 0 0 0 2.43-.16zm-30.79 1.41s.08 0 .08 0h.09zm-337.2 77.84a2.63 2.63 0 0 0 -.49 0c0-.06 0-.12 0-.19zm110.04 10.83c.15 0 .41.07.59 0-.64 0-1.26 0-1.87.06.41-.06.87.04 1.28-.06zm.3 10s.21 0 .26-.07a0 0 0 0 0 0 0 2.36 2.36 0 0 1 -.26.07zm290-9.08a14.73 14.73 0 0 0 -2.16.23c.46-.07.76-.18 1.28-.22.32-.03.59-.06.89-.05zm28.11-22.06s0 0 0 0a10.63 10.63 0 0 1 1.7.13 16 16 0 0 0 -1.69-.17zm-172.79-70.65a5 5 0 0 1 -5.12-.18c2 .07 4 .14 6.08.12-.31.1-.69-.08-.96.06zm-260.29 11.53h-.08a.14.14 0 0 0 .07 0zm163.78 89.82s0 0 0 0zm65.52-1.26h.17s0 .06 0 .09zm18.57 1.24h.05s-.02-.01-.05 0zm136.47-4.86c-.05 0-.05.07-.1.11zm33.19-6.68.24-.13.14.1zm24.25-49.4s0-.05 0-.08c1.17.15 2.11.09 2.55-.42a6.41 6.41 0 0 1 -2.55.5zm-34.88-48.88c-.27 0-.55 0-.82 0-.21-.18-.63-.08-.89-.19a13.2 13.2 0 0 1 1.71.19zm-245.49-1.06-1-.09c.1-.06.3 0 .41 0s.42.02.59.09zm-160.66 10.12c.09.05.27 0 .37.09-.17 0-.3-.06-.47-.07z"/><path d="m429.22 106.72-5.67.15c2.21 1.86 3.86.36 5.67-.15z"/><path d="m412.12 111.37c-.71 1 1 1.51 3 1.92a6.31 6.31 0 0 1 3.37-.64c.6-.74 3.05-1.68.49-2.16-2.05-.4-3.53 1.6-6.86.88z"/></g></svg>