<svg viewBox="0 0 480 120" xmlns="http://www.w3.org/2000/svg" xmlns:xlink="http://www.w3.org/1999/xlink"><symbol id="a" viewBox="0 0 480 120"><path d="m0 0v40.12h40.26v19.48l7.3-4.18 2.44 1.38v-26.41h39.37v30.61h16.84v-23.66h33.69v27.21h21.67v-34.16l50.43-13.91v46.57h31.31v-11.75h4.61v-9h7.55v-11.51h32.32v6.55h45.87v20.44h16.18v-13.5h45.45v41.13h14.31c.28-1.6.55-3.22.82-4.88h-3.26v-8.37h4.55c.73-5 1.41-10 2-15h-1.19v-11.09h2.56v-34.18h3.13v34.18h2.56v11.06h-1.17c.61 5 1.29 10.06 2 15h4.55v8.37h-3.26c.74 4.6 1.52 9 2.32 13h9.31v-67.43h45.48v-26.07z" fill="#b20" opacity=".6"/><g opacity=".2"><path d="m212 16.48-50.43 13.91v34.16h31.84v47.89h23.85v-33.33h26.05v-16.06h-31.31z" fill="#b20"/><path d="m287.79 42.26h7.55v9.04h4.61v59.75h19.53v-53.27h14.18v-20.44h-45.87z" fill="#b20"/><path d="m349.83 57.78h36.51v27.63h8.95v-41.13h-45.46z" fill="#b20"/><path d="m434.54 26.07v67.47h15.88v-36.68h29.58v-30.79z" fill="#b20"/><path d="m419.6 57.13h1.19v-11.06h-2.56v-34.18h-3.13v34.18h-2.56v11.06h1.19c-.61 5-1.29 10.06-2 15h-4.55v8.37h3.26c-.27 1.66-.54 3.28-.82 4.88h5.38v8.13h10.27c-.8-4-1.58-8.41-2.32-13h3.26v-8.35h-4.55c-.77-4.97-1.45-10.05-2.06-15.03z" fill="#b20"/><path d="m106.22 60.97h-16.85v-30.58h-39.41v26.41l21.85 12.53v13.3h28.19v16.69h34.54v-34.77h5.36v-27.21h-33.68z" fill="#b20"/><path d="m40.26 40.13h-40.26v16.73h12.91v38.89h10.39v-26.42l16.96-9.73z" fill="#b20"/><path d="m282.94 63.88h5.32v51.99h-5.32z" fill="#b20"/><path d="m269.47 63.88h5.32v51.99h-5.32z" fill="#b20"/><path d="m256 63.88h5.32v51.99h-5.32z" fill="#b20"/><path d="m29.68 77.44h6.56v7.58h-6.56z" fill="#b20"/><path d="m39.29 77.44h6.56v7.58h-6.56z" fill="#b20"/><path d="m58.5 77.44h6.56v7.58h-6.56z" fill="#b20"/><path d="m39.29 89.1h6.56v7.58h-6.56z" fill="#b20"/><path d="m48.89 89.1h6.56v7.58h-6.56z" fill="#b20"/><path d="m58.5 89.1h6.56v7.58h-6.56z" fill="#b20"/><path d="m29.68 100.76h6.56v7.58h-6.56z" fill="#b20"/><path d="m39.29 100.76h6.56v7.58h-6.56z" fill="#b20"/><path d="m48.89 100.76h6.56v7.58h-6.56z" fill="#b20"/><path d="m29.68 112.42h6.56v7.58h-6.56z" fill="#b20"/><path d="m370.56 96.39h6.56v7.58h-6.56z" fill="#b20"/><path d="m380.17 96.39h6.56v7.58h-6.56z" fill="#b20"/><path d="m399.38 96.39h6.56v7.58h-6.56z" fill="#b20"/><path d="m380.17 108.05h6.56v7.58h-6.56z" fill="#b20"/><path d="m389.78 108.05h6.56v7.58h-6.56z" fill="#b20"/><path d="m399.38 108.05h6.56v7.58h-6.56z" fill="#b20"/><path d="m143.58 76.11h17.79v6.25h-17.79z" fill="#b20"/><path d="m165.65 76.11h17.79v6.25h-17.79z" fill="#b20"/><path d="m143.58 86.78h17.79v6.25h-17.79z" fill="#b20"/><path d="m165.65 86.78h17.79v6.25h-17.79z" fill="#b20"/><path d="m165.65 97.46h17.79v6.25h-17.79z" fill="#b20"/></g></symbol><use height="120" width="480" xlink:href="#a"/></svg>