<svg viewBox="0 0 240 160" xmlns="http://www.w3.org/2000/svg" xmlns:xlink="http://www.w3.org/1999/xlink"><symbol id="a" viewBox="0 0 240 160"><path d="m221 31.17a7.6 7.6 0 0 1 -2.6-2.1c-6.9 10.68-18.47 36.51-33.51 68-1.6 3.35 2.33 4.12 3.49 2 20.28-36.93 31.66-58.06 35.83-66.91a10.26 10.26 0 0 1 -3.21-.99z" fill="#b20"/><path d="m45.34 114.75-5.82.86c-5.33.79-8.32 12.74-1.49 11.73l8-1.18c8.57-1.27 4.79-12.22-.69-11.41zm-6.7 7.19a4.2 4.2 0 0 1 -2.88-1 5.24 5.24 0 0 1 4.51-4.51l1.52-.23c-1.33 2.78-1.35 7 1.4 8.75-1.96.5-4.19-1.61-4.55-3.01z" fill="none"/><path d="m113.39 136.86-.32-1.94c0-.38-.11-.73-.16-1s-.09-.6-.12-.87a8.58 8.58 0 0 1 -.18-.91c0-.28-.09-.55-.14-.79s0-.37-.08-.63a1.81 1.81 0 0 0 -.12-.54l-.08-.48a.49.49 0 0 0 -.08-.28v-.25l-.08.27v.29a.85.85 0 0 1 0 .15 1.5 1.5 0 0 0 -.08.37 4.67 4.67 0 0 0 -.08.53c0 .21-.07.44-.12.7l-.28 1.75-.32 2-.13.94c0 .23-.1.6-.16 1.1-.24 1.29-.34 1.87-.32 1.76l1.77-.28a.68.68 0 0 1 .12-.13.3.3 0 0 1 .12-.08h.12a1.33 1.33 0 0 1 .34 0h.26a1.55 1.55 0 0 0 .48 0l-.24-1.38s-.09-.16-.12-.3z" fill="none"/><path d="m204.09 37.68c2.16-.48 3.56-3.16 3.08-5.34s-2.67-3.16-4.84-2.68-4.28 2.42-3.8 4.61 3.39 3.89 5.56 3.41z" fill="none"/><path d="m82.59 127.26a2 2 0 0 0 -.6-.73.9.9 0 0 0 -.82-.3.65.65 0 0 0 -.39.25 2.63 2.63 0 0 0 -.3.53 13.85 13.85 0 0 0 -.91 3.93c-.09.59-.17 1.45-.23 2.6q-.23 2.64-.23 7a.55.55 0 0 0 .23.11h.55l1.28-.21c.64-.1 1.11-.81 1.42-2.12a22.67 22.67 0 0 0 .55-3.88q.09-1.4.09-3.09v-.53a16.32 16.32 0 0 0 -.23-2.23 6 6 0 0 0 -.41-1.33z" fill="none"/><path d="m148.25 48.71.12-.12c.06-.05.1-.08.12-.08h.12a1.05 1.05 0 0 1 .35 0h.26a1.29 1.29 0 0 0 .48 0l-.24-1.37a2.26 2.26 0 0 1 0-.24l-.36-1.9c-.06-.37-.11-.72-.16-1a7.52 7.52 0 0 1 -.12-.87c-.08-.32-.14-.63-.19-.91s-.08-.55-.14-.79-.05-.37-.08-.63a1.34 1.34 0 0 0 -.12-.54l-.08-.49a.4.4 0 0 0 -.08-.27v-.25l-.08.27v.29a.47.47 0 0 1 0 .15 3.65 3.65 0 0 0 -.08.36c0 .15 0 .32-.08.54a5.41 5.41 0 0 1 -.12.7l-.28 1.75-.32 2-.12.94a9.87 9.87 0 0 0 -.16 1.1c-.24 1.29-.35 1.87-.32 1.76z" fill="none"/><path d="m191.8 35.6a5.09 5.09 0 0 0 3.58-5.45 5.15 5.15 0 0 0 -5.54-3.52c-2.16.49-3.78 3.31-3.3 5.5a4.79 4.79 0 0 0 5.26 3.47z" fill="none"/><path d="m31.86 114.74a5.11 5.11 0 0 0 -3.07-.13l-2.19.39-7.66 1.13c-2.69.4-4.55 2-2.24 6.15 1.83 3.31.95 7.84-5.23 17.87-4.52 7.33-3 17.26 2.28 16.48l9.25-1.42c3.54-.52 4.47-1.49 3.8-7.83-.53-5.14.58-11.47 2.35-17.49a2.43 2.43 0 0 0 1.26.14 2.53 2.53 0 0 0 .3-4.93c.76-2.11 1.56-4.13 2.37-6a3.18 3.18 0 0 0 -1.22-4.36zm.36 4c-.9 2-1.74 4.16-2.49 6.3a2.53 2.53 0 0 0 -2.11 2.87 2.61 2.61 0 0 0 .72 1.43c-.36 1.22-.69 2.42-1 3.6a43.4 43.4 0 0 0 -1.48 14.55c.31 3 .25 4.66-.21 5.53-.36.66-1.06 1-2.76 1.23l-9.28 1.37a2.62 2.62 0 0 1 -2.71-1.35c-1.72-2.67-1.68-8.64 1.4-13.63 6-9.78 7.46-14.9 5.25-18.87-.86-1.55-1.12-2.76-.76-3.5a3 3 0 0 1 2.29-1.19l7.66-1.13 1.2-.19 1-.16a5.11 5.11 0 0 1 2.43 0c.43.26 1.77 1.05.85 3.13z" fill="none"/><path d="m189.06 59.38c-3.17 1.66-2.13 8.48.41 10.44a4.44 4.44 0 0 0 6.92-2.23c1-3.35-3.46-10.24-7.33-8.21z" fill="none"/><path d="m82.25 59.48.12-.12c.06 0 .1-.08.12-.08h.12a1.42 1.42 0 0 1 .34 0h.26a1.34 1.34 0 0 0 .49 0l-.24-1.37a2.24 2.24 0 0 1 0-.25l-.33-1.94c0-.38-.1-.72-.16-1s-.09-.6-.12-.88a8.94 8.94 0 0 1 -.18-.9 7.54 7.54 0 0 0 -.14-.79c0-.16 0-.37-.08-.63a1.34 1.34 0 0 0 -.12-.54l-.08-.49a.51.51 0 0 0 -.08-.28v-.24l-.08.26v.29a.41.41 0 0 1 0 .15 2.44 2.44 0 0 0 -.08.37c0 .14 0 .32-.08.53s-.07.45-.12.71l-.4 1.72-.32 2-.09.9a8.13 8.13 0 0 0 -.19 1.1c-.24 1.28-.35 1.87-.32 1.75z" fill="none"/><path d="m221.74 59.1a3.9 3.9 0 0 0 4.78 2.9 4.11 4.11 0 0 0 3.3-4.72c-.47-2.18-2.95-4-5.12-3.57s-3.44 3.2-2.96 5.39z" fill="none"/><path d="m223.46 76.29c-2.17.48-3.45 3-3 5.2a3.91 3.91 0 0 0 4.77 3c2.16-.48 3.1-2.42 2.62-4.61s-2.23-4.07-4.39-3.59z" fill="none"/><path d="m227.05 65.49c-2.16.48-2.7 3.2-2.22 5.39s1.91 3.55 4.08 3.07 2.93-2.34 2.45-4.53-2.14-4.42-4.31-3.93z" fill="none"/><path d="m226.72 109.81-1.72.28c0 .36 0 .93-.08 1.71v.88c-.06.57-.08 1.43-.08 2.59a7.1 7.1 0 0 0 1.4-.43 5.8 5.8 0 0 0 1.2-.69 7.74 7.74 0 0 0 1-1 2.43 2.43 0 0 0 -.24-3.08 2 2 0 0 0 -1.48-.26z" fill="none"/><path d="m160.75 91.94a11.86 11.86 0 0 1 .2 2.23c0 1 .05 1.64.05 1.88.05 2.16.1 3.52.16 4.09a.37.37 0 0 0 .28.41 1.47 1.47 0 0 0 .84 0 3.3 3.3 0 0 0 .48-.12l.64-.15c.22-.06.56-.13 1-.21l2.93-.38h.32a5 5 0 0 0 .57-.13l.56-.09.36-.06a7.54 7.54 0 0 1 .92-.11h.38a2 2 0 0 0 .5-.1c.54-.08.81-.31.81-.67a2.31 2.31 0 0 1 0-.49.88.88 0 0 1 0-.34v-.46a3 3 0 0 0 0-.59 10.15 10.15 0 0 0 -.12-1.22c0-1 0-1.77 0-2.41a9.47 9.47 0 0 0 -.15-1.18 1.63 1.63 0 0 0 -.22-.67 1.21 1.21 0 0 0 -.2-.76 5 5 0 0 0 -.92-.26h-.2-.12-1.24a3.49 3.49 0 0 0 -.53 0l-.18.05a.59.59 0 0 1 -.26 0 .93.93 0 0 0 -.36.14l-.28-.08-1 .15a5.25 5.25 0 0 0 -.68.15 3.51 3.51 0 0 1 -.73.2l-2.36.38-1.28.5z" fill="#b20"/><path d="m187 76.87a7.72 7.72 0 0 1 6.7-2.71c6.35-13.57 11.82-25.16 16.3-33.96v-.2c-.48-2.19.4-4.41 2.56-4.9h.2q1.61-3 3-5.3c-13.07-9.14-29.94-10.66-37.82.14-9.19 12.58-5.35 31.92-.58 42 3.1 6.62 6.64 8.61 9.64 4.93zm15.37-47.21c2.17-.48 4.36.49 4.84 2.68s-.92 4.86-3.08 5.34-5.08-1.23-5.56-3.41 1.6-4.13 3.76-4.61zm-5.94 37.93a4.44 4.44 0 0 1 -6.92 2.23c-2.54-2-3.58-8.78-.41-10.44 3.83-2.03 8.29 4.86 7.29 8.21zm-6.55-41a5.15 5.15 0 0 1 5.54 3.52 5.09 5.09 0 0 1 -3.58 5.45 4.79 4.79 0 0 1 -5.26-3.47c-.52-2.15 1.1-4.97 3.26-5.46z" fill="#b20"/><path d="m118.87 63 .72-.08.94-.17 1-.22 1.06-.3.57-.06 3-.29a.25.25 0 0 1 .25-.19h.59a9 9 0 0 0 .92 0 1.11 1.11 0 0 1 .29-.15h.2s0 0 .08-.05h.12a1.16 1.16 0 0 0 .79-.37 2.06 2.06 0 0 0 .31-.83 12.34 12.34 0 0 0 .14-1.4 10.54 10.54 0 0 1 .19-1.7l.22-1.59.49-8.09q.06-.87.27-2.37a4.19 4.19 0 0 1 .14-.62 1.25 1.25 0 0 0 .07-.27l.32-7.12-3 .29a.9.9 0 0 1 -.24 0 .75.75 0 0 0 -.28 0 .23.23 0 0 0 -.12.06.7.7 0 0 0 -.25.06.33.33 0 0 0 -.2.06h-.16a.33.33 0 0 1 -.28-.1l-1.78.17-.17.14a15.28 15.28 0 0 1 -1.89.1 6.8 6.8 0 0 1 -.85 0c-.37 0-.72 0-1.05 0a5 5 0 0 0 -1.14.23q-.74.24-.75.57l-.62 10.08q-.11 1.74-.09 5.37v1.56 3.8a4.44 4.44 0 0 1 0 .82 5.41 5.41 0 0 0 .06 1.11c.09 1.07.13 1.55.13 1.55z" fill="#b20"/><path d="m134.05 59.92a6.92 6.92 0 0 0 .77-.16l1-.16c.75-.12 1.24-.21 1.48-.28h.32l3.21-.51h.16l.32-.11 1.13-.18 1.52-.33h.2a.39.39 0 0 0 .32 0h.08a2.51 2.51 0 0 0 .28-.13l.24-.12a7.3 7.3 0 0 0 .53-1.7c.18-.83.29-1.32.32-1.47a6.6 6.6 0 0 1 .2-1.07l1-.16 1-.16a13.54 13.54 0 0 0 1.93-.44 19.84 19.84 0 0 0 1 4c.43-.07 1-.12 1.61-.17a1.82 1.82 0 0 1 .72 0l.28-.05h.12a.09.09 0 0 0 .08-.09l.12-.11a.29.29 0 0 1 .24.05v.08l2.21-.36s.13 0 .32 0l.68-.11.84-.13.88-.14a6.76 6.76 0 0 0 .81-.09l.44-.07a.76.76 0 0 0 .56-.51 5.91 5.91 0 0 0 .08-.8 6.75 6.75 0 0 0 -.16-1.3 4.54 4.54 0 0 1 -.12-.77c-.51-2.36-1.2-5.22-2.09-8.6l-2.84-10.52c0-.13-.1-.26-.29-.37l-.36.06a.75.75 0 0 1 -.4 0h-.2a1 1 0 0 0 -.24 0l-1.52.24q-.76.12-1.17.15l-1.12.18c-.48 0-1 .11-1.48.19l-1.33.21-1.76.37a3.31 3.31 0 0 0 -.76.21l-2.09.37a8.4 8.4 0 0 1 -1.48.11c-.33 0-.81.09-1.45.19a7.66 7.66 0 0 0 -.84.18 2.18 2.18 0 0 1 -.76.25h-.28a1.93 1.93 0 0 0 -.24.25.37.37 0 0 0 -.07.16l-2.7 11.46q-1.12 4.59-2.05 9.26a1.39 1.39 0 0 1 0 .32 2.25 2.25 0 0 0 0 .49 4.09 4.09 0 0 0 -.2 1.15c-.11 1-.16 1.44-.16 1.44l.76-.12zm12.76-12.68a9.87 9.87 0 0 1 .16-1.1l.12-.94.32-2 .28-1.75a5.41 5.41 0 0 0 .12-.7c0-.22.06-.39.08-.54a3.65 3.65 0 0 1 .08-.36.47.47 0 0 0 0-.15v-.29l.08-.27v.25a.4.4 0 0 1 .08.27l.08.49a1.34 1.34 0 0 1 .12.54c0 .26.06.47.08.63s.1.51.14.79.11.59.19.91a7.52 7.52 0 0 0 .12.87c.05.31.1.66.16 1l.32 1.95a2.26 2.26 0 0 0 0 .24l.24 1.37a1.29 1.29 0 0 1 -.48 0h-.26a1.05 1.05 0 0 0 -.35 0h-.12s-.06 0-.12.08l-.12.12-1.76.29c.09.17.2-.41.44-1.7z" fill="#b20"/><path d="m221.86 51.54a3.78 3.78 0 0 1 -4.39-1.94c-4 7.53-9.29 17.34-16.17 29.94a13.65 13.65 0 0 1 1.18 3.51c2 10.52 10.45 13.28 22.86 7.61 14.19-6.49 14-32.65.75-50.82-.68-.93-1.41-1.83-2.15-2.7-1 2-2.15 4.23-3.54 6.89a3.63 3.63 0 0 1 4.28 3 3.55 3.55 0 0 1 -2.82 4.51zm3.39 32.91a3.91 3.91 0 0 1 -4.77-3c-.47-2.19.81-4.72 3-5.2s3.94 1.36 4.41 3.55-.48 4.2-2.64 4.65zm3.66-10.45c-2.17.48-3.6-.88-4.08-3.07s.06-4.91 2.22-5.39 3.84 1.74 4.31 3.93-.29 4-2.45 4.53zm.91-16.66a4.11 4.11 0 0 1 -3.3 4.72 3.9 3.9 0 0 1 -4.78-2.91c-.48-2.19.8-4.89 3-5.38s4.61 1.34 5.08 3.52z" fill="#b20"/><path d="m237.42 8.73a6.69 6.69 0 0 0 .07-8.73c.93 5-2.7 7.07-9.34 8.69-3.4.84-6.87 2.57-7.79 5.38-1.29 3.94.71 5.73 2.48 6.07 3.35.64 3.17-1.34 6.16-.55 2.07.55 1.85 2.84 3.36 3 1.83.19 3-.64 3.69-2.77 1-3.5.07-5.37.35-6.68a2.42 2.42 0 0 1 3.6-1.82 2.91 2.91 0 0 0 -2.58-2.59z" fill="#b20"/><path d="m232.82 24.53a6.5 6.5 0 0 1 -.66 0 3.72 3.72 0 0 1 -2.84-2.17c-.39-.66-.51-.79-.8-.87a2.06 2.06 0 0 0 -1.73.13 6.54 6.54 0 0 1 -4.31.45 5.42 5.42 0 0 1 -3.2-1.93c-1.09 3.61-1 7.51 2.6 9.35 5.12 2.51 9.12-.71 11.49-4.99z" fill="#b20"/><path d="m124.82 142.26c-.5-2.36-1.2-5.22-2.08-8.6l-2.85-10.51a.44.44 0 0 0 -.28-.37h-.36a.74.74 0 0 1 -.4 0h-.2a1 1 0 0 0 -.24 0l-1.53.24a11.51 11.51 0 0 1 -1.16.15l-1.12.18c-.49 0-1 .11-1.49.19l-1.32.22-1.77.36a3.46 3.46 0 0 0 -.76.21l-2.09.37a9.42 9.42 0 0 1 -1.48.12q-.48 0-1.44.18a7.45 7.45 0 0 0 -.85.18 2.11 2.11 0 0 1 -.76.25h-.28a1.93 1.93 0 0 0 -.24.25.39.39 0 0 0 -.12.23l-2.73 11.49q-1.12 4.58-2 9.26a2.19 2.19 0 0 1 0 .31 2.31 2.31 0 0 0 0 .49 3.86 3.86 0 0 0 -.21 1.15c-.1 1-.16 1.44-.16 1.44l.77-.12.48-.08a5 5 0 0 0 .76-.16l1-.16c.75-.12 1.25-.21 1.49-.27l.32-.06 3.21-.51.16-.05.32-.11 1.12-.18 1.53-.33.2.05c.05 0 .16.06.32 0h.08l.28-.12.24-.13a8 8 0 0 0 .52-1.7c.19-.83.29-1.32.32-1.46a9.58 9.58 0 0 1 .2-1.08l1-.16 1-.16a13.7 13.7 0 0 0 1.92-.44 19 19 0 0 0 1 4c.42-.06 1-.12 1.6-.17a1.82 1.82 0 0 1 .72 0l.28-.05h.12c.06 0 .08 0 .08-.09l.13-.1a.27.27 0 0 1 .24 0v.08l2.2-.36s.14 0 .32 0l.68-.11.85-.13.88-.14a5.06 5.06 0 0 0 .8-.09l.44-.07a.8.8 0 0 0 .57-.5 6.19 6.19 0 0 0 .08-.81 7.66 7.66 0 0 0 -.13-1.28 3.93 3.93 0 0 1 -.18-.74zm-11.63-3.79h-.26a1.33 1.33 0 0 0 -.34 0h-.12a.3.3 0 0 0 -.12.08.68.68 0 0 0 -.12.13l-1.77.28c0 .11.08-.47.32-1.76.06-.5.11-.87.16-1.1l.13-.94.32-2 .28-1.75c0-.26.09-.49.12-.7a4.67 4.67 0 0 1 .08-.53 1.5 1.5 0 0 1 .08-.37.85.85 0 0 0 0-.15v-.29l.08-.27v.25a.49.49 0 0 1 .08.28l.08.48a1.81 1.81 0 0 1 .12.54c0 .26 0 .47.08.63s.1.51.14.79a8.58 8.58 0 0 0 .18.91q0 .41.12.87c0 .31.11.66.16 1l.32 1.94v.24l.24 1.38a1.55 1.55 0 0 1 -.36.06z" fill="#b20"/><path d="m135 119.56a.72.72 0 0 1 -.24 0 .94.94 0 0 0 -.28 0 .15.15 0 0 0 -.12.07.45.45 0 0 0 -.24.08.29.29 0 0 0 -.2.07h-.16a.34.34 0 0 1 -.29-.08l-1.76.29-.16.15a15.55 15.55 0 0 1 -1.88.23 8.52 8.52 0 0 1 -.85.08 8.09 8.09 0 0 0 -1 .11 4.28 4.28 0 0 0 -1.12.31c-.48.19-.72.39-.72.61v10.1c0 1.16.1 3 .27 5.36l.13 1.56c.11 1.73.18 3 .22 3.79a5.75 5.75 0 0 1 0 .83 5 5 0 0 0 .13 1.1c.13 1 .2 1.46.2 1.46l.72-.12.93-.23 1-.29 1-.38.56-.09 3-.5a.25.25 0 0 1 .24-.2l.56-.05a8.27 8.27 0 0 0 .92 0 1.31 1.31 0 0 1 .28-.17h.2s0 0 .08 0h.12a1.12 1.12 0 0 0 .76-.42 2.13 2.13 0 0 0 .26-.85 13.59 13.59 0 0 0 .05-1.41 10.84 10.84 0 0 1 .07-1.71l.11-1.6v-8.1c0-.58 0-1.38.11-2.39a5 5 0 0 1 .1-.62 2 2 0 0 0 .06-.28l-.16-7.13z" fill="#b20"/><path d="m142.25 104.24h.48l5.89-1.06a10.44 10.44 0 0 0 2.85-.94 16.36 16.36 0 0 0 2.85-1.76 11.15 11.15 0 0 0 3.93-5.12 6.58 6.58 0 0 0 .28-2 4.65 4.65 0 0 0 -.36-2 4.94 4.94 0 0 0 -2.24-2.63 17.7 17.7 0 0 0 -3.69-1.57c-1.15-.37-1.85-.61-2.09-.71a.8.8 0 0 1 -.4-.31.89.89 0 0 1 -.08-.44 1.86 1.86 0 0 1 .4-1.1 4.65 4.65 0 0 1 2.29-1.41l2-.62.92-.27c.19 0 .61-.14 1.25-.32s.88-.46.88-.68a.33.33 0 0 0 -.08-.24c-.08-2.12-.16-3.39-.24-3.83a2.15 2.15 0 0 0 -.2-.79.9.9 0 0 0 -1-.35 3.78 3.78 0 0 1 -.89-.11 71.61 71.61 0 0 0 -7.38 1.52 20.1 20.1 0 0 0 -7.18 3.43 8 8 0 0 0 -3.21 6.46 12.82 12.82 0 0 0 .6 3c.49 1.36 1.06 2 1.73 1.88v.21c0 .19.12.34.36.44a1.93 1.93 0 0 0 .58.34c.23.09.38.16.46.2s.12 0 .12.06 0 0-.08.06l.24.08a2.34 2.34 0 0 0 .76.34.15.15 0 0 0 .08.09.07.07 0 0 1 0 .06 5.85 5.85 0 0 0 1.28.25l1.28.29a2.91 2.91 0 0 1 1.17.58 1.39 1.39 0 0 1 .4 1 1 1 0 0 1 -.36.77 5 5 0 0 1 -2.21.76c-.29 0-.71.08-1.24.16a13 13 0 0 1 -5.14-.22.43.43 0 0 0 -.26.23 1.36 1.36 0 0 0 -.06.45v.21l.88 5a.54.54 0 0 0 .41.27 1.53 1.53 0 0 0 .84.15 13.46 13.46 0 0 0 2.2.15z" fill="#b20"/><path d="m127.79 105.85a1.4 1.4 0 0 0 .54-.23 1.39 1.39 0 0 1 .58-.23h.23.13c.3-.3.45-.49.45-.59l3.14-15.23q1.44-5.57 2.6-11.89a1.5 1.5 0 0 0 .07-.36 3.89 3.89 0 0 1 .15-.75 8.54 8.54 0 0 0 .18-1.42v-.57q0-1.29-.81-1.17l-.58.1-1 .16a4.94 4.94 0 0 1 -1.17.28l-1.12.18a8.09 8.09 0 0 1 -.9.19l-.36.06-2.82.45v.09l-.1.08a.76.76 0 0 1 -.29.1c0-.06-.06-.09-.09-.08s0-.09-.09-.08h-.14l-.35.11-.9.19-1.12.22a9 9 0 0 1 -1 .21 9.17 9.17 0 0 0 -.49 1.38c-.24 1.24-.39 2-.45 2.39l-.5 2.5c-.24 1.34-.43 2.34-.58 3l-.13.72c0 .25-.08.52-.14.81s-.12.62-.18 1l-.45 2.26c-.24 1.37-.48 2.69-.72 4 0 .22 0 .39-.06.5a1.11 1.11 0 0 0 0 .21.68.68 0 0 0 -.14.44v.29-.27c0-.13 0-.2-.09-.22v-.19l-.13-.67-.77-3.74c-.21-1.2-.33-1.91-.35-2.13a9.18 9.18 0 0 1 -.21-.92 7.22 7.22 0 0 0 -.15-.78c0-.18-.06-.34-.07-.46a1.34 1.34 0 0 1 0-.23q-.45-1.87-.63-2.82l-.49-2.57a20.29 20.29 0 0 0 -.9-3.25 7.68 7.68 0 0 1 -1.35.12c-1.25.2-2.08.32-2.47.35h-.44-.18a.92.92 0 0 0 -.36.15.28.28 0 0 0 -.11.07.33.33 0 0 1 -.16.07h-.27a.6.6 0 0 1 -.18-.06l-4.13.66-.4.06-2 .28a5.11 5.11 0 0 1 -1.17.09l-1 .17-.54.08a.75.75 0 0 0 -.67.71 3.46 3.46 0 0 0 -.13 1 6.75 6.75 0 0 0 .22 1.64 2.06 2.06 0 0 1 .11.58 2.35 2.35 0 0 0 .07.46q1.35 6.43 2.65 11l3.14 14.23c0 .16.15.3.45.44h.22s0 0 .13-.06a5.9 5.9 0 0 1 1.22-.06h.67l.54-.08q10.77-1.72 16.33-2.85a11.54 11.54 0 0 1 1.21-.1 5.38 5.38 0 0 0 1-.02z" fill="#b20"/><path d="m165.35 115.44a1.89 1.89 0 0 0 -1.21-.1l-.4.06-.88.14c-.54.09-.94.14-1.2.16l-1.21.19a7.8 7.8 0 0 0 -1 .12l-.4.06-2 .32a1.8 1.8 0 0 0 -1 .45 2.93 2.93 0 0 0 -.56.63s0 .15 0 .43a2.82 2.82 0 0 1 0 .44 3.82 3.82 0 0 0 0 .61c-.06 1.17-.08 2.23-.08 3.17v1.67 1.45c-.22-.33-.42-.61-.6-.86s-.35-.47-.48-.67c-.91-1.21-1.69-2.31-2.33-3.28s-1-1.36-1-1.34l-1-1.09-.22-.33a.69.69 0 0 0 -.3-.31 1.34 1.34 0 0 0 -.56-.06c-.56.09-1 .19-1.44.28-.24 0-.85.16-1.81.37-1.92.39-3.11.62-3.57.7a4 4 0 0 0 -1.32.37 1.76 1.76 0 0 0 -1 1.12q-.12.06 0 .12v.16.95a9 9 0 0 1 0 1v1.13.5.22.41a5.29 5.29 0 0 0 0 .71v1.79a1.78 1.78 0 0 0 0 .41v.62a5.47 5.47 0 0 0 0 .72v1c0 1.86.08 3.64.24 5.36v1.25 1.53s0 1.25 0 1.57v1.58.86s0 .42.05.41l.08.24 1.56.21.32-.06.6-.09.64-.11.57-.09q2.09-.33 5.25-1.13h.1a.24.24 0 0 1 .14 0 .61.61 0 0 0 .28-.09.88.88 0 0 0 .12-.23c.08-.43.12-.65.12-.68a.83.83 0 0 1 0-.26v-1.62c0-.52 0-.94 0-1.25v-1.28c0-.47 0-.81 0-1v-.71a.43.43 0 0 1 .08-.2.32.32 0 0 1 .2-.13c.08 0 .19 0 .33.15l.52.42c.37.38.62.66.76.83l3.53 4.59a1.27 1.27 0 0 0 .68.35 2.43 2.43 0 0 0 1 0 1 1 0 0 0 .32-.09l.53-.08 2.08-.34 2.09-.33a19.13 19.13 0 0 0 2.12-.26.75.75 0 0 0 .3-.09l.23-.07c.24-.07.42-.43.56-1.09l.12-1.39c0-.81.08-2.71.08-5.71v-5.81-4.79-1.05a1.59 1.59 0 0 0 0-.37v-.29a9.78 9.78 0 0 1 0-1c0-.25 0-.56 0-.92a3.06 3.06 0 0 0 -.08-.8.64.64 0 0 0 .05-.38z" fill="#b20"/><path d="m239.16 122.82a3.16 3.16 0 0 1 -.32-.65c-.67-.76-1.26-1.45-1.77-2.09a7 7 0 0 1 -.54-.62 6.37 6.37 0 0 0 -.46-.55 15.66 15.66 0 0 1 -1.41-2.27 9.55 9.55 0 0 0 2-1.77 6.89 6.89 0 0 0 1.28-4.11 7.65 7.65 0 0 0 -.34-2.46 3.65 3.65 0 0 0 -1.14-1.66q-1.85-1.33-6.42-1.26a109.42 109.42 0 0 0 -14.04 1.62 5.68 5.68 0 0 0 -1.48.4c-.67.28-1 .61-1 1a.31.31 0 0 0 .12.23v1a2.61 2.61 0 0 0 0 .54v.41c0 .75 0 1.54-.08 2.38a6.44 6.44 0 0 1 0 .88v1 .25a.89.89 0 0 1 .08.44v.47.32a1.48 1.48 0 0 1 0 .38v.71a2 2 0 0 1 -.08.68v.37 1 1.24l.2 2.26c0 .19 0 .62.08 1.27s.1 1.77.21 3.25c0 .52.12 1.35.2 2.51a1.25 1.25 0 0 0 0 .24c0 .11 0 .16.1.15l.08.28 1.24.22.28-.05a3 3 0 0 0 .64-.06l.76-.12.61-.1q2-.32 6.41-1.36h.12.29a2.2 2.2 0 0 0 .2-.49v-1.25c.1-1.41.16-2.62.16-3.64 0-1.58 0-2.56 0-2.92l.16-.11h.2l.08.07.68 1q1.84 2.79 2.73 3.85l1.24 1.62 1.77 1.51c.05.07.2 0 .44-.15a16.9 16.9 0 0 0 2.2-1.35 15 15 0 0 0 2.36-1.83 4.37 4.37 0 0 0 .48-.49 8.8 8.8 0 0 0 1.89-1.76.56.56 0 0 0 .06-.28c-.07-.06-.14-.11-.27-.15zm-10.71-9.67a7.74 7.74 0 0 1 -1 1 5.8 5.8 0 0 1 -1.2.69 7.1 7.1 0 0 1 -1.4.43c0-1.16 0-2 .08-2.59v-.88c.05-.78.08-1.35.08-1.71l1.72-.28a2 2 0 0 1 1.49.26 2.43 2.43 0 0 1 .24 3.08z" fill="#b20"/><path d="m211.44 109a3.76 3.76 0 0 0 -.3-1 .46.46 0 0 0 -.5-.29l-1.29.21c-.08-.07-.15-.11-.2-.1-1.34.22-2.47.43-3.41.63a20.93 20.93 0 0 0 -2.73.81l-.2-.13-.6.09a3 3 0 0 1 -.6.14c-1.15.19-2.29.33-3.41.42-.75.07-1.89.22-3.41.47l-1 .16-1.21.19c-.91.31-1.36.63-1.36 1-.16 2.15-.24 5.2-.24 9.13v2.95s0 1.11 0 1.94v1 1.37c0 .74.05 1.75.16 3a6.15 6.15 0 0 0 .52 2 1.75 1.75 0 0 0 .2.51 2.1 2.1 0 0 0 .4.85c0 .1.07.15.12.14l12.72-2a5.82 5.82 0 0 1 2.09-.63h.32a.29.29 0 0 0 .24 0l.6-.1.48-.12v.21a2.27 2.27 0 0 1 .28-.21l.24-.16a.43.43 0 0 1 .28 0 2.16 2.16 0 0 0 .56 0h.12.29l.4-.48v-1.29l-.28-1.16a7.1 7.1 0 0 1 -.25-1.12 1.48 1.48 0 0 0 -.08-.53.88.88 0 0 0 -.08-.42c0-.12-.12-.17-.2-.16-1.2.19-2.42.43-3.65.71s-2.48.52-3.69.71v-1c0-.39 0-.68 0-.88v-.92a.85.85 0 0 1 0-.29v-.16a1.25 1.25 0 0 1 .16-.69.58.58 0 0 1 .36-.37 4 4 0 0 1 .85-.2l1.2-.19 1.73-.28a17.71 17.71 0 0 0 2.92-.63c.89-.28 1.29-.64 1.21-1.07l-.85-2.61a.83.83 0 0 0 -.2-.51.53.53 0 0 0 -.56-.15 3.54 3.54 0 0 1 -1-.1 1.11 1.11 0 0 0 -.6 0 .33.33 0 0 0 -.16.07.27.27 0 0 0 -.12.14l-3.41.55a.37.37 0 0 0 -.2-.09.47.47 0 0 0 -.2 0 .71.71 0 0 1 -.4.23.53.53 0 0 1 -.47-.1.9.9 0 0 1 -.14-.6c0-.3 0-.58 0-.83a7.74 7.74 0 0 1 .36-2c.08-.29.18-.45.29-.47v.09a2.68 2.68 0 0 1 .84-.39c.51-.13 1.33-.29 2.48-.48a6.51 6.51 0 0 0 1.07-.25c.31-.1.51-.18.62-.22a3.15 3.15 0 0 1 .84-.26 1 1 0 0 1 .36 0 .53.53 0 0 0 .4.06 1.28 1.28 0 0 0 .53-.21.84.84 0 0 1 .44-.11h.16c.05.07.09.11.12.1.26 0 .4-.45.4-1.23a7.5 7.5 0 0 1 -.28-1.32 7.88 7.88 0 0 0 -.08-1.37z" fill="#b20"/><path d="m190.06 111h-.56c-.3 0-.85.1-1.65.22l-1.56.25-1 .21a10.57 10.57 0 0 1 -1.2.11 6.33 6.33 0 0 0 -1.16.1 2.68 2.68 0 0 0 -.53.17 1.43 1.43 0 0 0 -.52.17l-1 .16c-.64.1-1.14.17-1.48.19l-1.73.28-1.72.28-1.37.21-.72.12-2.61.42c-.61.12-1.51.28-2.68.47l-.81.13-.72.07-.16.19v.34.91a4.12 4.12 0 0 1 -.08.93v.54a23.93 23.93 0 0 0 .16 3.26c.19 1.35.58 2 1.16 1.89l4-.64.12.11v5.28 4.58a35.4 35.4 0 0 0 .16 4 4.57 4.57 0 0 0 .48 2l2.65-.42 2.08-.33 1.85-.3 2-.31c.11 0 .48-.12 1.12-.31s.9-.65.93-1.52c.05-.56.08-1.26.08-2.09a8.5 8.5 0 0 1 .08-1.38c0-.33 0-.86.08-1.59a31.65 31.65 0 0 0 .16-3.19v-1.21c0-.27 0-.68 0-1.24v-1.25a7.82 7.82 0 0 1 .08-1.34c.13-1.07.4-1.64.8-1.71l1.53-.24a16.44 16.44 0 0 1 3.45-.26 1.58 1.58 0 0 0 .5-.46 1 1 0 0 0 .26-.58v-7.06s0-.06-.08-.09a.31.31 0 0 1 -.39-.07z" fill="#b20"/><path d="m96.67 62.78a3.22 3.22 0 0 0 .08.78 9.77 9.77 0 0 0 0 1.12 4.48 4.48 0 0 0 .36 1.08l.2.36.4-.06.4-.07a3.2 3.2 0 0 0 .68-.15l.81-.13.72-.11.6-.1h.24l3-.48a.37.37 0 0 1 .28-.17 1.3 1.3 0 0 1 .28 0s.16.06.4 0l.4-.07a3.12 3.12 0 0 0 .73-.19l1.88-.35a8.27 8.27 0 0 0 .4-2.47c0-.7 0-2 0-4a1.25 1.25 0 0 0 .18-.24 1.13 1.13 0 0 1 .18-.19 1.64 1.64 0 0 1 .81-.29l.48-.08a.19.19 0 0 0 .08-.08l.08-.15.16-.11h.2.2a.52.52 0 0 0 .2-.08s.07-.09.2-.11.07 0 .12.06 0 0 .12 0a8.14 8.14 0 0 0 1.86-.5 6 6 0 0 0 1.68-.72v-1.43c0-.28 0-.77 0-1.46a3.21 3.21 0 0 0 -.32-1.65 1.29 1.29 0 0 0 -.7-.47 3.54 3.54 0 0 0 -1.11-.16 15 15 0 0 0 -2.56.21l-.72.11a.27.27 0 0 1 -.11-.15.57.57 0 0 1 0-.12v-.16-1.75a16.57 16.57 0 0 1 .16-1.9 1.23 1.23 0 0 1 0-.42l.28-.17h.12a.75.75 0 0 0 .24 0l.52-.08a5.17 5.17 0 0 0 1.2-.32 3.74 3.74 0 0 0 .38-.08 6 6 0 0 1 .63-.12l1.6-.26.52-.08a1.16 1.16 0 0 0 .34 0l.26-.07a1.74 1.74 0 0 0 .52-.27.39.39 0 0 0 .16-.33 14.9 14.9 0 0 0 -.36-3.56c-.26-1-.71-1.47-1.32-1.37a.23.23 0 0 0 -.12.06l-.16.11a.3.3 0 0 1 -.12 0 .35.35 0 0 1 -.12-.07l-9.23 1.48c-.08-.07-.27-.08-.56 0h-.12a.4.4 0 0 1 -.2.07h-.24l.06.13a.37.37 0 0 1 -.32-.07l-1.77.28-.12.15c-.32 0-.61.08-.88.1a6.76 6.76 0 0 0 -.72.07 10.44 10.44 0 0 0 -1.57.17 8.68 8.68 0 0 0 -1 .23 3.71 3.71 0 0 1 -.88.27c-.11 0-.18 0-.2 0h-.16a1 1 0 0 0 -.16.23.42.42 0 0 0 -.08.22v11.82a34.66 34.66 0 0 0 .2 4.17c.17 1.91.27 3.29.33 4.14z" fill="#b20"/><path d="m25.91 74 .09 2.1v1s0 .49 0 .49l.18.34 2 .18.31-.05.81-.06.88-.14a1.87 1.87 0 0 0 .7 0c.76-.12 1.59-.28 2.46-.48l1.85-.44c.59-.15 1.38-.34 2.38-.56h.22.3q.22 0 .27-.63a21.14 21.14 0 0 0 .31-3.33c.06-1 .08-2.58.08-4.71v-2.23a.36.36 0 0 1 .31-.41c.06 0 .18.17.35.53l.66 1.58a47.23 47.23 0 0 0 3.3 5.82l.88-.14 1-.15a3.52 3.52 0 0 0 .88 0l.66-.11a2.13 2.13 0 0 0 .92-.46 7.35 7.35 0 0 0 1.63-2.22c.41-.83.75-1.56 1-2.21l.22-.59a2.81 2.81 0 0 0 .22-.53l.18-.58.39-1.2.49-1.31c.11-.32.23-.49.35-.51s.31.07.31.32v2.36 2.45 2.27a12.37 12.37 0 0 0 .26 3.06c0 .33.12.48.27.46l.35-.06a.23.23 0 0 1 .13-.07l1.72-.13a6.72 6.72 0 0 1 1-.11h.71l1.1-.13c.94-.09 1.67-.17 2.2-.26a2.4 2.4 0 0 0 .74-.21l.88-.14.8-.13h.3l2-.82.13-.39v-1.91a13.89 13.89 0 0 1 -.08-1.81c0-.45 0-1.13 0-2s0-1.49 0-1.91v-1.63l.09-.93c0-.37.08-1.2.17-2.49s.13-2.45.13-3.48v-2.64q0-4.11-.08-6l-.14-4.44c-.08-.45-.16-.66-.22-.65l-1 .15-.58.09-.43.07-.66.11-7.44 1.19-3.43.55a.16.16 0 0 0 -.13.11.32.32 0 0 1 -.18.16 5.08 5.08 0 0 0 -.39.61 14.65 14.65 0 0 0 -.84 1.55.87.87 0 0 0 -.15.37c0 .17-.11.39-.2.64l-.75 1.76-1.78 4.16-.66 1.61a5.88 5.88 0 0 0 -.22.56 1.2 1.2 0 0 1 -.08.22c-.18.51-.41.79-.71.84s-.45-.17-.66-.63a.37.37 0 0 0 -.11-.18 1.61 1.61 0 0 1 -.2-.45c-.08-.23-.18-.46-.28-.68s-.2-.46-.29-.69a12.43 12.43 0 0 0 -.79-1.83l-.53-1.33c-.35-.94-.63-1.64-.83-2.1s-.32-.79-.42-1-.22-.43-.22-.57a4.32 4.32 0 0 0 -.88-1.09.41.41 0 0 1 -.17-.11.23.23 0 0 0 -.13-.07l-3.43.55-7.49 1.19a6.56 6.56 0 0 0 -1.8.52 2.52 2.52 0 0 0 -.88.59 1.19 1.19 0 0 0 -.35.84.29.29 0 0 0 .06.17.19.19 0 0 1 .07.12v1.18l.09 1.25c0 .85 0 1.8-.09 2.84a22.19 22.19 0 0 0 -.13 2.39v.31a.91.91 0 0 0 .09.49v.97c0 2.22 0 3.81-.09 4.8v1.55c-.06 1.35-.09 2.4-.09 3.16l.09 3.49c0 .87.01 1.56.04 2z" fill="#b20"/><path d="m6.72 106.77 1.28-6.26c-1.91-2.81-7.11-2.77-7.94-.6-.46 1.21 2 1.13 3.61 2.21a6.74 6.74 0 0 1 3.05 4.65z" fill="#b20"/><path d="m13.69 110.57 2.88-12.22 1.89-.28-2.87 12.22 2.5-.37 2.87-12.22 1.89-.28-2.87 12.22 2.51-.37 2.87-12.22 1.89-.28-2.87 12.22 2.51-.37 2.87-12.22 1.89-.28-2.87 12.22 58.08-8.81-.32-2.23 2.8-.41-1.43-9.86-2.79.42-.63-4.31-9.46 1.39-1.25 3.01-34.51 5.33-1.9-1.84-26.85 3.97-3.59 16.57z" fill="#b20"/><path d="m68.05 70.69a4.73 4.73 0 0 0 .76-.17l1-.15c.75-.12 1.24-.21 1.48-.28h.32l3.21-.51h.16l.32-.11 1.13-.18 1.52-.33s.09 0 .2 0 .16.06.32 0h.08l.28-.13.24-.12a7.38 7.38 0 0 0 .49-1.71c.19-.83.3-1.32.33-1.46a6.41 6.41 0 0 1 .2-1.07l1-.16 1-.17a13.94 13.94 0 0 0 1.93-.43 19.84 19.84 0 0 0 1 4c.43-.07 1-.13 1.6-.17a2.18 2.18 0 0 1 .73 0h.28.12a.09.09 0 0 0 .08-.1l.12-.1a.26.26 0 0 1 .24.05v.07l2.33-.46a.65.65 0 0 0 .32 0l.68-.11.84-.14.88-.14a6.35 6.35 0 0 0 .81-.08l.44-.07a.78.78 0 0 0 .56-.51 6.07 6.07 0 0 0 .08-.8 7.76 7.76 0 0 0 -.13-1.31 4.4 4.4 0 0 1 -.12-.77q-.76-3.52-2.09-8.6l-2.88-10.47c0-.14-.09-.26-.28-.37l-.36.06a.86.86 0 0 1 -.4 0l-.2-.05a.49.49 0 0 0 -.24 0l-1.52.24a11 11 0 0 1 -1.17.14l-1.12.18c-.48 0-1 .12-1.49.2l-1.32.21-1.76.37a3.08 3.08 0 0 0 -.77.2l-2.08.38a8.51 8.51 0 0 1 -1.49.11c-.32 0-.8.09-1.44.19a4.7 4.7 0 0 0 -.84.18 2.19 2.19 0 0 1 -.76.24l-.29.05-.24.24a.45.45 0 0 0 -.12.23l-2.73 11.43c-.74 3.06-1.43 6.14-2 9.26a1.45 1.45 0 0 1 0 .32 2.21 2.21 0 0 0 0 .48 3.87 3.87 0 0 0 -.2 1.16c-.11 1-.16 1.44-.16 1.44l.76-.13zm12.76-12.69a8.13 8.13 0 0 1 .19-1.1l.12-.93.32-2 .28-1.75c0-.26.09-.5.12-.71s0-.39.08-.53a2.44 2.44 0 0 1 .08-.37.41.41 0 0 0 0-.15v-.29l.08-.26v.24a.51.51 0 0 1 .08.28l.08.49a1.34 1.34 0 0 1 .12.54c0 .26.06.47.08.63a7.54 7.54 0 0 1 .14.79 8.94 8.94 0 0 0 .18.9c0 .28.07.57.12.88s.11.65.16 1l.33 1.94a2.24 2.24 0 0 0 0 .25l.24 1.37a1.34 1.34 0 0 1 -.49 0h-.26a1.42 1.42 0 0 0 -.34 0h-.12s-.06 0-.12.08l-.12.12-1.76.28c.06.18.17-.41.41-1.7z" fill="#b20"/><path d="m95.62 123.54a8.35 8.35 0 0 0 -5-2.47 17.15 17.15 0 0 0 -5.49 0c-1.19.19-2.7.47-4.53.82l-1.69.32q-1.87.34-5.31.9-2.39.38-3.84.57l-5.26.79a1.3 1.3 0 0 0 -.8.53 1.42 1.42 0 0 0 -.39.89v10.43q0 5.16.13 9.78c.07 2.14.1 4.59.1 7.33a5.09 5.09 0 0 0 .22 1.86c.16.67.49 1 1 .88l3.57-.57c1.25-.26 2.93-.56 5-.9.52-.11 1.45-.28 2.79-.49a3.47 3.47 0 0 0 1.88-.73 2.67 2.67 0 0 0 .64-2.09c0-.66 0-1.19 0-1.59s0-.74 0-1c0-.82 0-1.6 0-2.32l6.27-1q6.16-1 9.28-4.52 3.52-3.78 3.52-11c.06-2.83-.65-4.96-2.09-6.42zm-12.39 7.77q0 1.69-.09 3.09a22.67 22.67 0 0 1 -.55 3.88c-.31 1.31-.78 2-1.42 2.12l-1.28.21h-.55a.55.55 0 0 1 -.23-.11q0-4.36.23-7c.06-1.15.14-2 .23-2.6a13.85 13.85 0 0 1 .91-3.93 2.63 2.63 0 0 1 .3-.53.65.65 0 0 1 .39-.25.9.9 0 0 1 .82.3 2 2 0 0 1 .6.73 6 6 0 0 1 .41 1.29 16.32 16.32 0 0 1 .23 2.23z" fill="#b20"/><path d="m82.39 105.73 1.94-4.13-80.62 12.14c-2.77.41-3.15 5.16 0 5.52 3.67.43 8.61-2.27 10.75 4.18 1.75 5.27-6.52 13.73-8.59 21.34-1.88 6.91-.44 16.06 5.64 15.16l16.12-2.38c2.87-.43 3.37-2.23 2.55-6.82-1.12-6.2-2.29-20 7.05-21.41l11.77-1.74c4.49-.67 4.72-5.74 3.85-9.21a4.14 4.14 0 0 1 3.25-5.06l5.86-.86 1.76-3.74zm-49.28 13.41c-.81 1.83-1.61 3.85-2.37 6a2.53 2.53 0 0 1 -.3 4.93 2.43 2.43 0 0 1 -1.26-.14c-1.77 6-2.88 12.35-2.35 17.49.67 6.34-.26 7.31-3.8 7.83l-9.28 1.38c-5.32.78-6.8-9.15-2.28-16.48 6.18-10 7.06-14.56 5.23-17.87-2.31-4.15-.45-5.75 2.24-6.15l7.66-1.13 2.19-.35a5.11 5.11 0 0 1 3.07.13 3.18 3.18 0 0 1 1.25 4.36zm12.89 7-8 1.18c-6.83 1-3.84-10.94 1.49-11.73l5.82-.86c5.51-.79 9.29 10.16.69 11.43z" fill="#b20"/><path d="m41.79 116.22-1.52.23a5.24 5.24 0 0 0 -4.51 4.55 4.2 4.2 0 0 0 2.88 1c.37 1.4 2.59 3.51 4.55 3-2.75-1.78-2.73-6-1.4-8.78z" fill="#b20"/><path d="m31.36 115.6a5.11 5.11 0 0 0 -2.43 0l-1 .16-1.2.19-7.66 1.13a3 3 0 0 0 -2.29 1.19c-.36.74-.1 1.95.76 3.5 2.21 4 .78 9.09-5.25 18.87-3.08 5-3.12 11-1.4 13.63a2.62 2.62 0 0 0 2.71 1.35l9.28-1.37c1.7-.26 2.4-.57 2.76-1.23.46-.87.52-2.52.21-5.53a43.4 43.4 0 0 1 1.48-14.55c.29-1.18.62-2.38 1-3.6a2.61 2.61 0 0 1 -.72-1.43 2.53 2.53 0 0 1 2.1-2.91c.75-2.14 1.59-4.26 2.49-6.3s-.4-2.84-.84-3.1z" fill="#b20"/></symbol><use height="160" width="240" xlink:href="#a"/></svg>