<svg viewBox="0 0 240 160" xmlns="http://www.w3.org/2000/svg"><path d="m25.93 63.32.09.74-.18.73-.06.79.18.81-.17.79-.1.79v.66l.12.66.08.66v.67.66l-.19.69.26.68-.21.69.25.66-.12.66.09.66v.16l.07.8-.06.81.47.65-.09.28.43.41.42.4.41.09.21.37.33.21.3.25.4.09.34.19.37.13.21.39.57.14.52.17.62.23h.64l.64.07h.18.33l.8-.32.82-.22.94.09.64-.06h.63l.62-.17.58-.35.62-.13.63-.09h.65l.64-.16.61-.38.68-.12.37.17.27-.24.8-.1.42-.68.46-.6.22-.75.14-.76v-.78l.22-.75.22.34.35.17.35.18.37.15.65.56.85-.06h.81l.77-.28 1.07.11.62-.21.66-.08.62-.25.41-.58h.19l.13-.12-.1.23.36.07h.08l.2.28.13-.08.21.28h.05l.32.1v.08l.31.11v.15l.34.07v.11l.28.17-.06.17.32.14.18-.14.64.57.86-.12h.35.31l.65-.22.68.09h.16l.7-.07.61-.21.22.18 1-.28.75-.07h.77l.72-.26.92-.3.85-.14.88.09.36-.38.67-.17.71-.1.58-.4.4-.38.45-.32h.14l.29-.19.64.19.57-.26v.13l.85-.22.8-.11.78-.08.75-.17.63-.31h.68l.65-.19h.69l.67-.08h.47l.16-.14.91-.11.08-.13 1-.1h.92l.39-.29.42-.15h.31l.51-.37.42-.36.3-.6.16-.65.07-.68.2.06.36.13.2.43.31.22.36.16.34.17.32.23.28.28.71.37.8-.11h.7l.69-.07.15-.16.16.08h1l.19-.23.25.11.63-.09.63-.12.62-.11.54-.16.73-.14h.75l.71-.26.89-.09h.43l.67-.26.67-.33.54.3.59.14.3-.14h.78.81l.68-.36h.74.74l.7-.2h.74l.72-.18h.73l.35-.37.55.07h.4l.93-.15.81-.18.82-.16.6-.23.54-.36.23-.6.19-.75.35-.74v-.8l.23-.78-.2-.72.08-.71.12-.71v-.65l.8-.26.1-.23.33.11.81-.41.88-.13-.16.3v.71l.23.68v.69l.13.67.13.72.49.54.3.23.35.18.21.37.3.24.41.09.22.37h.43l.31.24.32.22.53.43.68-.06.19.15h.71.17l.59-.37.7.15.63-.15.11-.12.81-.41.7.21.64-.18h.67l.65-.15h.67l.62-.44 1 .26.51-.36.19.08h.81l.69-.42.57-.55.17-.06.18-.85.19.1.61.24.61.11.28-.07.63.06h.62v-.25l.9.06.79-.15.73-.34.8.07.64-.21.66-.17.67-.08h.68l.67-.07.42-.21.19-.08.9-.18.09-.07 1-.16 1 .18.36-.4.39-.17.24-.12.58-.19.34-.49.2-.64.15-.64.22-.63.11.11.29.27.38.11.28.29.42.06.29.25.3.02.37.15.61.49.76-.12h.7l.7-.11.17.13.15-.07.52-.12.43.19.2-.26.22-.09h.64l.66.08.59-.36.59.2.69-.39h.75.76l.87-.21.42-.12h.7l.44-.55.55-.39.41-.54v-.55-1.06-.84l-.27-.8-.05-.36v-.39l.08-.75-.25-.68-.09-.71-.23-.69-.22-.69-.17-.69v-.73l-.35-.65-.08-.73-.25-.68-.2-.68-.27-.69-.12-.73-.21-.7-.24-.7.07-.79-.38-.66-.06-.75-.31-.68v-.76l-.46-.65-.17-.71v-.77l-.38-.66-.17-.73v-.76l-.17-.71-.58-.45-.51-.48-.13.06-.2-.26h-.1l-.13-.37h-.11l-.32-.06v-.15h-.36l-.06-.08-.21-.23-.06-.05-.2-.27h-.12l-.22-.22-.16.09-.13-.36h-.09l-.29-.11-.63-.14-.65-.19-.14.06-.14.06-.85.06-.74.08-.77-.07-.9.28-.22-.13-1 .37-.74.07-.74.12h-.7-.7l-.77.37-.79.23h-1l-.57.22-.6.14-.64-.11-.52.25h-.55l-.18-.2-.78.08-.75.33-.59-.05-.57.12-.21.35-.2-.16-.26.09-.92.52-.42.47-.34.5-.37.53-.13.61-.06.63-.19.59v.08l-.38-.13-.36-.15-.32-.22-.3-.25-.38-.13-.3-.25-.24-.33-.34-.18-.64-.42-.76-.07-.65.09-.64.18-.65.11-.67-.14-.76.13h-.51l-.47.08h-.86l-.86.09-.66.08-.52.13-.54-.06-.26.17h-.62-.6l-.62-.15-.78.23-.75.26-.71.13-.64.37-.3.67-.27.63h-.07l-.37-.14-.25-.32-.64-.43h-.79l-.74-.22-.22.21h-.26l-.7.12-.71.11-.69.24-.73-.07-.68.27-.75-.12-.68.24h-.72l-.68.29-.74-.07-.72.06-.69.18-.93.23h-.12l-.37.06h-.06l-.37.1-.85.17-.86.07h-.64l-.25.15h-.76l-.82.13h-.84l-.57.22-.59.12h-.29l-.17.1-.33.17-.18-.12-.56.46-.67.26-.22.57-.41.51.16.65v.78l-.22.75-.3-.47-.23.21-.24-.18v-.09l-.23-.21h-.07l-.17-.31v-.05h-.37-.06l-.27-.14v-.18l-.23-.22h-.09-.35l.06-.24h-.37v-.1l-.28-.14-.68-.48-.66.15h-.15l-.14-.15-.87.06-.77-.06-.71.26h-.93l-.2.1-1 .15-.75.06h-.75l-.67.18-.64.32-.81.17h-.84l-.92.36-.59.15-.65-.13-.58.19h-.55l-.55.08h-.17-.78l-.77.21-.59-.07-.52.27-.29.18-.13.1h-.28l-1 .27-.45.51-.24.72-.08-.84v-.86l-.16-.31-.2-.78-.4-.69-.66-.43-.2-.29-.37-.15-.25-.31h-.47l-.23-.35-.36-.16-.37-.13-.34-.21-.61-.57-.8.21-.75-.09-.72.13-.69.31-.75-.06-.69.29h-.73-.74l-.73.07-.72.12-.7.26-.73.12-.7.22h-.74l-.71.19-.73.1h-.74l-.72.17-.73.09-.75.17-.55.54-.22.15-.54.86-.39.81-.33.83-.37.74-.08.44-.47.64-.33.7-.08.81-.4.69-.44-.85-.37-.55v-.16l-.39-.55-.47-.4-.5-.43-.13-.24h-.08-.11l-.18-.19h-.1l-.13-.25h-.09v-.11l-.24-.09v-.17h-.07l-.25-.08v-.06-.1h-.31v-.1l-.15.08-.22-.26h-.06-.09l-.17-.18v-.13l-.19.15-.15-.22h-.09v-.07l-.2-.15-.71-.47-.83.1-.73-.05-.68.21-.68.15-.69.18-.7.09h-.72l-.69.11-.68.26-.73-.06-.68.16-.68.22-.7.14-.71.08-.69.19-.73-.1-.73.33h-.81l-.66.44-.8.4-.66.59-.47.62-.34.7-.05.79.06.75.24.78-.21.56.21.55-.05.64-.15.62-.08.63.23.66-.19.82v.84l-.15.83.25.25v.19.65.56l-.09.76.12.77-.09.76.19.77-.1.76zm89.24-13.79-.37-.17h.63l.1.45z" fill="#200"/><path d="m161.63 87.42-.33.19h-.78l-.76.12h-.76l-.35.29-.79.17-.23-.2-.37-.16-.37-.14-.2-.37-.33-.21-.35-.17-.34-.19-.36-.16-.36-.17-.74-.77h-.3l.6-.28.66-.07.77-.3.65-.16.67-.06.12-.19.69-.13.61-.36.38-.59.46-.56-.11-.71v-.66l.09-.72v-.72l-.12-.71-.21-.69.07-.72-.24-.82-.29-.73-.45-.51-.59-.3-.29-.27-.23-.35h-.48l-.31-.24-.25-.31-.38-.12-.28-.28-.34-.18-.61-.35-.65-.34h-.74l-.39.12-.7-.24-.72.29h-.76l-.7.34-.77-.06-.74.14-.74.18-.73.13-.72.23-.75.06-.66.42h-.8l-.7.25-.66.39-.76.1-.66.37-.67.34-.65.38-.69.29-.62.44.08-1 .11-.48-.15-.15.13-.7-.12-.69-.3-.66-.48-.53-.55-.19-.28-.29-.33-.19-.4-.1-.23-.31-.35-.16-.24-.34-.29-.27-.34-.18-.58-.39-.7-.12-.69.06-.81.3h-.79l-.45.17-.65.25-.58-.13-.52.21-.22.08h-.67l-.77.12-.74.25-.75.26h-.78l-.29.12h-.31l-.15-.14-.2.24h-.74l-.7.23-.71.18-.14.06-.73.19-.55.19-.64.19-.37.55-.1.86-.51.73.13.21-.32.82v1l-.35-.47-.27-.53-.41-.5-.33-.2-.37-.13-.32-.22-.36-.15-.3-.25-.31-.23-.4-.09-.2-.4-.76-.19-.74-.06h-1l-.33.21-.74.09-.77-.15-.7.3-.44-.12-.18.15h-.18l-.55.16-.47.1-.67.07-.66.11h-.68l-.66.11h-.69l-.66.12-.77.16-.78.07-.77.21-.62.07h-.5-.76l-.73.31h-.66l-.62.26-.36.57-.42.51-.24.62-.02.85v.71.69l.06.7.34.63-.11.26.2.76.23.7v.75.74l.36.68.13.72.09.73.31.68v.75l.25.69.26.69v.75l.17.7.29.68v.74l.38.65v.73l.29.68.17.71v.75l.35.68.09.72.13.72.06.74.26.69.11.73.11.72.37.67v.75l.09.73.2.7.29.69.1.73.07.74.12.73.21.72.54.51.58.43.35.16.29.27.38.13.24.34.26.3.41.08.26.3.29.26.73.17.78.23h.3.22.36l.53.06h.66.41l.48-.33h.74l.71-.21.72-.1.72-.14h.73l.7-.21h.74.73l.7-.23.72-.1.71-.14h.74l.7-.27h.73l.69-.24.71-.16.72-.07.72-.13.7-.16.7-.21.72-.09.7-.17h.86.75.75l.61-.13.49-.39.21.12h.13l.58-.25.49-.38.51-.42.26-.62.19-.62.27-.72v-.77l.3-.71v-.78l.23-.72.17-.63.1.61.13.71.22.35.22.79.66.47.4.09.37.14.19.41.39.11.28.28.41.08.25.33.36.14.76.5.68.12.67.14v-.09l.71.18h.74l.74-.11.81.24.4-.17h.18l.35.09.71-.09.67-.32h.73l.68-.27.72-.05h.72l.72-.09.69-.23h.69l.65-.25.65-.25.6-.34.66-.21.71-.22.52-.54.63-.36.6-.4.62-.37.53-.35.53-.37.41-.49.45-.43.11.17.35.19.41.09.22.35.37.15.4.1.2.38.36.13.69.54h1.09.71l.68-.26.5-.12.18.22.73-.27.7-.08.71-.12.7-.09.69-.21h.33l.69-.1.72-.25h.67l.24.07.21.08.76-.37.69-.23.59-.4.63-.41.3-.69v-.75-.35-.07l.16-.38v-1l-.08-.66.08-.67-.06-.76.06-.77-.12-.76-.16-.69-.07-.7-.22-.78-.06-.79-.46-.64-.61-.51-.38-.13-.3-.24-.27-.29-.42-.07-.23-.35-.29-.25-.29-.26h-.42l-.38-.48-.6-.26-.69.12-.69-.07-.26-.07-.93-.07-.13.13h-.28l-.46-.21-.19.11h-.22l-.17.03h-.43l-.94.12zm-26.24 4.58.66.31v.21l.71.61v.13h.34v.15l.25.17h.11l.29.09v.21l.25.17h.1l.26.15h.12l.27.11v.24h.24l-.66.11-.66-.13h-.66l-.66-.1-.62-.25h-.83l.32-.74.2-.74z" fill="#200"/><path d="m237.81 120.89-.38-.56-.4-.5-.43-.47-.37-.51-.41-.48-.2-.11-.4-.35-.29-.73-.53-.46.6-.37.4-.49-.06-.22.39-.55.36-.57.46-.54.08-.7.04-.68.17-.65.26-.65-.17-.69.21-.77-.3-.73.06-.78-.2-.75-.39-.66-.34-.69-.44-.63-.69-.38-.06-.14-.22-.14-.13-.02-.21-.16-.07-.11-.31-.03-.05-.14-.16-.22-.09-.09-.34.02-.05-.14-.25-.1.02-.25-.33.01-.08-.09-.24-.12-.05-.14-.2-.17-.19.06-.45-.59-.72-.11-.57-.46-.72-.03-.66-.17-.66-.27-.73.19-.67-.19-.7.07-.69-.16-.7.11-.73-.05-.73-.04-.73.05-.73.06-.72.12-.74-.07-.72.13-.7.28-.74.01-.72.08-.72.2-.74-.05h-.74l-.7.24-.74.04-.71.21-.73.07-.73.06-.74.08-.62.28h-.69l-.53.43-.66.29-.63.36-.19-.18-.62-.18-.58-.18-.63-.13-.72.16-.67.16-.69.09-.69.1-.71-.07-.66.25-.67.15-.78.05-.7.32-.74.23-.48.09-.58.1-.34.01-.26.02-.8.02-.79.09-.76.32-.81-.17-.67.2-.68.16-.7-.08-.7.07-.67.19-.72.03-.71.11-.67.37-.37-.13-.54.2-.48.35-.94-.31-.5.05-.88.12-.86.29-.8.06-.79.14-.96.06-.85.33-.7-.11-.71.07-.78.17-.47.36-.71.04-.66-.01h-.64l-.12.26-.75-.08-.69.28-.72.12-.72.15-.75-.07-.72.11-.73.05-.7.27-.72.14-.71.19-.76-.12-.59.34-.61.15h-.65l-.64.08-.68.1-.69-.02-.65.42-.52.46-.15-.05-.76-.1-.78-.02-.61.14-.63.06-.95.12-.2.08-.53.12-.53.13-1.04.22-.79-.08-.75.12-.74.23-.71.19-.64.35-.67.33-.47.55-.43.56.09.05-.37.47.03.61-.16.02.04-.12-.38-.07.06-.14-.29-.25-.04.04-.31-.2v-.03l-.26-.3-.06.09-.3-.24-.03.04-.29-.24-.04.03-.37-.06.09-.2-.38-.09.01-.06-.35-.12-.66-.41-.79-.03-.18.18-.74.09-.72.19-.88.14-.87.18-.65.25-.69.09-.69.05-.67.12-.66.2-.66.04-.64.16-.57.33-.48.36-.09-.2-.05.07-.74-.3-.79-.09-.67-.06-.64.2-.62.27-.66.01-.77.03-.52-.06-.43.3-.88-.03-.83.28-.65.1-.54.04-.53.2-.25.01-.61.05-.6.05-.59.14-.82-.02-.73.33-.74.32-.58.56-.31.72-.35.75.2.87-.13.86-.32-.15-.04-.09-.2-.25-.16.1-.12-.39-.16.11-.23-.21-.01-.12-.33-.06-.07-.04-.3-.09.01-.16-.29-.14-.06-.04-.25-.18-.14.05-.11-.39-.2.16-.11-.39-.69-.13-.64.13-.17-.17-.11-.09-.88.22h-.76l-.7.28-.94.1-.22-.19-1.03.21-.73.17-.76-.04-.67.18-.68.13-.8.22-.82.11-.96.19-.56.28-.61.03-.59.17-.57-.04-.55.13-.16.02-.76.14-.81-.08-.58.03-.55.18-.34.09-.05.23-.3-.14-.91.55-.54.4-.11.35-.27-.61-.48-.45-.56-.35-.57-.32-.51-.41-.23-.09-.31-.23-.36-.15-.22-.38-.32-.21-.34-.18-.23-.09-.65-.35-.53-.54-.76-.11-.59-.51-.71-.23-.76.02-.71-.17-.73-.1-.73-.19-.74-.11-.75.24-.73.02-.75-.12-.73.17-.74.07-.74.11-.75.02-.71.32-.74.06-.75.08-.76.05-.76.42-.85-.04-.71.2-.71.16-.71.2-.74.06-.71.21-.76-.1-.74.08-.72.2-.73.17-.73.19-.76-.07-.73.14-.7.27-.76-.16-.72.15-.69.35-.75.01-.71.19-.77-.11-.7.36-.61.45-.71.39-.29.74-.43.66-.06.78-.08.71.17.72.05.71-.21.72.26.71-.13.72.04.72.01.72-.18.71.26.72-.04.72-.14.72.18.72-.01.73-.19.73-.05.74.16.73-.15.73.27.73-.06.73.01.73-.09.73.17.73-.15.73-.08.73.16.72-.08.73.17.69-.09.7.08.7.01.7.12.7-.04.7-.23.7.01.7.15.7-.13.71.22.81.14.8.2.76.16.76.44.64.59.51.32.2.41.1.2.38.32.21.43.06.31.23.21.38.37.14.75.52.92.13.42-.3.72-.02.7-.14.73.03.69-.21.7-.2.7.05.65-.25.68-.14.67-.2.7.01h.7l.67-.21.12.01.61-.27.64-.11.67.02.63-.25.81.09.73-.28.66-.41.63-.44.6-.5.27-.73.26-.7.06-.76.05-.76.06-.73.05-.73v-1.06l-.01-.46.68-.16.72-.16.71-.24.73-.16.73-.11.75.01.72-.02.68-.18.64-.34.67-.19.72-.06.61-.39.65-.25.68-.19.67-.21.58-.41h-.1l.07.68-.28.62.15.67-.11.65-.03.89.61.64.43.27.18.44.38.11.39.12.33.21.28.27.27.3.38.12.24.33.65.2.63.22.3-.09.6-.14.62.04.82-.39.83.04.77-.13.76-.13.66-.04.64-.2.66-.12.65-.18.67-.05.53.01.11-.33.94.08.09-.07 1.01-.3.96.14.45-.12.38-.27.16-.25.43-.34.36-.43.37-.55.11-.65.16-.66.2.08.37.14.24.34.39.11.26.31.41.07.32.22.22.38.7.34.77-.08.71.02.69-.07.16-.06.16-.02.55.1.36-.23.23-.1.27.21.61-.15.63-.13.62-.18.54-.07.76.01.72-.19.74-.1.89-.09.42-.09.91-.41-.01.21.67.03.56.35.29-.3.73.08.16-.05.59-.28.66-.06.6-.29.11-.03.85-.26.65-.14.67-.02.65-.08.67-.03.65-.16.57-.38.07-.05h.99l.58-.04.15.04.76-.28.59-.54.63-.46.08-.17.91.28.74.24.74.19.26-.19.3.01.68-.06h.71l.66-.25.72-.09.69-.24.74-.02.7-.2.76.03.7-.22.69-.23v-.08l.31.1.73-.4.77-.36.37-.71-.02-.47.3-.82-.03-.42.02-.09.04.17.42.06.37.14.25.32.33.21.35.18.28.26.35.19.6.42.71.22.81.01.82.06.49-.16.71-.07.71-.04.68-.28.72-.04.71-.09.71-.05.71-.16.71-.15.74.04.72-.26.64-.23.45-.53.34-.56.21-.63.33-.59-.05-.24.05-.69.05-.69.1-.61.26.99.76.64.33.2.38.13.27.29.43.04.2.41.38.12.35.16.35.18.49.44.64.02h.3l.66-.22.7-.04.72.09.65-.3.68-.15.69-.13.71.04.69-.02.68-.18.67-.23.68-.17.7-.04.63-.09.6-.27.67-.2.53-.45.46-.5.32-.61.26-.65.15-.7.16-.7-.23-.72.22-.72-.02-1.03-.05-.3-.03-.67.13-.66.04-.65.18-.65-.14-.66.06-.65v-.66l-.06-.56.12-.57.01-.18.09-1.01-.17-.6-.01-.6.23-1.04-.14-.22.31.02-.09.21.26.87-.18.89.12.96-.1.7.05.69.09.76.1.76-.05.77-.09.78.36.78.24.78.17.8.21.51.07.61.39.47.34.55.56.3.29.27.35.18.27.29.42.05.22.38.39.11.34.18.29.26.54.44.69.04.31-.03.69-.25.76.15.69-.33.74.05.7-.24.74.01.72-.13.69-.28.75.07.72-.13.73-.11.7-.21.74.04.72-.17.73-.09.72-.15.7-.28.69-.3.55-.17.57.12.75-.16.27.03.8-.03.76-.26.51-.22.41.07.54-.32.64-.2.13-.49.45-.32.08-.11.19.38.93.36.62-.01.56.32.35-.07.29-.11.14.1.76-.15.67-.01.66-.14.68-.19.69-.14.68-.2.74.06.65-.36.74.02.68-.19.69-.19.72-.08.27-.13.6-.25.64-.28.34-.6.11-.67.1-.53.11-.98.7.59.04-.06.18.31.07.01.09-.13.19.29.03.05.15-.18.12.38.19-.15-.06.08.26.18-.02.13.14-.18.15.35.08-.01.07-.09.15.33.12-.05-.04.04.27.19.17-.12-.16.2.35.07v.1.01l.39.02-.11.25v-.01l.61.07.49.19.87.1.71-.53.58-.29.66-.15.48-.46.58-.3.62-.43.61-.43.51-.57.58-.46.48-.52.66-.4.5-.59.62-.45.46-.62-.06-.27.23-.69.05-.73-.32-.53z" fill="#200"/><g fill="#b20"><path d="m217.67 21.39.76.04.77.11.72-.34.77-.08.65-.44.78-.01.74.08.76.06.72.24.56.51.36.66.53.55.38.64.69.21.69.04.67-.16.66-.22.6-.37.28-.66.32-.61.36-.62.15-.71.28-.68.03-.74-.06-.73.14-.72-.01-.74-.09-.71-.3-.7.08-.73.22-.76.63-.49.49-.59.75-.16.73.11.78.21-.22-.8-.29-.72-.67-.42-.6-.45-.73-.16.33-.61.49-.52.4-.6.12-.71.24-.68-.13-.72v-.69l-.05-.7.08-.74-.3-.66-.41-.58-.32-.62-.41-.6.18.74-.01.74-.11.72-.22.69-.2.69-.21.72-.49.56-.63.41-.56.45-.59.42-.62.39-.71.2-.63.38-.64.38-.72.15-.7.23-.71.16-.7.24-.71.21-.7.18-.67.27-.77.02-.7.24-.61.44-.61.39-.61.39-.59.43-.64.36-.49.54-.56.49-.4.63-.2.72-.05.73-.36.68.05.74.05.72.1.72.29.67.55.49.52.46.52.57z" opacity=".8"/><path d="m184.53 97.48.38-.62.27-.67.44-.58.35-.63.27-.67.42-.59.35-.63.12-.76.56-.51.39-.61.24-.68.26-.68.43-.59.43-.58.28-.67.18-.72.38-.61.45-.57.43-.59.37-.62.15-.74.32-.64.41-.6.51-.54.2-.71.37-.61.29-.67.34-.64.51-.54.1-.77.61-.5.28-.66.31-.66.24-.69.49-.56.17-.72.53-.54.34-.64.16-.73.58-.51.11-.75.46-.58.33-.64.46-.57.13-.74.57-.52.17-.72.35-.63.44-.58.24-.69.43-.58.36-.63.35-.62.2-.71.49-.56.31-.64.31-.65.44-.58.25-.68.42-.59.24-.69.35-.62.44-.58.32-.64.29-.66.42-.59.22-.69.36-.62.21-.7.55-.51.28-.66.31-.65.35-.62.36-.62.37-.62.28-.66.3-.66.25-.68.4-.6.31-.65.29-.65.55-.52.29-.66.24-.68.33-.63.36-.61.3-.65.31-.64.28-.65.41-.59.2-.7.49-.56.3-.64.24-.68.46-.56.13-.73.4-.58.28-.66.36-.61.21-.69.5-.53.25-.69-.66-.17-.66-.04-.65-.11-.56-.37-.61-.24-.5-.43-.5-.41-.58-.31-.58-.34-.33-.54-.48.5-.23.71-.51.52-.39.6-.21.71-.41.59-.32.65-.37.61-.32.63-.49.54-.11.75-.47.56-.35.62-.31.64-.24.67-.34.63-.3.65-.32.63-.38.61-.31.64-.35.62-.24.68-.31.64-.35.63-.38.6-.43.59-.32.64-.28.66-.39.6-.27.67-.14.73-.39.6-.41.6-.15.72-.41.6-.37.61-.19.71-.48.56-.12.74-.35.62-.33.64-.38.61-.12.73-.37.61-.47.57-.14.72-.33.64-.29.65-.33.63-.32.65-.45.57-.24.68-.18.71-.48.56-.09.75-.34.63-.35.63-.39.61-.19.7-.34.64-.36.62-.4.61-.08.75-.44.59-.19.7-.43.59-.37.62-.17.71-.24.68-.33.63-.32.65-.51.55-.07.76-.36.63-.37.61-.22.7-.35.62-.41.61-.35.63-.18.71-.2.7-.56.53-.12.75-.38.61-.29.66-.22.69-.5.56-.32.65-.28.66-.15.73-.48.57-.27.67-.36.63-.23.69-.16.72-.36.63-.43.61-.27.67-.41.61-.32.65-.21.71-.25.69-.3.66-.1.71.08.73.49.54.64.33.73.14.69-.26.55-.46z" opacity=".8"/><path d="m183.05 76 .58-.45.4-.65.74-.22.57-.45.66-.23.71-.16.64-.42.73-.09h.74.68l.35-.6.29-.67.25-.69.51-.57.26-.69.27-.68.25-.69.41-.61.29-.67.28-.68.28-.67.39-.63.31-.66.15-.73.46-.59.36-.64.23-.7.21-.7.31-.66.45-.59.27-.68.24-.69.35-.64.33-.65.38-.62.31-.66.2-.71.28-.67.3-.67.46-.59.36-.63.29-.67.23-.7.48-.58.2-.7.22-.7.29-.65.47-.57.29-.67.26-.68.5-.56.2-.71.19-.72.55-.53.12-.74.42-.6.29-.66.43-.59.33-.64.37-.63-.23-.22-.11-.74.09-.75v-.76l.22-.73.61-.5.43-.6.6-.47.71-.29h.14l.45-.57.24-.71.44-.6.31-.67.46-.58.24-.72.57-.51.24-.67-.52-.47-.61-.38-.59-.42-.73-.19-.5-.56-.64-.34-.68-.25-.67-.27-.56-.5-.64-.33-.73-.13-.67-.26-.57-.51-.66-.3-.68-.25-.71-.13-.72-.12-.65-.33-.69-.22-.73-.06-.69-.21-.7-.14-.71-.12-.78-.12-.69-.23-.69-.22h-.73l-.71-.2-.73.18-.71-.14-.73.11h-.71-.72l-.74-.12-.69.33-.71.08-.71.11-.74-.07-.67.3-.69.21-.67.26-.71.13-.7.2-.61.4-.63.34-.61.37-.65.31-.66.31-.55.47-.47.56-.63.36-.51.51-.56.46-.42.58-.56.48-.25.71-.5.52-.52.52-.32.65-.29.66-.3.66-.37.61-.25.67-.48.57v.77l-.3.64-.28.66-.4.63-.16.7-.07.73-.24.68v.73l-.17.69-.24.69-.22.69.06.73-.25.7-.07.71.16.73-.12.71-.2.71v.72l.05.72.21.72-.09.71-.1.72.14.72v.72l-.07.72.26.7.12.71-.11.73.3.69.11.71-.13.74.34.67.15.71v.74l.14.7.32.67.06.72.06.73.41.63.06.73.11.72.2.69.41.62.07.73.31.65.24.68.31.64.12.73.49.57.15.71.26.66.51.56.27.67.26.69.51.55.37.62.27.63.53.51.32.69.65.36.5.55.64.35.71.17.7.13.69-.19.74-.07.52-.5.59-.4zm14.85-45.55h.75l.76-.2.68.39.73.16.59.44.45.56.61.51.23.73v.75.73l-.22.7-.22.69-.3.68-.61.44-.49.52-.58.41-.67.31h-.69-.67l-.68-.12-.65-.2-.57-.4-.56-.38-.63-.34-.32-.63-.3-.61-.3-.61-.17-.71.12-.72.4-.6.35-.61.43-.57.59-.42.62-.35.67-.22zm-5.66 36.63-.39.65-.22.76-.69.38-.51.54-.68.3-.72.15-.71.35h-.77l-.73-.21-.71-.28-.6-.46-.53-.47-.48-.53-.17-.71-.34-.62-.29-.64-.25-.67v-.71l-.11-.7-.07-.7v-.71l.17-.7.15-.68.09-.73.49-.54.49-.49.52-.47.67-.37.75-.09.72.23.71.2.69.28.58.48.53.51.44.59.45.58.51.55.4.63.32.68.11.75.14.72.14.72.1.74zm-6.38-39.55h.7l.71-.15.61.42.67.14.58.38.51.45.68.29.43.56.31.64.23.66v.69.69l-.12.69-.46.54-.29.61-.38.57-.43.54-.6.33-.58.35-.64.25-.73.11-.72-.16-.71-.2-.74-.16-.53-.55-.51-.53-.54-.51-.46-.6-.24-.72.06-.77v-.74l.11-.76.32-.68.4-.65.52-.54.55-.5.57-.5z" opacity=".8"/><path d="m216.74 51.61-.7.19h-.74l-.69-.28-.7-.2-.61-.4-.49-.55-.3-.72-.21.75-.42.58-.3.64-.41.58-.24.68-.31.64-.35.61-.31.64-.58.49-.15.73-.41.58-.32.64-.33.63-.43.57-.33.63-.31.65-.27.66-.46.56-.3.65-.32.63-.37.61-.32.64-.27.66-.21.69-.6.48-.24.68-.39.6-.14.74-.55.51-.29.65-.31.65-.32.64-.27.67-.47.59-.22.69-.54.52-.18.71-.54.53-.2.71-.38.61-.23.69-.39.61-.51.54-.11.76-.51.55-.17.67.18.64.31.65.1.72.13.7.3.67.13.71.19.69.12.71.38.63.15.71.45.57.26.66.42.58.36.61.41.58.39.61.59.42.48.53.68.28.49.56.64.32.64.34.71.15.7.16.71.11h.72l.71.06.7.31h.72.72l.7-.17.7-.12.69-.19.68-.2.7-.15h.73l.7-.13.69-.2.63-.35.69-.2.68-.25.64-.32.62-.36.72-.17.59-.43.69-.23.57-.45.67-.29.46-.6.55-.45.52-.49.62-.4.54-.49.31-.68.4-.6.39-.59.37-.61.43-.58.49-.56.27-.67.1-.74.25-.67.41-.61.29-.66.24-.69.12-.71.07-.72.37-.66-.11-.75.23-.69.07-.72.21-.7.07-.72v-.72l-.07-.73v-.72-.71-.72l.17-.73-.12-.71v-.86-.72l-.08-.71-.22-.7.11-.73-.26-.69v-.73l-.08-.71-.08-.72v-.73l-.26-.68-.24-.68-.16-.71-.05-.73-.19-.69-.16-.71-.35-.65-.32-.65-.11-.73-.25-.67-.36-.64-.2-.69-.33-.64-.11-.74-.31-.65-.24-.7-.51-.56-.09-.76-.34-.63-.47-.57-.31-.65-.32-.66-.34-.63-.4-.6-.36-.63-.39-.61-.53-.52-.3-.66-.3-.68-.4-.6-.56-.42-.37-.55-.47-.48-.39-.53-.41-.64-.37.74-.3.69-.36.65-.43.61-.28.69-.26.71-.32.68-.32.67-.4.63-.44.73.79-.07h.71l.63.3.67.25.53.48.37.61.34.62.05.71.2.68.1.73-.4.63-.12.72-.44.58-.6.41-.62.38zm3.26 31.73-.74.18h-.78l-.71-.32-.72-.26-.62-.44-.49-.6-.25-.73-.42-.66v-1.46l.22-.68.14-.71.32-.65.46-.56.52-.51.75-.13.59-.42h.73l.75.1.7.3.53.53.51.55.43.6.38.66.09.76.15.69v.71l-.17.69-.23.66-.34.63-.45.59-.76.1zm3.53-10.13-.69.18h-.72l-.64-.34-.63-.32-.51-.5-.35-.62-.15-.7-.38-.62v-.71l-.07-.69.11-.69v-.71l.18-.69.34-.62.43-.58.72-.17.57-.44h.7l.68.11.63.29.47.5.46.49.42.55.38.58.13.68.23.65.12.68v.69l-.07.69-.16.68-.27.68-.71.26-.54.43zm.9-16.07.16.68v.71l-.31.63-.24.66-.4.57-.52.47-.64.28-.53.48-.7.11-.75.14-.75-.13-.76-.07-.71-.3-.61-.48-.54-.56-.12-.79-.43-.64v-1.45l.13-.71.33-.65.32-.63.38-.59.47-.55.67-.27.64-.28.71-.08.71.12.69.19.68.27.69.32.32.73.53.5.28.67z" opacity=".8"/><path d="m216.7 30.42.65.32.71.16.72.03.69.14.71.1.7-.06.68-.2.68-.17.73-.1.62-.38.63-.33.41-.64.63-.35.53-.48.37-.62.44-.56.57-.47.27-.68.44-.61-.58.16-.64-.06-.7-.25-.66-.28-.52-.5-.51-.52-.35-.63-.3-.51-.43-.47-.88.04-.84.18-.64.3-.69.16-.69.11-.7.1-.7-.16-.73.06-.69-.31-.65-.33-.62-.37-.65-.37-.45-.5-.17.64-.25.7-.2.72.03.74-.11.74.01.74.26.71.12.72.3.66.24.71.49.57.64.37.45.63z" opacity=".8"/><path d="m27.95 73.25-.18.68.16.66.11.67-.07 1.01.05.46.19.22.6.06.62.24.64.09.27-.26.8.06.83-.21.69.03.78-.19.79-.16.77-.28.59-.13.6-.16.63.05.77-.15.71-.39.8-.01.21-.01.29-.08.37-.59v-.81l.11-.8-.07-.81.1-.8-.03-.76.17-.75.03-.75-.03-.76v-.76l.03-.76.01-.68.07-.69-.03-.69.23-.26.19.43.55.67.28.77.37.62.28.67.22.7.29.66.47.56.43.58.19.73.39.6.48.5.85-.06.92-.24.86.07.62-.19.82-.51.47-.45.43-.5.31-.58.33-.57.41-.67.32-.71.22-.75.41-.48.03-.58.3-.52.13-.6.32-.53.15-.66.17-.65.39-.54.4.37v.76l-.01.76.02.76-.14.79.14.78-.05.79.16.73-.05.73-.05.73.08.75.06.73.04.74.07.73.28.46.32-.13.13-.1.83-.03.82-.13.95.08.68-.08 1.04-.27.73.08.71-.06.71-.05.72-.24.82-.26.78-.02.29-.08.59-.37.65-.23.66-.2.09-.36-.09-.48.13-.63.15-.65-.12-.86-.11-.87-.09-.66-.01-.65-.05-.66.21-.62-.23-.61.17-.61-.15-.77-.06-.77.23-.89.05-.79-.05-.81.11-.8.13-.67-.01-.68-.08-.67.22-.66-.12-.68.17-.63-.26-.64.07-.64.18-.63-.07-.73-.02-.72.09-.73-.18-.72-.03-.73-.03-.72.07-.72.02-.72-.13-.71-.09-.7.22-.72-.13-.72-.07-.71.02-.72-.21-.54-.94.12-.58-.11-.38.35-.65.02-.74-.08-.69.29-.71.14-.71.15-.71.15-.71.12-.77-.17-.69.29-.73.04-.73.04-.65.17-.63.26-.69-.04-.66.14-.66.1-.23.08-.11.16-.44.58-.35.77-.42.74-.09.39-.15.63-.4.5-.05.65-.23.57-.34.64-.33.64-.19.7-.41.62-.27.68-.25.68-.25.81-.3.78-.28.51-.1.2-.28.47-.36.47-.62-.73-.13-.17-.32-.39-.27-.65-.18-.7-.2-.61-.34-.55-.08-.67-.29-.62-.24-.64-.46-.61-.26-.67-.23-.69-.25-1.04-.39-.49-.27-.65-.52-.49-.14-.11-.21.01-.65.19-.67.01-.65.22-.68-.01-.67.05-.7.23-.7.17h-.74-.73l-.71.19-.68.32-.76-.16-.68.34-.73.07-.72.07-.61.09-.59.13-.58.19-.79.69-.35.78.17.07-.16.21.1.57.06.57-.09.61.22.61-.11.68-.07.68-.06.69.16.7-.32.74.2.79-.12.76.15.29.12.47-.17.58.08.31-.01.77-.06.78.14.77-.21.77.17.77-.14.77-.08.74.06.76.06.76-.01.76-.06.76-.11.76-.01.67-.08.67.01.68.13.67-.06.68-.03.65.27.66z"/><path d="m117.41 62.72h.77l.89-.27.93-.27 1.02-.32.54-.12h.74l.73-.07.73-.08.77.12.21-.42.55-.03.9.21.27-.16.17-.15.09.11.16-.11v.08l.82-.27.24-.85-.04-.68.25-.66.13-.81-.02-.84.21-.75-.03-.79.15-.7.04-.7-.04-.71.08-.71-.02-.71.05-.71.05-.7.19-.7.03-.72-.17-.72.24-.7.03-.76-.01-.78.07-.77.25-.56.06-.28-.04-.69.05-.68.13-.68-.15-.7.2-.67-.03-.69-.06-.69.05-.69.01-.69.02-.58-.64-.18-.71.09-.72.13-.72.09-.26.12-.23-.13-.15-.04-.18.26-.22-.01-.17-.11-.26.11-.86-.06-.87.03-.11.29-.65-.12-.61.11-.6.15-.82-.06-1.01-.02-.56.08-.58.01-.76.68-.08.69-.04.69-.02.69-.08.69.03.7.01.69.04.7-.05.7-.02.69-.01.69-.14.69-.02.7-.01.7-.24.69.22.74-.24.73.02.74-.09.74.07.74.17.74-.09.75.04.75-.19.76.07.73.09.74-.08.73.18.73-.07.72v.81l.01 1.05-.15.74z"/><path d="m132.1 59.66h.76l.92-.13.72-.15.7-.23.28-.19.78-.11h.79l.77-.16h.8.18l.25-.29.57.08.54-.09.73-.21.7-.32h.27l.27.26h.1l.3-.13.24-.16.32-.87.12-.86v-.73l.12-.7.28-1.1h1l1-.26.66.08.62-.17.66-.36.06.76.1.67.14.66.1.66.37.6.12.76.82-.19.76-.21h.7l.27-.06.14.14.15-.13v-.15h.29v.26l.71-.2.7-.18.71-.11h.32.67l.78-.31.84-.22.78-.06h.43l.47-.43.08-.75.14-.64-.09-.64-.15-.73-.12-.71-.29-.66-.13-.7-.24-.67-.21-.68-.21-.68v-.76l-.24-.67-.2-.68-.2-.69v-.73l-.25-.68-.11-.69-.24-.66-.27-.65-.13-.68-.2-.67-.16-.68-.18-.68-.12-.69-.17-.68-.33-.63v-.73l-.27-.66-.17-.68-.16-.68-.34-.65-.15-.41h-.36l-.41.09-.15-.23-.24.18h-.74-.75-.57l-.52.34-.57-.14-.54.14-.71.08-.71.18-.64.07-.63.14-.86.12-.87.1-.71.29-.68.06-.65.27-.66.17-.74-.1h-.72l-.69.15-.69.16-.83.13-.71.37h-.27l-.23.19-.07.22-.09.71-.35.65-.16.69-.17.68-.15.69v.74l-.39.64-.08.71-.07.71-.23.68-.17.69-.2.68-.12.71-.25.67-.23.69v.73l-.3.65.06.74-.16.68-.38.63-.08.71-.28.66-.09.69-.07.71v.72l-.3.65-.06.71-.1.69-.29.67-.05.3-.09.46-.07.56v.57l-.12.69.07.62.64-.17zm12.28-12.21.29-1 .13-.9.07-.63v-.65-.65l.15-.84.25-.83.08-.68.25-.49.08-.32-.15-.2.17-.12v-.14-.21l.13.14.1.28-.17.52.1.51.08.62.16.75.19.87.21.83.27 1 .13.62.07.63v.65l.14.22-.08.69.16.61-.41.15-.23-.16h-.33-.22-.18v.27l-.88-.07-.84.23v-.81z"/><path d="m96.17 62.43.1.75.05 1.06.04.55.17.52.25.24.31-.08.39-.06.67-.05.76-.18.7-.08.6.01.21-.19.76.12.71-.18.7-.28h.75l.25-.25.3.03.36-.05.4.07.73-.09.59-.11.59-.2.64-.06.3-.85-.06-.82-.03-.82.28-.76-.17-.78.01-.77.05-.79-.11-.8.3-.2.22-.13.71-.37.47-.07.13-.03.04-.16.15-.05.19-.04.19-.01.26-.04.1-.28.19.16.07.06.89-.08.78-.48.9-.14.68-.5.02-.66.16-.68-.01-.7-.08-.71-.16-.8-.15-.78-.63-.54-1.09.02-.82-.1-.82.14-.81.2-.71.03-.12-.2.13-.12-.19-.12.12-.84-.01-.85.15-.6-.19-.63.14-.6.01-.5.31-.11.15.01.23.06.49-.19.58-.11.56-.22.36-.11.63-.01.76-.24.81.15.48-.27.31-.04.25-.07.53-.19.01-.33.28-.7-.29-.68.16-.71-.18-.67-.18-.67-.13-.68-.54-.43-.59-.16-.2-.08-.01.32-.2-.1-.1-.1-.69.11-.65.24-.7.02-.7.02-.67.19-.71-.03-.67.18-.66.23-.68.15-.7-.01-.68.19-.68.16-.7.11-.53-.03-.11-.06-.21.04-.21.07-.07.1-.36-.28-.85.21-.8.31-.12.1-.89-.01-.68.21-.77-.11-.76.06-.96.22-.83.25-.17.15-.21-.15-.15.33-.09.24.07.71.1.72-.03.71.04.7-.04.72.02.71-.09.71.03.71.1.72v.71l-.11.71-.13.72.1.71.06.72-.09.72-.09.72-.01.67.06.67.11.67-.01.67-.02.68.33.64-.02.67.07.67-.02.67-.09.68.15.66z"/><path d="m68.47 70h.76l.9-.35.72-.09.71-.14.31-.09.77-.13h.79l.78-.09.76-.2h.15l.31-.13.54-.09h.55l.72-.24.78.08h.11.37.1l.23-.21h.3l.36-.83.1-.87v-.73l.32-.68.09-1.27 1-.16 1-.19.67.13.59-.3.65-.16.12.7v.69l.22.64.27.62.2.64.16.71.81-.06.75-.27.71.12.26-.13.14.08.18-.08v-.22l.26.07v.11l.7-.16.7-.22.74.13.29-.16h.67l.8-.2h.87l.75-.2.49-.07.52-.49.18-.76-.26-.61.13-.67-.08-.74-.29-.73-.2-.67-.17-.69-.1-.7-.31-.66v-.74l-.34-.64-.23-.68v-.74l-.15-.69-.22-.69-.28-.67v-.71l-.2-.65-.28-.64-.23-.66-.09-.71-.16-.68-.31-.63v-.75l-.28-.65-.29-.65-.15-.7-.21-.64-.22-.67-.18-.69v-.73l-.34-.34h-.35-.36l-.2-.08-.25.1h-.74l-.71.3-.59-.11-.54.2h-.56l-.51.26-.75-.1-.7.19h-.65l-.61.25h-.88l-.81.35-.75.14-.66.17-.67.11-.72-.12-.68.26-.73-.11-.69.16-.67.25-.83.06-.76.09-.24.22-.23.21-.21.19-.07.71-.09.7-.12.7-.3.66-.28.66-.13.7-.17.69-.2.69.11.75-.23.68-.12.7-.2.68-.34.66-.16.69-.08.72-.13.71-.25.66v.72l-.3.66-.12.69-.15.68-.07.71-.15.68-.32.65-.14.69-.12.7-.14.69v.71l-.28.66v.32l.11.49-.14.55-.08.55v.7l-.31.78.76-.31zm12.22-12.18.34-1-.1-.93.14-.62.12-.63.06-.64.12-.85.25-.82.15-.68v-.52l.1-.36v-.13-.12-.16l.13-.36-.09.37.11.24.17.46.06.53.17.59v.78l.13.88.22.82.27 1-.07.65.28.6.09.63.08.22-.13.7.28.67h-.52l-.21-.14-.34-.13-.11.08-.07.18-.14.15h-.87l-.87.1.09-.73z"/><path d="m157.77 90.51.18.74.02.72.16.72.06.61-.03.6v.6l-.11.8-.07.79.12.79.15.78.12.78.16.31.79.2.44-.22.62-.14 1.03-.06.67-.32.74.16.68-.28.72-.01.29-.18.56-.01.53-.13.37.09.87-.37.37.08.47-.16.61.02.12-.57.11-.05-.24-.47.25-.32-.02-.44-.14-.57.04-.58.1-.61-.07-.77-.11-.77-.09-.77-.04-.56-.08-.56-.18-.66-.16-.69-.84-.42-.22.08-.1.13-.28-.16-.93-.02-.23.23-.25-.19-.19.12-.26-.1-.34.41-.27-.15-.93.1-.64.17-.72.08-.74.29-.75.14-.75.12-.62.2-.71.06z"/><path d="m139.99 102.48.47-.04.73-.03.7-.16.68-.3.74.07.67-.35.75.04.72-.09.69-.26.73-.04.64-.38.76-.04.64-.36.65-.49.76-.31.74-.34.5-.7.66-.28.44-.57.56-.43.52-.48.47-.53.31-.64.35-.61.43-.57.11-.72.29-.61.04-.68.1-.67-.14-.67-.18-.64-.07-.68-.51-.51-.35-.56-.29-.64-.61-.32-.46-.55-.71-.32-.76-.22-.69-.33-.73-.27-.72-.26-.68-.23-.69-.16-.58-.44-.4-.2-.11-.4.24-.51.02-.64.55-.42.59-.27.53-.44.68-.06.61-.33.63-.28.68-.14.94-.11.57-.23.57-.26.61-.02.24-.54-.02-.23-.18-.73.01-.75-.02-.74.14-.74-.07-.74-.35-.74-.92-.46-.85.12-.72-.05-.7.25-.72.12-.7.19-.72.07-.74.05-.67.31-.7.18-.73.08-.74.02-.61.43-.69.17-.65.25-.63.32-.75.03-.58.4-.6.38-.62.33-.62.31-.51.49-.68.26-.51.52-.45.57-.57.46-.32.66-.45.58-.22.69-.25.67-.26.69.05.74-.12.71.03.76.17.72.13.74.4.66.15.66.44.49.28.66.64.13.1.11.35.36.54.36.4.3.07-.01.05-.06.24.07.58.45.08.09.05.01.63.1.6.18.62.15.61.15.64.11.44.47.38.38.06.55-.39.69-.66.29-.65.45-.77.07-.6.05-.61.04h-.71l-.69.22-.72.09-.7-.28-.71.04-.7-.16-.71-.15-.26.29.04.44-.12.2.17.68.17.68-.08.72.34.65.17.69.12.69-.06.73.45.23.8.12.7.18.71.01.73-.08z"/><path d="m126.08 104.02.5-.3.56-.25.22.17.09-.2.5-.5.22-.69.1-.7.12-.69-.01-.73.28-.66.1-.71.23-.69.06-.71.11-.71.18-.68.02-.73.36-.66.06-.71.08-.72.23-.68.04-.72.18-.7.23-.68.16-.7.1-.72.09-.72.31-.67.2-.71-.06-.77.31-.67.24-.69.01-.75.33-.68.08-.73.08-.73.2-.71.24-.7-.02-.75.24-.71.08-.73.27-.7.09-.74.1-.35.11-.72-.04-.71.07-.67.06-.54-.15-.73-.55-.51-.54.2-1.02.02-.55.2-.56.17h-.55l-.52.24-.88.05-.31.27-.69.08-.68.12-.69.04-.66.19-.09-.03-.11.04-.23.02-.11.04-.08-.02-.11.09-.41-.15-.83.33-.53.16-.57-.04-.95.24-.35.65-.23.69-.12.78-.03.79-.3.74.07.84-.35.77-.18.8.11.77-.4.68.07.77-.35.68-.07.71.05.82-.41.92.06.76-.28.7-.02.75-.21.75-.06.79-.25.74-.1.78-.14.76-.14.47-.06.14.05.5-.12.17-.1-.15-.1-.2.09-.2-.08-.66-.3-.69-.18-.71.08-.77-.11-.73-.36-.68-.08-.69-.03-.7-.05-.7-.28-.86-.03-.79-.11-.42-.02-.23-.36-.63-.17-.68-.06-.71-.14-.68.03-.64-.22-.6-.09-.63-.11-.62-.13-.64-.28-.61-.09-.65-.32-.58-.09-.72-.68.03-.64.11-.79.18-.79.1-.8.04-.43.05-.17.07-.35.13-.09.09-.16.08-.25-.15-.19-.01-.66.11-.67.01-.65.24-.68-.04-.66.15-.66.16-.39.03-.63.24-.66-.01-.66.05h-.57l-.56.01-.99.22-.5.22-.8.6-.03.99.23.78.18.76.09.59-.17.48.38.66.01.76.22.7.16.72.01.74.23.7.27.69.14.71.02.75.27.69.27.68.08.73.32.67.05.74.14.7.36.64.08.69.01.71.25.66.13.69.04.71.14.69.3.65.16.68.03.72.15.68.39.64.11.7-.06.73.13.69.14.69.15.69.32.65.09.71.07.7.55.44.22-.08.14-.04.58.01.59-.22.64.22.53-.07.72-.13.72-.11.71-.17.72-.11.73-.06.72-.11.73-.06.68-.29.74-.03.71-.12.68-.3.75-.01.72-.07.7-.24.75.06.69-.19.72-.1.68-.34.75.07.72-.1.66-.35.75.1.56-.18.59-.14.57-.02z"/><path d="m233.38 120.33-.17-.72-.54-.44-.36-.56-.59-.36-.39-.52-.45-.66-.54-.46-.21-.65-.47-.46-.24-.61-.37-.55.62-.27.38-.55.45-.44.39-.5.45-.53.41-.59.23-.67.18-.69.08-.71.07-.71v-.81l-.08-.81-.36-.73-.14-.66-.37-.57-.53-.42-.62-.36-.69-.16-.63-.36h-.74l-.66-.34-.73.08-.71-.1-.71-.06-.72.11-.71.1-.72-.19-.7.24-.73-.07h-.71l-.7.2-.71.09-.73-.11-.71.14-.69.23-.71.14-.71.07-.71.13-.71.07h-.73l-.71.13-.71.16-.73-.06-.7.28-.73.15-.67.27-.59.38-.55.51.22.23-.11.4.27.56-.13.51.1.4-.05.77.07.77-.22.76.15.85-.1 1-.14.25.06.42v.41.32l.09.35v.65l-.17.65v.37l.19 1v.6l-.14.6.24.71-.12.74.05.72.13.61-.05.62.12.78v.78l.19.78-.09.8v.8l.24.79-.09.82.12.23.19.08-.09.41.63.1h.61l.26-.1h.63.75l.56-.21h.71l.68-.17.67-.25h.71l.66-.28.68-.17.69-.15.71-.06.66-.29h.13l.26-.11.19-.36v-1.21l.12-.7v-.7-.7l.07-.7-.14-.7.19-.71-.05-.7v-.7l.12-.65v-.28l.24.19.13-.07.3.51.19.58.46.61.39.65.43.63.63.49.49.57.43.61.23.67.42.51.55.38.42.63.58.46.57.48.5-.14.65-.52.81-.27.7-.47.42-.57.62-.3.43-.53.69-.25.38-.56.67-.49.6-.59.48-.66.18-.25zm-10.26-9.33-.6.39-.45.54-.6.28-.5.5-.69.23-.71.08-.11-.84.2-.83-.08-.83.16-.84v-.83l.09-.72.78-.3.83-.14h.77l.68.36.3.54.21.56.06.61-.09.64z"/><path d="m206.63 107.01-.31-.96-.41-.35-.61.16-.62-.03-.21-.08-.65.14-.67.1-.64.22-.69-.05-.64.17-.68.15-.64.25-.67.17-.63.42-.19-.17-.58-.01-.58.14-.65.1-.65.2-.67-.08-.65.15-.65.17-.67-.04-.67-.05-.64.19-.67.05-.65.18-.98.09-.56.21-.55.2-.81.19-.5.6-.11.73v.73l.09.74-.3.72.19.74.01.74-.1.72.05.74-.13.73.03.74.01.74.14.74-.26.71.25.71-.15.71.14.7-.09.63-.06.62.14.63-.02.96-.01.66.12.65-.03.73.06.72.1.72-.16.75.3.63-.05.69.27.62.27.46.36.83.13.08.73-.05.7-.22.75.08.69-.3.72-.07.71-.22.76.13.68-.35.73-.08.72-.08.72-.14.72-.16.75.07.7-.21.73-.12.72-.16.73-.05.66-.23.64-.3.71-.14.33-.07.2.06.61.1.46-.24-.08.31.26-.37.34.03.22.04.55-.26.14.14.34.06.24-.45-.09-.32.16-.12.02-.81-.14-.57-.14-.56-.22-.52.05-.56-.28-.48-.01-.43-.21-.15-.7.16-.68.23-.7.13-.73.01-.68.26-.7.2-.75-.02-.71.18-.74-.02-.77.35.18-.34-.21-.36.14-.4.16-.84-.12-.89.01-.28-.14-.16.39-.6.22-.42.8-.27.59.02.57-.19.83-.15.86.06.69-.31.71-.1.7-.19.66-.26.83-.18.36-.71-.29-.59-.17-.64-.16-.65-.17-.64-.13-.54-.6.03-.95-.18-.58-.17-.07.28-.18.08-.64.19-.67.01-.67.02-.67.06-.65.14-.21.05-.13-.04-.43.18-.43-.11-.21-.57.12-.81.09-.65-.01-.67.34-.59.13-.39v-.14l.88-.16.8-.12.77-.28.79-.23 1.03-.19.65-.09.8-.19.36-.24.33.04.54-.07.4-.03.12-.01.14-.06.49-.42-.14-.68-.24-.61-.05-.67.12-.66z"/><path d="m186.09 108.99-.55-.07-.78.19-.8.06-.77.02-.73.27-1.03.06-.56.13-.59.02h-.56l-.56.14-.54.02-.47.28-.97.14-.71.12-.72.03-.8.33-.84.08-.85.04-.83.14-.66.11-.67.01-.7.09-.59.31-.65-.05-.61.22-.63.11-.64.14-.66.02-.65.1-.66.1-.78.08-.69.11-.04.26-.29.28.05.81-.04.89.04.52.09.79-.04.79-.02.79.27.75.17.76.06.83.74.13.78-.02.75-.25h.78l.79.02.75-.17.11.04.14.72-.16.73-.08.73.14.73-.15.73.23.73-.16.71-.03.74v.73l.04.73.09.74-.17.74-.08.74.05.77.05.76-.03.77.15.76-.05.77.08.68.2.66.29.64.65-.01.61-.29.67.08.63-.14.64-.3.68-.03.68-.08.61.03.57-.25.59-.1.63-.13.64-.03.61-.23.54-.09.57-.06.58-.27.15-.6.19-.6.01-.67.07-.67.11-.68-.18-.67.2-.65-.2-.78.17-.76-.06-.78.18-.75.13-.77.05-.77-.21-.56.03-.56-.1-.59.11-.61.04-.6v-.6l-.15-.66.05-.65.33-.6.18-.59.4-.48.76.02.72-.19.67-.03.64-.27.69.14.66-.16.64-.07.6-.25.19-.64.1-.75-.19-.76.03-.75v-.75l.05-.76-.03-.76.05-.75v-.76l-.08-.76-.04-.1z"/><path d="m162.24 113.24-.55-.13-.57.07-.41-.1-.86.09-.56.28-.6-.09-.56.2-.6-.04-.97.12-.36.19-.66.05-.63.15-.64.13-1.02.33-.46.69-.2.38.16.44-.04.57-.03.77-.16.76-.05.76.06.77-.06.81.03.8.06.7-.1.67-.51-.81-.54-.59-.37-.7-.6-.52-.37-.69-.34-.71-.47-.61-.43-.71-.54-.58-.52-.41-.39-.53-.04-.44-.34-.28h-.55l-.72-.03-.65.38-.87.14-.89.12-.67.2-.71.07-.69.12-.69.14-.68.11-.62.28-.62.17-.75.26-.15.79-.14.09.03.14.2.9-.09.93-.04.54-.07.54.22.53-.3.19.19.41-.12.69.06.64-.03.4.11.24-.08.44.03.39-.06.29.14.32-.12.68-.13.6.11.32.08.75-.15.74.09.74-.1.74.22.73.04.74.02.73-.08.6.13.6-.12.74.23.74-.02.76-.1.76.2.75-.04.76-.13.84.09.41.1.27.79-.07.74.28.32-.11.56-.18.65.09.55-.06.7-.26.72-.16.74-.05.68-.38.72-.17.75-.06.73-.16.1.04.13-.04.24-.1.12-.2.21-.65.09-.24-.2-.61.17-.96-.2-.61.21-.59.09-.59-.13-.58.16-1-.22-.69.19-.17.17-.06.25.12.51.39.47.31.34.42.44.54.44.53.41.57.27.67.64.38.38.6.27.67.6.42.56.51.98-.1.3-.13.51-.01.67-.12.69.02.67-.12.68-.07.66-.16.65-.24.68-.1.69.01.67-.23.33.1.2-.09.43-.48.05-.62.16-.66.13-.66.05-.69-.1-.69.1-.68.03-.69-.13-.69-.13-.69.13-.69-.06-.69.09-.54-.14-.54.16-.75.1-.75-.13-.76.03-.75-.19-.76.12-.76.01-.77-.01-.76.12-.77-.16-.77-.04-.77.21-.77.02-1.04-.14-.36.04-.28-.08-.97.15-.88-.09-.77z"/><path d="m133.02 117.24-.23-.15-.26.16-.09.07-.23.08-.28-.19-.1.27-.29-.26-.86.15-.81.28-.14.14-.63.12-.64-.12-.58.26-.81.11-1.04-.17-.54.21-.56.11-.65.7.06.69.1.69-.02.69-.03.7-.17.69-.06.7.06.69.08.7-.02.69.07.7-.13.69.18.7-.14.7v.7l.16.73-.16.74.24.73-.08.75.11.73.13.74-.1.75.08.75-.07.76.21.73.11.72.06.73-.08.74.08.72-.1.8.35 1.04-.03.73.2.59.6-.05.9-.17.9-.36 1.06-.17.5-.29.75.07.7-.29.73-.07.74-.08.23-.12.53-.08.9-.07.26-.18.23.09.04-.23.09.13.06-.04.79-.36.33-.85.03-.68-.12-.68.06-.82.05-.83-.09-.79.21-.76.03-.71-.14-.7-.01-.71.2-.71-.26-.71.06-.71.14-.71v-.71l-.21-.71.22-.72-.13-.71.05-.76.03-.77.09-.77.12-.58-.17-.28.2-.69-.22-.68.21-.7v-.68l-.04-.69-.09-.68-.02-.69-.05-.68.04-.7-.11-.58-.65-.11-.69.28-.69.22z"/><path d="m123.3 139-.2-.69-.34-.65.07-.74-.19-.69-.17-.69-.16-.69-.15-.69-.35-.65-.06-.72-.13-.7-.32-.65-.24-.68v-.73l-.4-.62v-.73l-.41-.61.09-.75-.22-.66-.42-.61.07-.75-.16-.68-.46-.6-.1-.7-.17-.68-.21-.67-.12-.7-.24-.67-.22-.22-.33-.1-.44.13-.16-.11-.19.06-.76-.07-.73.18-.58-.08-.53.32h-.54-.56-.72l-.71.18-.63.16-.66-.06-.84.25-.85.19-.74.16-.65.24-.67.1-.66.19-.72.08-.73-.21-.68.28-.74-.11-.8.28-.72.27-.25.12-.23.19-.17.19v.72l-.33.65-.12.7v.72l-.4.64-.17.69-.15.69v.74l-.38.64v.72l-.17.69-.23.68-.07.72-.31.66-.12.7-.09.72-.24.66.07.74-.3.65-.22.67v.72l-.34.64v.73l-.06.7-.23.68-.23.66-.24.67v.73l-.15.69-.12.29v.47l-.12.56.07.57-.33.67v.78l.81-.13.45-.17.73-.17.89-.1h.73.73.31l.73-.35.77-.17h.79.79l.13-.16.3-.18.55-.07.57.07.73-.17.71-.29.17.21h.35v-.16l.37.11.21-.19.15-.88.25-.82.28-.68.23-.7v-1.1l1-.07 1-.12.59-.33h.64l.55-.09.21.57.16.66v.68l.19.65.31.61.15.72.8-.27.77-.09h.71l.27.06.13.08v-.21h.19l.24-.1v.25l.69-.28.7-.17.71-.17h.31l.66-.1h.82.87l.78-.06.39-.32.55-.36v-1.01l.11-.63-.27-.6zm-11.3-3.71h-.26l-.32.19-.15-.21-.14.13-.09.1-.85.13-.86.12.07-.77.28-.84.2-1.06v-.92-.64l.32-.59-.12-.67.36-.81-.09-.88.39-.64v-.51l-.15-.42.29-.09v-.12l-.28-.19.22-.29.09.28.11.27v.48l.17.52.16.58v.79l.33.85v.85l.22 1-.09.66.17.61-.06.65.3.19.06.67v.66z"/><path d="m95 121.08-.44-.51-.56-.37-.54-.41-.55-.41-.68-.15-.57-.44h-.7l-.67-.13-.76-.09-.74-.13h-.76l-.76.06-.76-.12-.74.23-.76.07-.76-.09-.71.23-.72.15-.72.16-.71.26h-.76l-.79.27h-.84l-.73.09-.71.22h-.76l-.73.11-.72.21h-.74l-.74.13-.7.35-.78-.08-.71.3h-.75-.75l-.7.24h-.74l-.7.27h-.74l-.73.1-.71.22h-.74l-.74.49-.34.83-.08.71v.72l-.1.71.2.72-.19.71.17.72-.06.72-.05.72.07.71v.72l-.2.72v.72l.23.72-.18.73-.09.72.16.73-.13.74.21.72-.15.73v.73l.13.72-.08.73.19.73-.24.73.14.72v.72l.1.71-.08.71.06.7v.71.7l-.09.7.22.71-.1.71v.7.71l.15.71-.12.61v.61l.12.6.28.71.77.16h.7l.66-.28h.7l.67-.25.69-.13.72.05.65-.32h.72l.67-.24.7-.07h.72l.67-.24.66-.2.72.13.63-.36.72.16.66-.13.6-.31.61-.3.37-.66.2-.71.11-.74v-.77l-.11-.76.14-1-.06-.74-.2-.74.07-.82.77-.16.76-.11.74-.13.79.06.75-.16.74-.19h.77l.75-.17.72-.14.73-.05.65-.39h.76l.71-.19.68-.27.61-.4.63-.38.63-.34.65-.33.65-.34.58-.44.52-.51.48-.54.35-.64.46-.54.35-.62.31-.63.37-.6.46-.58.13-.71.32-.65.22-.69.1-.71v-.72-.71l.07-.71.18-.7-.12-.72.22-.71-.14-.75v-.74l-.04-.63-.18-.72-.25-.71-.3-.67-.23-.71-.36-.67zm-11.74 7.4-.07.75v.75l-.07.75-.15.74.08.76-.31.73.07.77-.14.75-.16.74-.23.61-.19.63-.34.58-.65.16-.6.25-.62.07-.54-.18h-.18v-.75-.75l-.11-.75.15-.75-.09-.76.14-.74.08-.75v-.75l.21-.74.06-.83v-.77l.18-.81.09-.77-.1-.82.36-.73v-.87l.36-.71.34-.48.34-.37.8.44.7.62.15.65.16.64.21.71v.73.71z"/><path d="m9.48 104.88-.12-.74.2-.66.34-.63-.05-.71.27-.64.1-.67.06-.69.06-.69.16-.65-.32-.63-.61-.43-.69-.27-.64-.35-.7-.22-.72-.14-.74-.14-.75.01-.7.29-.64.37-.75.22-.41.67.27.69.63.32.64.4.69.26.72.15.69.28.46.54.5.46.52.45.35.6.53.48.31.64.04.72z" opacity=".8"/><path d="m16.05 108.46.11-.67.28-.66.13-.7.09-.71.37-.64.03-.72.19-.69.26-.67-.04-.74.32-.66.22-.68-.01-.73.23-.67.1-.71.11-.71.36-.66.14-.63.5-.32.64.16.66-.24-.32.71.08.74-.36.65-.14.7-.01.72-.31.66-.01.72-.38.65-.18.68-.12.71-.06.72-.13.7-.33.65.05.75-.37.64-.21.69-.02.71.78-.22.82.03.83-.12.18-.71.06-.71.17-.69.34-.65.16-.69.14-.7.17-.69-.02-.73.26-.67.14-.7.25-.67.02-.73.19-.68.09-.72.14-.7.18-.69.23-.72.66.05.6-.13.64-.17-.2.71-.15.69-.18.69-.21.68-.18.69-.07.71-.14.7-.21.68-.14.7-.26.67-.19.69.07.74-.19.69-.31.66-.1.71-.21.69-.1.67.79.01.8-.15.87-.1.1-.77.26-.67.18-.69-.05-.74.15-.69.2-.68.24-.67.13-.7.06-.72.26-.67.14-.7.19-.69.32-.65.15-.7-.1-.76.16-.69.36-.61.53-.27.64.1.69-.23-.16.78-.16.69-.27.67-.28.66-.02.72-.04.72-.26.67-.13.7-.31.66.02.74-.21.68-.23.68-.26.66-.15.7-.1.71-.03.73-.28.68.8-.23.83.05.89-.07.19-.77-.06-.74.24-.68.17-.69.23-.67.05-.72.17-.69.15-.69.2-.69.28-.66.19-.69-.1-.75.17-.69.39-.65.11-.7.12-.71.21-.66.58-.05.6-.15.53-.05-.03.65-.18.68-.34.65.01.73-.17.69-.09.71-.27.67-.14.69-.3.66.1.76-.18.69-.38.64-.2.68.06.75-.29.66-.24.68-.03.71.69-.08.71-.03.68-.33.74.13.7-.16.7-.17.71-.05.71-.09.68-.3.72-.07.72.01.73.01.7-.18.67-.29.71-.04.7-.14.74.09.66-.34.72-.02h.73l.68-.28.74.12.69-.22.69-.24.71-.08.71-.12.72.03.68-.29.75.17.67-.34.71-.06.69-.19.73.04.72-.03.69-.19.73.04.67-.38.71-.05.72-.06.69-.23.71-.09.72-.08.73.05.68-.31.7-.1h.73l.73.04.67-.33.71-.13.71-.1.71-.13.72-.07.72-.01.71-.08.69-.27.71-.08.75.11.69-.25.72-.03.71-.09.69-.24.72.04.7-.21.72-.01.68-.33.74.1.7-.18.72-.09.72-.01.72-.11.67-.35.72-.09.75.14.7-.2.72-.02.69-.29.72-.13.72-.06.8-.02-.09-.78-.33-.68-.02-.78.72-.09.69-.01.65-.29.71.05-.14-.74-.2-.72.14-.76-.3-.7.03-.75-.22-.72-.12-.73-.04-.74.02-.74-.13-.73-.23-.72-.01-.75-.25-.65-.63-.05-.64.3-.67.12-.78.07-.12-.79v-.7l-.13-.69.02-.71-.06-.7-.31-.58-.62.01-.69.17-.69.14-.73-.05-.71.01-.67.35-.7.13-.7.07-.72-.03-.7.12-.71.12-.69.18-.67.09-.31.68-.21.76-.45.66-.22.81-.77-.05-.67.33-.72.03-.71.09-.72-.01-.71.08-.68.29-.7.13-.71.1-.73-.07-.69.21-.71.13-.71.03-.72.06-.7.12-.69.2-.72.03-.69.22-.73-.03-.69.26-.71.06-.71.07-.7.17-.72.02-.68.29-.75-.13-.68.27-.72.05-.7.13-.7.14-.73-.04-.7.15-.71.07-.67.36-.74-.11-.71.13-.71.11-.7.15-.69.23-.72.1-.72.04-.72.02-.7.19-.71.1-.71.16-.73.03-.67.04-.42-.4-.46-.44-.63-.27-.38-.47-.71-.06-.7.22-.72.02-.73.04-.7.2-.7.26-.72.06-.75-.1-.71.15-.73.08-.68.35-.74-.05-.73.02-.7.26-.74-.08-.68.39-.72.09-.72.06-.73.02-.69.24-.74-.01-.73.03-.73.02-.72.12-.7.2-.71.22-.74-.02-.7.24-.72.1-.75-.11-.71.23-.7.18-.73.09-.72.15-.72.16-.81-.1.01.79-.23.68-.16.69-.06.71-.12.69-.31.65.02.73-.43.63v.73l-.07.71-.37.65-.12.7-.05.71v.73l-.38.65v.73l-.24.67-.27.68-.04.71.01.74-.28.67-.12.71-.28.79.8-.34.73-.11.76.16.72-.11.7-.26.72-.13.71-.18.74-.03z" opacity=".8"/><path d="m82.31 103.85.17-.74.58-.54.13-.74.33-.66.46-.6.2-.72-.7.19h-1.48l-.67.39-.74-.09-.71.09-.7.19-.7.18-.71.13-.74-.12-.7.17-.72.09-.69.21h-.72-.72l-.67.33-.72.1h-.72l-.72.08-.65.21-.71.13-.7.12-.72.1-.7.18-.7.17-.71.09h-.73l-.71.12h-.74l-.69.19h-.72l-.67.39h-.72l-.72.06-.69.23-.74-.11-.7.18-.7.18-.74-.06-.68.3-.71.12h-.73l-.72.09-.71.14h-.72l-.69.24-.7.2-.71.09h-.73l-.69.29h-.73-.72l-.7.26-.71.11-.71.12-.72.09-.75-.1-.68.34-.73.05-.71.1h-.74-.73l-.72.11-.7.19-.73.06-.7.22h-.73l-.69.27h-.74l-.72.16h-.72l-.72.1-.69.26-.72.09-.71.15-.75-.15-.69.29h-.73l-.7.23h-.74l-.7.16-.72.09-.7.2-.72.09-.7.19-.74-.08-.69.3-.75-.1-.7.26h-.75l-.73.05-.71.17-.7.2-.74-.07-.72.09-.7.24-.69.25-.75-.17-.69.26-.7.16h-.72-.75l-.69.24-.71.08-.71.08-.7.19-.7.19h-.72l-.71.08-.71.27-.51.53-.58.49-.28.71-.14.75v.77l.27.73.58.51.59.47.73.18h.73l.74.08.72-.14h.73l.72-.19h.74l.73.09.74-.14.73.18.73.16.64.4.51.53.5.52.61.47.35.65.25.7.29.69v.74l.05.71.14.74-.08.73-.35.67-.22.69-.1.73-.45.61-.31.65-.25.68-.31.66-.33.65-.31.66-.31.65-.55.52-.23.71-.49.55-.18.74-.56.52-.17.74-.46.58-.24.7-.31.66-.56.53-.23.71-.34.65-.14.73-.52.57-.1.74-.3.67-.29.68-.1.72v.74l-.21.7v.73l-.32.69.13.75-.13.72-.1.73.12.73v.73.72l.27.7v.74l.19.71.2.71.39.63.34.63.28.69.54.5.53.48.53.52.73.15.69.21.72-.08.72.07.69-.2.75.12.7-.14.7-.16h.72l.7-.15.7-.19.71-.09h.71l.68-.29.73.08.69-.25.7-.14.75.13.67-.36h.72.79l.69-.22h.71l.71-.08.7-.07.67-.34h.76l.74-.2.56-.53.46-.6.2-.72.17-.73-.13-.75.1-.74-.18-.73v-.75l-.19-.72-.08-.71-.3-.67.17-.74-.15-.7-.24-.69-.12-.7.14-.72-.14-.7-.08-.71.05-.71v-.71l-.07-.72.09-.71.12-.7.1-.71-.14-.73.23-.69.09-.71.27-.67.08-.71.25-.68.34-.63.09-.74.31-.65.48-.55.53-.49.32-.66.65-.35.48-.54.65-.28.62-.36.65-.27.66-.29h.73l.71-.15.7-.15h.73l.7-.16.71-.07.7-.19.71-.15.69-.19.71-.12.74.09.7-.13.71-.12.7-.17h.72l.68-.27.7-.09.72-.13.7-.21.7-.3.54-.52.28-.69.6-.49v-.79l.22-.68.23-.69.11-.72v-.74-.73l-.21-.72-.08-.73-.31-.67v-.74-.74l.3-.67.3-.63.18-.74.62-.42.55-.44.66-.26.65-.35.73.05.69-.23.7-.13.74.11.7-.14.68-.33.71-.1.79.08.34-.6.09-.68.26-.61.49-.51v-.71l.43-.49.69-.06.68-.35.73-.06h.75l.69-.29h.74l.71-.15.7-.22h.74l.69-.29.73-.05.72-.1h.74l.7-.24.72-.18.75.06.73-.07.71-.17.7-.25h.75l.71-.18.73-.06.71-.23.72-.2zm-47.52 12.9-.13.69-.53.52-.08.7-.28.63-.41.58-.13.68-.15.68-.34.61-.34.72.83.1.42.61.35.58.27.64.06.78-.22.75-.63.48-.55.48-.72.2-.6.12-.62-.22-.27.7v.74l-.19.69-.3.66-.19.69-.16.69-.13.71-.14.7-.14.7-.06.71-.06.71-.13.71-.23.68-.09.71-.21.69v.72l-.17.7.24.73-.13.71-.07.71.13.71-.19.72.11.7.13.7-.09.72.25.69v.71l-.1.7v.71.7l-.18.68-.07.7-.28.67-.52.51-.68.23-.6.41h-.72l-.71.06-.67.25-.68.1-.69.19-.69.08-.71-.11-.65.33-.69.05-.69.09h-.67-.7l-.69.11-.68.19h-.7l-.72.16-.72-.19-.75-.13-.53-.56-.54-.49-.35-.65-.33-.65-.4-.63-.19-.71-.2-.72.16-.76-.25-.71.08-.74-.11-.73.21-.72v-.73l.12-.72.06-.74.19-.71.13-.73.4-.63.08-.76.53-.49.18-.73.43-.6.39-.67.33-.64.29-.67.53-.53.38-.61.24-.7.23-.69.59-.5.2-.71.28-.66.37-.62.42-.61.17-.71.35-.64.3-.66.17-.7.15-.7.36-.64.19-.7.11-.71v-.72l.23-.7v-.73l-.06-.72-.13-.71-.25-.69-.45-.57-.27-.68-.29-.67-.25-.68v-.72l-.1-.71.21-.69.28-.68.58-.47.68-.25.64-.4.74-.09.72-.16h.75.75l.74-.11.71-.31.75-.09.75-.05.73-.14h.76l.74-.1.68-.29.7-.14.73.08.75-.09.74-.21.74.23.67.24.6.34.5.49.36.6.22.67.05.71-.34.65zm12.43 6.76-.68.26-.74-.18-.67.3-.7.08-.72-.06-.68.23-.68.2h-1.42l-.66.38-.74-.09h-.72-.74l-.73-.17-.65-.4-.29-.71-.37-.61-.15-.71-.19-.71.1-.74.14-.71-.08-.77.22-.71.36-.65.32-.66.34-.65.38-.63.44-.6.51-.53.51-.54.6-.46.69-.3h.76l.7-.12h.72l.69-.19h.72l.66-.39h.72.71l.67-.23.74.18h.72l.72.17.56.5.69.29.53.52.35.66.36.63.34.64.17.71.3.68.17.73v.74l-.24.71v.77l-.42.63-.46.57-.41.63-.6.45-.65.38-.69.27h-.77z" opacity=".8"/><path d="m43.2 113.92-.78.04-.71.27h-.75l-.73.2-.64.4-.59.45-.44.6-.43.59-.33.65-.24.69-.16.69.53.5.72.23.75.04.65.3.42.5.35.62.37.63.6.42.66.3.61.41.74.03.59-.12-.54-.3-.41-.62-.39-.6-.36-.62-.22-.69-.2-.7.12-.73.06-.71-.02-.71.09-.7.22-.68.14-.7z" opacity=".8"/><path d="m33.19 113.22-.84.04-.8-.1-.8.05-.95.15-.56.2-.57.21-.75.01-.75-.02-.71.29-.77-.07-.72.21-.72.17-.75.08-.75.06-.72.24-.78-.13-.64.14-.54.44-.62.19-.5.48-.05.74.11.7.13.7.43.6.24.68.34.65.32.67.1.73.12.72.2.72-.23.73.02.73-.11.72-.27.68.01.76-.29.67-.18.71-.25.69-.26.68-.31.66-.26.68-.47.59-.4.62-.34.64-.24.7-.21.72-.43.59-.39.63-.3.66-.58.51-.27.69-.35.67-.36.62-.27.68-.29.66-.34.64-.35.64-.22.7-.27.68-.09.72-.25.7.15.75-.03.72-.24.72.07.72.21.71-.14.75.31.68.1.72.19.71.56.51.43.62.51.61.77.18.76-.14.69-.02h.7l.67-.28.68-.11.72.15.66-.3.68-.15.7-.05.71.1.68-.18.67-.23.72.09.66-.37.75-.05.7-.26.66-.28.68-.4.04-.8.09-.75.07-.76.05-.77.09-.77-.09-.77-.23-.76-.04-.7.02-.72-.09-.7-.05-.71.15-.7.07-.7-.05-.71.17-.69-.04-.71.19-.7.1-.7.07-.69.05-.71.08-.7.09-.71.23-.68.2-.68-.02-.73.15-.7.26-.68.06-.72.19-.7.17-.7.27-.67.32-.72-.44-.67-.5-.66.28-.76.18-.71.33-.69.72-.29.67-.33.13.04.06-.75.36-.64.25-.68.34-.65.23-.69.14-.72.27-.68.22-.69.32-.65.47-.6-.03-.73-.14-.7-.48-.53z" opacity=".8"/></g></svg>